<svg xmlns="http://www.w3.org/2000/svg" xmlns:xlink="http://www.w3.org/1999/xlink" fill="none" version="1.1" width="16" height="16" viewBox="0 0 16 16"><defs><mask id="master_svg0_1_6026/1_5876/1_5645" style="mask-type:alpha" maskUnits="userSpaceOnUse"><g><path d="M15,8Q15,8.17184,14.9916,8.34347Q14.9831,8.51511,14.9663,8.686119999999999Q14.9494,8.85713,14.9242,9.02711Q14.899,9.19709,14.8655,9.36563Q14.832,9.53417,14.7902,9.70086Q14.7485,9.86755,14.6986,10.03199Q14.6487,10.19643,14.5908,10.35823Q14.5329,10.52002,14.4672,10.67878Q14.4014,10.83754,14.3279,10.99288Q14.2545,11.1482,14.1734,11.2998Q14.0924,11.4513,14.0041,11.5987Q13.9158,11.7461,13.8203,11.889Q13.7248,12.0319,13.6225,12.1699Q13.5201,12.3079,13.4111,12.4408Q13.3021,12.5736,13.1867,12.7009Q13.0713,12.8282,12.9497,12.9497Q12.8282,13.0713,12.7009,13.1867Q12.5736,13.3021,12.4408,13.4111Q12.3079,13.5201,12.1699,13.6225Q12.0319,13.7248,11.889,13.8203Q11.7461,13.9158,11.5987,14.0041Q11.4513,14.0924,11.2998,14.1734Q11.1482,14.2545,10.99288,14.3279Q10.83754,14.4014,10.67878,14.4672Q10.52002,14.5329,10.35823,14.5908Q10.19643,14.6487,10.03199,14.6986Q9.86755,14.7485,9.70086,14.7902Q9.53417,14.832,9.36563,14.8655Q9.19709,14.899,9.02711,14.9242Q8.85713,14.9494,8.686119999999999,14.9663Q8.51511,14.9831,8.34347,14.9916Q8.17184,15,8,15Q7.82816,15,7.65653,14.9916Q7.48489,14.9831,7.31388,14.9663Q7.14287,14.9494,6.97289,14.9242Q6.80291,14.899,6.63437,14.8655Q6.46583,14.832,6.29914,14.7902Q6.13245,14.7485,5.96801,14.6986Q5.80357,14.6487,5.64177,14.5908Q5.47998,14.5329,5.32122,14.4672Q5.16246,14.4014,5.00711,14.3279Q4.85177,14.2545,4.70022,14.1734Q4.5486699999999995,14.0924,4.40128,14.0041Q4.25389,13.9158,4.11101,13.8203Q3.96813,13.7248,3.8301,13.6225Q3.69208,13.5201,3.55925,13.4111Q3.42641,13.3021,3.29909,13.1867Q3.17176,13.0713,3.05025,12.9497Q2.92874,12.8282,2.81334,12.7009Q2.69794,12.5736,2.58893,12.4408Q2.4799100000000003,12.3079,2.3775500000000003,12.1699Q2.2751799999999998,12.0319,2.17971,11.889Q2.0842400000000003,11.7461,1.9959,11.5987Q1.907556,11.4513,1.826551,11.2998Q1.745546,11.1482,1.672075,10.99288Q1.598604,10.83754,1.532843,10.67878Q1.4670830000000001,10.52002,1.409191,10.35823Q1.3513,10.19643,1.301418,10.03199Q1.251535,9.86755,1.209781,9.70086Q1.168027,9.53417,1.134503,9.36563Q1.100979,9.19709,1.0757644,9.02711Q1.0505502,8.85713,1.0337069,8.686119999999999Q1.0168636,8.51511,1.0084318,8.34347Q1,8.17184,1,8Q1,7.82816,1.0084318,7.65653Q1.0168636,7.48489,1.0337069,7.31388Q1.0505502,7.14287,1.0757644,6.97289Q1.100979,6.80291,1.134503,6.63437Q1.168027,6.46583,1.209781,6.29914Q1.251535,6.13245,1.301418,5.96801Q1.3513,5.80357,1.409191,5.64177Q1.4670830000000001,5.47998,1.532843,5.32122Q1.598604,5.16246,1.672075,5.00711Q1.745546,4.85177,1.826551,4.70022Q1.907556,4.5486699999999995,1.995899,4.40128Q2.0842400000000003,4.25389,2.17971,4.11101Q2.2751799999999998,3.96813,2.3775500000000003,3.8301Q2.4799100000000003,3.69208,2.58893,3.55925Q2.69794,3.42641,2.81334,3.29909Q2.92874,3.17176,3.05025,3.05025Q3.17176,2.92874,3.29909,2.81334Q3.42641,2.69794,3.55925,2.58893Q3.69208,2.4799100000000003,3.8301,2.3775500000000003Q3.96813,2.2751799999999998,4.11101,2.17971Q4.25389,2.0842400000000003,4.40128,1.9959Q4.5486699999999995,1.907556,4.70022,1.826551Q4.85177,1.745546,5.00711,1.672075Q5.16246,1.598604,5.32122,1.532843Q5.47998,1.4670830000000001,5.64177,1.409191Q5.80357,1.3513,5.96801,1.301418Q6.13245,1.251535,6.29914,1.209781Q6.46583,1.168027,6.63437,1.134503Q6.80291,1.100979,6.97289,1.0757644Q7.14287,1.0505502,7.31388,1.0337069Q7.48489,1.0168636,7.65653,1.0084318Q7.82816,1,8,1Q8.17184,1,8.34347,1.0084318Q8.51511,1.0168636,8.686119999999999,1.0337069Q8.85713,1.0505502,9.02711,1.0757644Q9.19709,1.100979,9.36563,1.134503Q9.53417,1.168027,9.70086,1.209781Q9.86755,1.251535,10.03199,1.301418Q10.19643,1.3513,10.35823,1.409191Q10.52002,1.4670830000000001,10.67878,1.532843Q10.83754,1.598604,10.99288,1.672075Q11.1482,1.745546,11.2998,1.826551Q11.4513,1.907556,11.5987,1.995899Q11.7461,2.0842400000000003,11.889,2.17971Q12.0319,2.2751799999999998,12.1699,2.3775500000000003Q12.3079,2.4799100000000003,12.4408,2.58893Q12.5736,2.69794,12.7009,2.81334Q12.8282,2.92874,12.9497,3.05025Q13.0713,3.17176,13.1867,3.29909Q13.3021,3.42641,13.4111,3.55925Q13.5201,3.69208,13.6225,3.8301Q13.7248,3.96813,13.8203,4.11101Q13.9158,4.25389,14.0041,4.40128Q14.0924,4.5486699999999995,14.1734,4.70022Q14.2545,4.85177,14.3279,5.00711Q14.4014,5.16246,14.4672,5.32122Q14.5329,5.47998,14.5908,5.64177Q14.6487,5.80357,14.6986,5.96801Q14.7485,6.13245,14.7902,6.29914Q14.832,6.46583,14.8655,6.63437Q14.899,6.80291,14.9242,6.97289Q14.9494,7.14287,14.9663,7.31388Q14.9831,7.48489,14.9916,7.65653Q15,7.82816,15,8Z" fill="#FFFFFF" fill-opacity="1"/></g></mask></defs><g><g><path d="M15,8Q15,8.17184,14.9916,8.34347Q14.9831,8.51511,14.9663,8.686119999999999Q14.9494,8.85713,14.9242,9.02711Q14.899,9.19709,14.8655,9.36563Q14.832,9.53417,14.7902,9.70086Q14.7485,9.86755,14.6986,10.03199Q14.6487,10.19643,14.5908,10.35823Q14.5329,10.52002,14.4672,10.67878Q14.4014,10.83754,14.3279,10.99288Q14.2545,11.1482,14.1734,11.2998Q14.0924,11.4513,14.0041,11.5987Q13.9158,11.7461,13.8203,11.889Q13.7248,12.0319,13.6225,12.1699Q13.5201,12.3079,13.4111,12.4408Q13.3021,12.5736,13.1867,12.7009Q13.0713,12.8282,12.9497,12.9497Q12.8282,13.0713,12.7009,13.1867Q12.5736,13.3021,12.4408,13.4111Q12.3079,13.5201,12.1699,13.6225Q12.0319,13.7248,11.889,13.8203Q11.7461,13.9158,11.5987,14.0041Q11.4513,14.0924,11.2998,14.1734Q11.1482,14.2545,10.99288,14.3279Q10.83754,14.4014,10.67878,14.4672Q10.52002,14.5329,10.35823,14.5908Q10.19643,14.6487,10.03199,14.6986Q9.86755,14.7485,9.70086,14.7902Q9.53417,14.832,9.36563,14.8655Q9.19709,14.899,9.02711,14.9242Q8.85713,14.9494,8.686119999999999,14.9663Q8.51511,14.9831,8.34347,14.9916Q8.17184,15,8,15Q7.82816,15,7.65653,14.9916Q7.48489,14.9831,7.31388,14.9663Q7.14287,14.9494,6.97289,14.9242Q6.80291,14.899,6.63437,14.8655Q6.46583,14.832,6.29914,14.7902Q6.13245,14.7485,5.96801,14.6986Q5.80357,14.6487,5.64177,14.5908Q5.47998,14.5329,5.32122,14.4672Q5.16246,14.4014,5.00711,14.3279Q4.85177,14.2545,4.70022,14.1734Q4.5486699999999995,14.0924,4.40128,14.0041Q4.25389,13.9158,4.11101,13.8203Q3.96813,13.7248,3.8301,13.6225Q3.69208,13.5201,3.55925,13.4111Q3.42641,13.3021,3.29909,13.1867Q3.17176,13.0713,3.05025,12.9497Q2.92874,12.8282,2.81334,12.7009Q2.69794,12.5736,2.58893,12.4408Q2.4799100000000003,12.3079,2.3775500000000003,12.1699Q2.2751799999999998,12.0319,2.17971,11.889Q2.0842400000000003,11.7461,1.9959,11.5987Q1.907556,11.4513,1.826551,11.2998Q1.745546,11.1482,1.672075,10.99288Q1.598604,10.83754,1.532843,10.67878Q1.4670830000000001,10.52002,1.409191,10.35823Q1.3513,10.19643,1.301418,10.03199Q1.251535,9.86755,1.209781,9.70086Q1.168027,9.53417,1.134503,9.36563Q1.100979,9.19709,1.0757644,9.02711Q1.0505502,8.85713,1.0337069,8.686119999999999Q1.0168636,8.51511,1.0084318,8.34347Q1,8.17184,1,8Q1,7.82816,1.0084318,7.65653Q1.0168636,7.48489,1.0337069,7.31388Q1.0505502,7.14287,1.0757644,6.97289Q1.100979,6.80291,1.134503,6.63437Q1.168027,6.46583,1.209781,6.29914Q1.251535,6.13245,1.301418,5.96801Q1.3513,5.80357,1.409191,5.64177Q1.4670830000000001,5.47998,1.532843,5.32122Q1.598604,5.16246,1.672075,5.00711Q1.745546,4.85177,1.826551,4.70022Q1.907556,4.5486699999999995,1.995899,4.40128Q2.0842400000000003,4.25389,2.17971,4.11101Q2.2751799999999998,3.96813,2.3775500000000003,3.8301Q2.4799100000000003,3.69208,2.58893,3.55925Q2.69794,3.42641,2.81334,3.29909Q2.92874,3.17176,3.05025,3.05025Q3.17176,2.92874,3.29909,2.81334Q3.42641,2.69794,3.55925,2.58893Q3.69208,2.4799100000000003,3.8301,2.3775500000000003Q3.96813,2.2751799999999998,4.11101,2.17971Q4.25389,2.0842400000000003,4.40128,1.9959Q4.5486699999999995,1.907556,4.70022,1.826551Q4.85177,1.745546,5.00711,1.672075Q5.16246,1.598604,5.32122,1.532843Q5.47998,1.4670830000000001,5.64177,1.409191Q5.80357,1.3513,5.96801,1.301418Q6.13245,1.251535,6.29914,1.209781Q6.46583,1.168027,6.63437,1.134503Q6.80291,1.100979,6.97289,1.0757644Q7.14287,1.0505502,7.31388,1.0337069Q7.48489,1.0168636,7.65653,1.0084318Q7.82816,1,8,1Q8.17184,1,8.34347,1.0084318Q8.51511,1.0168636,8.686119999999999,1.0337069Q8.85713,1.0505502,9.02711,1.0757644Q9.19709,1.100979,9.36563,1.134503Q9.53417,1.168027,9.70086,1.209781Q9.86755,1.251535,10.03199,1.301418Q10.19643,1.3513,10.35823,1.409191Q10.52002,1.4670830000000001,10.67878,1.532843Q10.83754,1.598604,10.99288,1.672075Q11.1482,1.745546,11.2998,1.826551Q11.4513,1.907556,11.5987,1.995899Q11.7461,2.0842400000000003,11.889,2.17971Q12.0319,2.2751799999999998,12.1699,2.3775500000000003Q12.3079,2.4799100000000003,12.4408,2.58893Q12.5736,2.69794,12.7009,2.81334Q12.8282,2.92874,12.9497,3.05025Q13.0713,3.17176,13.1867,3.29909Q13.3021,3.42641,13.4111,3.55925Q13.5201,3.69208,13.6225,3.8301Q13.7248,3.96813,13.8203,4.11101Q13.9158,4.25389,14.0041,4.40128Q14.0924,4.5486699999999995,14.1734,4.70022Q14.2545,4.85177,14.3279,5.00711Q14.4014,5.16246,14.4672,5.32122Q14.5329,5.47998,14.5908,5.64177Q14.6487,5.80357,14.6986,5.96801Q14.7485,6.13245,14.7902,6.29914Q14.832,6.46583,14.8655,6.63437Q14.899,6.80291,14.9242,6.97289Q14.9494,7.14287,14.9663,7.31388Q14.9831,7.48489,14.9916,7.65653Q15,7.82816,15,8Z" fill="#5D7DB3" fill-opacity="1"/><path d="M15,8Q15,8.17184,14.9916,8.34347Q14.9831,8.51511,14.9663,8.686119999999999Q14.9494,8.85713,14.9242,9.02711Q14.899,9.19709,14.8655,9.36563Q14.832,9.53417,14.7902,9.70086Q14.7485,9.86755,14.6986,10.03199Q14.6487,10.19643,14.5908,10.35823Q14.5329,10.52002,14.4672,10.67878Q14.4014,10.83754,14.3279,10.99288Q14.2545,11.1482,14.1734,11.2998Q14.0924,11.4513,14.0041,11.5987Q13.9158,11.7461,13.8203,11.889Q13.7248,12.0319,13.6225,12.1699Q13.5201,12.3079,13.4111,12.4408Q13.3021,12.5736,13.1867,12.7009Q13.0713,12.8282,12.9497,12.9497Q12.8282,13.0713,12.7009,13.1867Q12.5736,13.3021,12.4408,13.4111Q12.3079,13.5201,12.1699,13.6225Q12.0319,13.7248,11.889,13.8203Q11.7461,13.9158,11.5987,14.0041Q11.4513,14.0924,11.2998,14.1734Q11.1482,14.2545,10.99288,14.3279Q10.83754,14.4014,10.67878,14.4672Q10.52002,14.5329,10.35823,14.5908Q10.19643,14.6487,10.03199,14.6986Q9.86755,14.7485,9.70086,14.7902Q9.53417,14.832,9.36563,14.8655Q9.19709,14.899,9.02711,14.9242Q8.85713,14.9494,8.686119999999999,14.9663Q8.51511,14.9831,8.34347,14.9916Q8.17184,15,8,15Q7.82816,15,7.65653,14.9916Q7.48489,14.9831,7.31388,14.9663Q7.14287,14.9494,6.97289,14.9242Q6.80291,14.899,6.63437,14.8655Q6.46583,14.832,6.29914,14.7902Q6.13245,14.7485,5.96801,14.6986Q5.80357,14.6487,5.64177,14.5908Q5.47998,14.5329,5.32122,14.4672Q5.16246,14.4014,5.00711,14.3279Q4.85177,14.2545,4.70022,14.1734Q4.5486699999999995,14.0924,4.40128,14.0041Q4.25389,13.9158,4.11101,13.8203Q3.96813,13.7248,3.8301,13.6225Q3.69208,13.5201,3.55925,13.4111Q3.42641,13.3021,3.29909,13.1867Q3.17176,13.0713,3.05025,12.9497Q2.92874,12.8282,2.81334,12.7009Q2.69794,12.5736,2.58893,12.4408Q2.4799100000000003,12.3079,2.3775500000000003,12.1699Q2.2751799999999998,12.0319,2.17971,11.889Q2.0842400000000003,11.7461,1.9959,11.5987Q1.907556,11.4513,1.826551,11.2998Q1.745546,11.1482,1.672075,10.99288Q1.598604,10.83754,1.532843,10.67878Q1.4670830000000001,10.52002,1.409191,10.35823Q1.3513,10.19643,1.301418,10.03199Q1.251535,9.86755,1.209781,9.70086Q1.168027,9.53417,1.134503,9.36563Q1.100979,9.19709,1.0757644,9.02711Q1.0505502,8.85713,1.0337069,8.686119999999999Q1.0168636,8.51511,1.0084318,8.34347Q1,8.17184,1,8Q1,7.82816,1.0084318,7.65653Q1.0168636,7.48489,1.0337069,7.31388Q1.0505502,7.14287,1.0757644,6.97289Q1.100979,6.80291,1.134503,6.63437Q1.168027,6.46583,1.209781,6.29914Q1.251535,6.13245,1.301418,5.96801Q1.3513,5.80357,1.409191,5.64177Q1.4670830000000001,5.47998,1.532843,5.32122Q1.598604,5.16246,1.672075,5.00711Q1.745546,4.85177,1.826551,4.70022Q1.907556,4.5486699999999995,1.995899,4.40128Q2.0842400000000003,4.25389,2.17971,4.11101Q2.2751799999999998,3.96813,2.3775500000000003,3.8301Q2.4799100000000003,3.69208,2.58893,3.55925Q2.69794,3.42641,2.81334,3.29909Q2.92874,3.17176,3.05025,3.05025Q3.17176,2.92874,3.29909,2.81334Q3.42641,2.69794,3.55925,2.58893Q3.69208,2.4799100000000003,3.8301,2.3775500000000003Q3.96813,2.2751799999999998,4.11101,2.17971Q4.25389,2.0842400000000003,4.40128,1.9959Q4.5486699999999995,1.907556,4.70022,1.826551Q4.85177,1.745546,5.00711,1.672075Q5.16246,1.598604,5.32122,1.532843Q5.47998,1.4670830000000001,5.64177,1.409191Q5.80357,1.3513,5.96801,1.301418Q6.13245,1.251535,6.29914,1.209781Q6.46583,1.168027,6.63437,1.134503Q6.80291,1.100979,6.97289,1.0757644Q7.14287,1.0505502,7.31388,1.0337069Q7.48489,1.0168636,7.65653,1.0084318Q7.82816,1,8,1Q8.17184,1,8.34347,1.0084318Q8.51511,1.0168636,8.686119999999999,1.0337069Q8.85713,1.0505502,9.02711,1.0757644Q9.19709,1.100979,9.36563,1.134503Q9.53417,1.168027,9.70086,1.209781Q9.86755,1.251535,10.03199,1.301418Q10.19643,1.3513,10.35823,1.409191Q10.52002,1.4670830000000001,10.67878,1.532843Q10.83754,1.598604,10.99288,1.672075Q11.1482,1.745546,11.2998,1.826551Q11.4513,1.907556,11.5987,1.995899Q11.7461,2.0842400000000003,11.889,2.17971Q12.0319,2.2751799999999998,12.1699,2.3775500000000003Q12.3079,2.4799100000000003,12.4408,2.58893Q12.5736,2.69794,12.7009,2.81334Q12.8282,2.92874,12.9497,3.05025Q13.0713,3.17176,13.1867,3.29909Q13.3021,3.42641,13.4111,3.55925Q13.5201,3.69208,13.6225,3.8301Q13.7248,3.96813,13.8203,4.11101Q13.9158,4.25389,14.0041,4.40128Q14.0924,4.5486699999999995,14.1734,4.70022Q14.2545,4.85177,14.3279,5.00711Q14.4014,5.16246,14.4672,5.32122Q14.5329,5.47998,14.5908,5.64177Q14.6487,5.80357,14.6986,5.96801Q14.7485,6.13245,14.7902,6.29914Q14.832,6.46583,14.8655,6.63437Q14.899,6.80291,14.9242,6.97289Q14.9494,7.14287,14.9663,7.31388Q14.9831,7.48489,14.9916,7.65653Q15,7.82816,15,8ZM14,8Q14,5.51472,12.2426,3.75736Q10.48528,2,8,2Q5.51472,2,3.75736,3.75736Q2,5.51472,2,8Q2,10.48528,3.75736,12.2426Q5.51472,14,8,14Q10.48528,14,12.2426,12.2426Q14,10.48528,14,8Z" fill-rule="evenodd" fill="#5D7DB3" fill-opacity="1"/></g><g mask="url(#master_svg0_1_6026/1_5876/1_5645)"><g transform="matrix(1,0,0,-1,0,44)"><path d="M14,28Q14,28.147289999999998,13.9928,28.29441Q13.9855,28.44152,13.9711,28.5881Q13.9567,28.73469,13.9351,28.88038Q13.9134,29.02608,13.8847,29.17054Q13.856,29.315,13.8202,29.45788Q13.7844,29.60076,13.7416,29.74171Q13.6989,29.88266,13.6493,30.021340000000002Q13.5996,30.16002,13.5433,30.2961Q13.4869,30.432180000000002,13.4239,30.56533Q13.361,30.69848,13.2915,30.82838Q13.2221,30.958280000000002,13.1464,31.08462Q13.0706,31.21095,12.9888,31.33342Q12.907,31.45589,12.8192,31.574199999999998Q12.7315,31.692500000000003,12.6381,31.806359999999998Q12.5446,31.92022,12.4457,32.0294Q12.3468,32.1385,12.2426,32.242599999999996Q12.1385,32.3468,12.0294,32.4457Q11.92022,32.5446,11.80636,32.6381Q11.6925,32.7315,11.57419,32.8192Q11.45589,32.907,11.33342,32.9888Q11.21095,33.0706,11.08462,33.1464Q10.95828,33.2221,10.82838,33.2915Q10.69848,33.361000000000004,10.56533,33.4239Q10.43218,33.4869,10.2961,33.5433Q10.16002,33.5996,10.02134,33.6493Q9.88266,33.6989,9.741710000000001,33.7416Q9.600760000000001,33.7844,9.45788,33.8202Q9.315000000000001,33.856,9.170539999999999,33.8847Q9.02608,33.913399999999996,8.880379999999999,33.9351Q8.73469,33.9567,8.5881,33.9711Q8.44152,33.9855,8.29441,33.9928Q8.14729,34,8,34Q7.85271,34,7.70559,33.9928Q7.55848,33.9855,7.4119,33.9711Q7.26531,33.9567,7.11962,33.9351Q6.97392,33.913399999999996,6.82946,33.8847Q6.685,33.856,6.54212,33.8202Q6.39924,33.7844,6.25829,33.7416Q6.11734,33.6989,5.97866,33.6493Q5.839980000000001,33.5996,5.7039,33.5433Q5.56782,33.4869,5.434670000000001,33.4239Q5.30152,33.361000000000004,5.17162,33.2915Q5.04172,33.2221,4.91538,33.1464Q4.78905,33.0706,4.66658,32.9888Q4.54411,32.907,4.425800000000001,32.8192Q4.3075,32.7315,4.19364,32.6381Q4.0797799999999995,32.5446,3.97065,32.4457Q3.86151,32.3468,3.7573600000000003,32.242599999999996Q3.65321,32.1385,3.55429,32.0294Q3.45538,31.92022,3.3619399999999997,31.806359999999998Q3.2685,31.692500000000003,3.1807499999999997,31.57419Q3.09301,31.45589,3.01118,31.33342Q2.929351,31.21095,2.853628,31.08462Q2.777905,30.958280000000002,2.708472,30.82838Q2.63904,30.69848,2.576064,30.56533Q2.513089,30.432180000000002,2.456723,30.2961Q2.400357,30.16002,2.350736,30.021340000000002Q2.301114,29.88266,2.258358,29.74171Q2.215601,29.60076,2.179812,29.45788Q2.144023,29.315,2.115288,29.17054Q2.0865531,29.02608,2.0649409,28.88038Q2.0433288,28.73469,2.0288916,28.5881Q2.0144545,28.44152,2.00722726,28.29441Q2,28.147289999999998,2,28Q2,27.852710000000002,2.00722726,27.70559Q2.0144545,27.55848,2.0288916,27.4119Q2.0433288,27.26531,2.0649409,27.11962Q2.0865531,26.97392,2.115288,26.82946Q2.144023,26.685,2.179812,26.54212Q2.215601,26.39924,2.258358,26.25829Q2.301114,26.11734,2.350736,25.97866Q2.400357,25.83998,2.456723,25.7039Q2.513089,25.56782,2.576064,25.43467Q2.63904,25.30152,2.708472,25.17162Q2.777905,25.04172,2.853628,24.91538Q2.929351,24.78905,3.01118,24.66658Q3.09301,24.54411,3.1807499999999997,24.4258Q3.2685,24.3075,3.3619399999999997,24.19364Q3.45538,24.07978,3.55429,23.97065Q3.65321,23.86151,3.7573600000000003,23.75736Q3.86151,23.65321,3.97065,23.55429Q4.0797799999999995,23.455379999999998,4.19364,23.36194Q4.3075,23.2685,4.425800000000001,23.18075Q4.54411,23.09301,4.66658,23.01118Q4.78905,22.929351,4.91538,22.853628Q5.04172,22.777905,5.17162,22.708472Q5.30152,22.63904,5.434670000000001,22.576064Q5.56782,22.513089,5.7039,22.456723Q5.839980000000001,22.400357,5.97866,22.350736Q6.11734,22.301114,6.25829,22.258358Q6.39924,22.215601,6.54212,22.179812Q6.685,22.144023,6.82946,22.115288Q6.97392,22.0865531,7.11962,22.0649409Q7.26532,22.0433288,7.4119,22.0288916Q7.55848,22.0144545,7.70559,22.00722726Q7.85271,22,8,22Q8.14729,22,8.29441,22.00722726Q8.44152,22.0144545,8.5881,22.0288916Q8.73469,22.0433288,8.880379999999999,22.0649409Q9.02608,22.0865531,9.170539999999999,22.115288Q9.315000000000001,22.144023,9.45788,22.179812Q9.600760000000001,22.215601,9.741710000000001,22.258358Q9.88266,22.301114,10.02134,22.350736Q10.16002,22.400357,10.2961,22.456723Q10.43218,22.513089,10.56533,22.576064Q10.69848,22.63904,10.82838,22.708472Q10.95828,22.777905,11.08462,22.853628Q11.21095,22.929351,11.33342,23.01118Q11.45589,23.09301,11.5742,23.18075Q11.6925,23.2685,11.80636,23.36194Q11.92022,23.455379999999998,12.0294,23.55429Q12.1385,23.65321,12.2426,23.75736Q12.3468,23.86151,12.4457,23.97065Q12.5446,24.07978,12.6381,24.19364Q12.7315,24.3075,12.8192,24.4258Q12.907,24.54411,12.9888,24.66658Q13.0706,24.78905,13.1464,24.91538Q13.2221,25.04172,13.2915,25.17162Q13.361,25.30152,13.4239,25.43467Q13.4869,25.56782,13.5433,25.7039Q13.5996,25.83998,13.6493,25.97866Q13.6989,26.11734,13.7416,26.25829Q13.7844,26.39924,13.8202,26.54212Q13.856,26.685,13.8847,26.82946Q13.9134,26.97392,13.9351,27.11962Q13.9567,27.26532,13.9711,27.4119Q13.9855,27.55848,13.9928,27.70559Q14,27.852710000000002,14,28ZM13,28Q13,25.92893,11.53553,24.46447Q10.07107,23,8,23Q5.928929999999999,23,4.46447,24.46447Q3,25.92893,3,28Q3,30.07107,4.46447,31.53553Q5.928929999999999,33,8,33Q10.07107,33,11.53553,31.53553Q13,30.07107,13,28Z" fill-rule="evenodd" fill="#CED8E8" fill-opacity="1"/></g></g><g><path d="M11,6.5Q11,6.64738,10.98555,6.79405Q10.97111,6.94072,10.942350000000001,7.0852699999999995Q10.913599999999999,7.22982,10.87082,7.37085Q10.82804,7.51189,10.77164,7.64805Q10.71524,7.78421,10.64576,7.91419Q10.57629,8.044170000000001,10.49441,8.16671Q10.41253,8.28925,10.31903,8.403179999999999Q10.22553,8.517109999999999,10.12132,8.62132Q10.017109999999999,8.72553,9.903179999999999,8.81903Q9.78925,8.91253,9.66671,8.99441Q9.544170000000001,9.07629,9.41419,9.14576Q9.28421,9.21524,9.14805,9.27164Q9.011890000000001,9.32804,8.87085,9.37082Q8.72982,9.413599999999999,8.58527,9.44236Q8.440719999999999,9.47111,8.29405,9.48555Q8.14738,9.5,8,9.5Q7.85262,9.5,7.70595,9.48555Q7.55928,9.47111,7.4147300000000005,9.442350000000001Q7.27018,9.413599999999999,7.12915,9.37082Q6.98811,9.32804,6.85195,9.27164Q6.71579,9.21524,6.58581,9.14576Q6.45583,9.07629,6.33329,8.99441Q6.21075,8.91253,6.09682,8.81903Q5.982893,8.72553,5.87868,8.62132Q5.774466,8.517109999999999,5.680969,8.403179999999999Q5.587471,8.28925,5.505591,8.16671Q5.423711,8.044170000000001,5.354236,7.91419Q5.284761,7.78421,5.228361,7.64805Q5.171961,7.51189,5.129179,7.37085Q5.0863967,7.22982,5.0576442,7.0852699999999995Q5.0288916,6.94072,5.0144458,6.79405Q5,6.64738,5,6.5Q5,6.35262,5.0144458,6.20595Q5.0288916,6.05928,5.0576442,5.9147300000000005Q5.0863967,5.77018,5.129179,5.62915Q5.171961,5.48811,5.228361,5.35195Q5.284761,5.21579,5.354236,5.08581Q5.423711,4.95583,5.505591,4.83329Q5.587471,4.71075,5.680969,4.59682Q5.774466,4.482893,5.87868,4.37868Q5.982893,4.274466,6.09682,4.180969Q6.21075,4.087471,6.33329,4.005591Q6.45583,3.923711,6.58581,3.854236Q6.71579,3.784761,6.85195,3.728361Q6.98811,3.671961,7.12915,3.629179Q7.27018,3.5863967,7.4147300000000005,3.5576442Q7.55928,3.5288916,7.70595,3.5144458Q7.85262,3.5,8,3.5Q8.14738,3.5,8.29405,3.5144458Q8.440719999999999,3.5288916,8.58527,3.5576442Q8.72982,3.5863967,8.87085,3.629179Q9.011890000000001,3.671961,9.14805,3.728361Q9.28421,3.784761,9.41419,3.854236Q9.544170000000001,3.923711,9.66671,4.005591Q9.78925,4.087471,9.903179999999999,4.180969Q10.017109999999999,4.274466,10.12132,4.37868Q10.22553,4.482893,10.31903,4.59682Q10.41253,4.71075,10.49441,4.83329Q10.57629,4.95583,10.64576,5.08581Q10.71524,5.21579,10.77164,5.35195Q10.82804,5.48811,10.87082,5.62915Q10.913599999999999,5.77018,10.94236,5.9147300000000005Q10.97111,6.05928,10.98555,6.20595Q11,6.35262,11,6.5ZM10,6.5Q10,5.67157,9.41421,5.08579Q8.82843,4.5,8,4.5Q7.17157,4.5,6.58579,5.08579Q6,5.67157,6,6.5Q6,7.32843,6.58579,7.91421Q7.17157,8.5,8,8.5Q8.82843,8.5,9.41421,7.91421Q10,7.32843,10,6.5Z" fill-rule="evenodd" fill="#CED8E8" fill-opacity="1"/></g></g></svg>