<svg xmlns="http://www.w3.org/2000/svg" xmlns:xlink="http://www.w3.org/1999/xlink" fill="none" version="1.1" width="14" height="14" viewBox="0 0 14 14"><g><g><path d="M3,12.5L7,12.5Q7.04925,12.5,7.09755,12.4904Q7.14584,12.4808,7.19134,12.4619Q7.23684,12.4431,7.27778,12.4157Q7.31873,12.3884,7.35355,12.3536Q7.38837,12.3187,7.41573,12.2778Q7.44309,12.2368,7.46194,12.1913Q7.48078,12.1458,7.49039,12.0975Q7.5,12.0492,7.5,12Q7.5,11.95075,7.49039,11.90245Q7.48078,11.85415,7.46194,11.80866Q7.44309,11.76316,7.41573,11.72221Q7.38837,11.68127,7.35355,11.64645Q7.31873,11.61162,7.27778,11.58426Q7.23684,11.5569,7.19134,11.53806Q7.14584,11.51921,7.09755,11.50961Q7.04925,11.5,7,11.5L3,11.5Q2.792893,11.5,2.646446,11.35355Q2.5,11.20711,2.5,11L2.5,3Q2.5,2.792893,2.646447,2.646447Q2.792893,2.5,3,2.5L11,2.5Q11.5,2.5,11.5,3L11.5,7Q11.5,7.04925,11.50961,7.09755Q11.51921,7.14584,11.53806,7.19134Q11.5569,7.23684,11.58426,7.27778Q11.61162,7.31873,11.64645,7.35355Q11.68127,7.38837,11.72221,7.41573Q11.76316,7.44309,11.80866,7.46194Q11.85415,7.48078,11.90245,7.49039Q11.95075,7.5,12,7.5Q12.0492,7.5,12.0975,7.49039Q12.1458,7.48078,12.1913,7.46194Q12.2368,7.44309,12.2778,7.41573Q12.3187,7.38837,12.3536,7.35355Q12.3884,7.31873,12.4157,7.27778Q12.4431,7.23684,12.4619,7.19134Q12.4808,7.14584,12.4904,7.09755Q12.5,7.04925,12.5,7L12.5,3Q12.5,2.378679,12.0607,1.93934Q11.62132,1.5,11,1.5L3,1.5Q2.37868,1.5,1.9393399,1.9393399Q1.5,2.37868,1.5,3L1.5,11Q1.5,11.62132,1.9393404,12.0607Q2.37868,12.5,3,12.5Z" fill-rule="evenodd" fill="#919191" fill-opacity="1"/></g><g><path d="M7.146447,7.853553Q7.07612,7.783227,7.03806,7.691342Q7,7.5994562,7,7.5Q7,7.4507543,7.009607,7.4024549Q7.019215,7.354155,7.03806,7.308658Q7.056906,7.263161,7.084265,7.222215Q7.111625,7.181269,7.146447,7.146447Q7.181269,7.111625,7.222215,7.084265Q7.263161,7.056906,7.308658,7.03806Q7.354155,7.019215,7.4024549,7.009607Q7.4507543,7,7.5,7Q7.5994562,7,7.691342,7.03806Q7.783227,7.07612,7.853553,7.146447L12.35355,11.64645Q12.42388,11.71677,12.46194,11.80866Q12.5,11.90054,12.5,12Q12.5,12.04925,12.49039,12.09755Q12.48078,12.14584,12.46194,12.19134Q12.44309,12.23684,12.41573,12.27778Q12.38837,12.31873,12.35355,12.35355Q12.31873,12.38837,12.27778,12.41573Q12.23684,12.44309,12.19134,12.46194Q12.14584,12.48078,12.09755,12.49039Q12.04925,12.5,12,12.5Q11.90054,12.5,11.80866,12.46194Q11.71677,12.42388,11.64645,12.35355L7.146447,7.853553L7.146447,7.853553Z" fill-rule="evenodd" fill="#919191" fill-opacity="1"/></g><g><path d="M7.5,7.5L9,7.5Q9.04925,7.5,9.09754,7.490393Q9.14584,7.480785,9.19134,7.46194Q9.23684,7.443094,9.27778,7.415735Q9.31873,7.388375,9.35355,7.353553Q9.38838,7.318731,9.41573,7.277785Q9.44309,7.236839,9.46194,7.191342Q9.48078,7.145845,9.49039,7.0975451Q9.5,7.0492457,9.5,7Q9.5,6.9507543,9.49039,6.9024549Q9.48078,6.854155,9.46194,6.808658Q9.44309,6.763161,9.41573,6.722215Q9.38838,6.681269,9.35355,6.646447Q9.31873,6.611625,9.27779,6.584265Q9.23684,6.556906,9.19134,6.53806Q9.14584,6.519215,9.09754,6.509607Q9.04925,6.5,9,6.5L7,6.5Q6.9507543,6.5,6.9024549,6.509607Q6.854155,6.519215,6.808658,6.53806Q6.763161,6.556906,6.722215,6.584265Q6.681269,6.611625,6.646447,6.646447Q6.611625,6.681269,6.584265,6.722215Q6.556906,6.763161,6.53806,6.808658Q6.519215,6.854155,6.509607,6.9024549Q6.5,6.9507543,6.5,7L6.5,9Q6.5,9.04925,6.509607,9.09754Q6.519215,9.14584,6.53806,9.19134Q6.556906,9.23684,6.584265,9.27778Q6.611625,9.31873,6.646447,9.35355Q6.681269,9.38838,6.722215,9.41573Q6.763161,9.44309,6.808658,9.46194Q6.854155,9.48078,6.9024549,9.49039Q6.9507543,9.5,7,9.5Q7.0492457,9.5,7.0975451,9.49039Q7.145845,9.48078,7.191342,9.46194Q7.236839,9.44309,7.277785,9.41573Q7.318731,9.38838,7.353553,9.35355Q7.388375,9.31873,7.415735,9.27779Q7.443094,9.23684,7.46194,9.19134Q7.480785,9.14584,7.490393,9.09754Q7.5,9.04925,7.5,9L7.5,7.5Z" fill-rule="evenodd" fill="#919191" fill-opacity="1"/></g></g></svg>