<svg xmlns="http://www.w3.org/2000/svg" xmlns:xlink="http://www.w3.org/1999/xlink" fill="none" version="1.1" width="64" height="64" viewBox="0 0 64 64"><defs><linearGradient x1="0.9476489424705505" y1="0.5397440791130066" x2="0.1783759146420352" y2="0.3861430552370696" id="master_svg0_225_232723"><stop offset="0%" stop-color="#808080" stop-opacity="1"/><stop offset="42.14285612106323%" stop-color="#BCBCBC" stop-opacity="1"/><stop offset="100%" stop-color="#9F9F9F" stop-opacity="1"/></linearGradient><filter id="master_svg1_188_46855" filterUnits="objectBoundingBox" color-interpolation-filters="sRGB" x="0" y="0" width="1" height="1"><feFlood flood-opacity="0" result="BackgroundImageFix"/><feBlend mode="normal" in="SourceGraphic" in2="BackgroundImageFix" result="shape"/><feColorMatrix in="SourceAlpha" type="matrix" result="hardAlpha" values="0 0 0 0 0 0 0 0 0 0 0 0 0 0 0 0 0 0 127 0"/><feOffset dy="-2" dx="1"/><feGaussianBlur stdDeviation="1.5"/><feComposite in2="hardAlpha" operator="arithmetic" k2="-1" k3="1"/><feColorMatrix type="matrix" values="0 0 0 0 1 0 0 0 0 1 0 0 0 0 1 0 0 0 0.23999999463558197 0"/><feBlend mode="normal" in2="shape" result="effect1_innerShadow"/></filter><linearGradient x1="0.931793212890625" y1="0.9546529650688171" x2="0.5300824671001269" y2="0.6599458702255842" id="master_svg2_225_232709"><stop offset="0%" stop-color="#CFCFCF" stop-opacity="1"/><stop offset="100%" stop-color="#E3E3E3" stop-opacity="1"/></linearGradient><filter id="master_svg3_188_46858" filterUnits="objectBoundingBox" color-interpolation-filters="sRGB" x="-0.00965168916823014" y="-0.0316389540379815" width="1.0289550675046903" height="1.063277908075963"><feFlood flood-opacity="0" result="BackgroundImageFix"/><feColorMatrix in="SourceAlpha" type="matrix" values="0 0 0 0 0 0 0 0 0 0 0 0 0 0 0 0 0 0 127 0"/><feOffset dy="0.5" dx="0.4000000059604645"/><feGaussianBlur stdDeviation="0"/><feColorMatrix type="matrix" values="0 0 0 0 0.364705890417099 0 0 0 0 0.364705890417099 0 0 0 0 0.364705890417099 0 0 0 0.6000000238418579 0"/><feBlend mode="normal" in2="BackgroundImageFix" result="effect1_dropShadow"/><feColorMatrix in="SourceAlpha" type="matrix" values="0 0 0 0 0 0 0 0 0 0 0 0 0 0 0 0 0 0 127 0"/><feOffset dy="-0.5" dx="-0.20000000298023224"/><feGaussianBlur stdDeviation="0"/><feColorMatrix type="matrix" values="0 0 0 0 1 0 0 0 0 1 0 0 0 0 1 0 0 0 0.30000001192092896 0"/><feBlend mode="normal" in2="effect1_dropShadow" result="effect2_dropShadow"/><feBlend mode="normal" in="SourceGraphic" in2="effect2_dropShadow" result="shape"/></filter></defs><g><g><g><path d="M32.4804,48.46920030517578L14.5639,48.46920030517578Q14.3046,48.46920030517578,14.0455,48.45650030517578Q13.78653,48.44370030517578,13.52845,48.418300305175784Q13.27036,48.39290030517578,13.01384,48.35490030517578Q12.75732,48.31680030517578,12.50298,48.26620030517578Q12.24863,48.21560030517578,11.99707,48.15260030517578Q11.745519999999999,48.08960030517578,11.49735,48.01430030517578Q11.249189999999999,47.93900030517578,11.00502,47.85170030517578Q10.76085,47.76430030517578,10.52126,47.665100305175784Q10.28167,47.565800305175785,10.04724,47.45500030517578Q9.812809999999999,47.34410030517578,9.584109999999999,47.22180030517578Q9.3554,47.099600305175784,9.13296,46.96630030517578Q8.91053,46.832900305175784,8.69491,46.68890030517578Q8.47928,46.544800305175784,8.270990000000001,46.390300305175785Q8.06269,46.235800305175786,7.86223,46.07130030517578Q7.66176,45.90680030517578,7.469609999999999,45.73260030517578Q7.27746,45.558500305175784,7.09409,45.37510030517578Q6.9107199999999995,45.191700305175786,6.73656,44.99960030517578Q6.56241,44.80740030517578,6.39789,44.60700030517578Q6.23338,44.40650030517578,6.0788899999999995,44.19820030517578Q5.92441,43.98990030517578,5.78034,43.774300305175785Q5.63626,43.558700305175776,5.50294,43.33620030517578Q5.36962,43.113800305175786,5.24737,42.88510030517578Q5.12512,42.65640030517578,5.0142500000000005,42.422000305175786Q4.903369,42.18750030517578,4.804128,41.94790030517578Q4.704887,41.70830030517578,4.617522,41.46420030517578Q4.530157,41.22000030517578,4.454877,40.971800305175776Q4.379598,40.72370030517578,4.316586,40.472100305175786Q4.253575,40.22060030517578,4.202982,39.96620030517578Q4.15239,39.71190030517578,4.114338,39.455400305175786Q4.0762867,39.19880030517578,4.050868,38.940800305175785Q4.0254493,38.682700305175786,4.0127247,38.423700305175785Q4,38.16460030517578,4,37.905300305175786Q4,37.64600030517578,4.0127247,37.38700030517578Q4.0254493,37.127900305175785,4.050868,36.86990030517578Q4.0762867,36.61180030517578,4.114338,36.35530030517578Q4.15239,36.09870030517578,4.202982,35.84440030517578Q4.253575,35.59010030517578,4.316586,35.338500305175785Q4.379598,35.08690030517578,4.454877,34.83880030517578Q4.530157,34.59060030517578,4.617522,34.34640030517578Q4.704887,34.10230030517578,4.804128,33.86270030517578Q4.903369,33.62310030517578,5.0142500000000005,33.38870030517578Q5.12512,33.15420030517578,5.24737,32.92550030517578Q5.36962,32.696800305175785,5.50294,32.47440030517578Q5.63626,32.252000305175784,5.78034,32.036300305175786Q5.92441,31.82070030517578,6.0788899999999995,31.612400305175782Q6.23338,31.40410030517578,6.39789,31.203700305175783Q6.56241,31.00320030517578,6.73656,30.81100030517578Q6.9107199999999995,30.61890030517578,7.09409,30.435500305175783Q7.27746,30.25210030517578,7.469609999999999,30.07800030517578Q7.66176,29.903800305175782,7.86223,29.73930030517578Q8.06269,29.57480030517578,8.270990000000001,29.42030030517578Q8.47928,29.26580030517578,8.69491,29.121800305175782Q8.91053,28.97770030517578,9.13296,28.844400305175782Q9.3554,28.71100030517578,9.584109999999999,28.58880030517578Q9.812809999999999,28.46650030517578,10.04724,28.35570030517578Q10.28167,28.24480030517578,10.52126,28.14550030517578Q10.76085,28.046300305175784,11.00502,27.95890030517578Q11.249189999999999,27.871600305175782,11.49735,27.796300305175784Q11.74551,27.72100030517578,11.99707,27.658000305175783Q12.24863,27.59500030517578,12.50298,27.54440030517578Q12.75732,27.49380030517578,13.01384,27.45580030517578Q13.27036,27.41770030517578,13.52845,27.39230030517578Q13.78653,27.366900305175783,14.0455,27.35410030517578Q14.3046,27.34140030517578,14.5639,27.34140030517578L15.0033,27.34140030517578Q15.0884,26.99890030517578,15.1878,26.66020030517578Q15.2871,26.32160030517578,15.4004,25.98730030517578Q15.5136,25.65300030517578,15.6407,25.323700305175784Q15.7677,24.99440030517578,15.9083,24.67070030517578Q16.0489,24.34695030517578,16.2027,24.02932030517578Q16.3566,23.711680305175783,16.5235,23.400700305175782Q16.6904,23.08972030517578,16.8701,22.785930305175782Q17.049799999999998,22.482140305175783,17.2419,22.186050305175783Q17.433999999999997,21.88997030517578,17.638199999999998,21.60210030517578Q17.842399999999998,21.31424030517578,18.0584,21.035080305175782Q18.2743,20.75593030517578,18.5017,20.485970305175783Q18.729100000000003,20.216010305175782,18.967399999999998,19.95571030517578Q19.2058,19.69541030517578,19.454700000000003,19.44522030517578Q19.703699999999998,19.19502030517578,19.962699999999998,18.95536030517578Q20.2218,18.71570030517578,20.4907,18.48699030517578Q20.7595,18.25827030517578,21.0375,18.040900305175782Q21.3156,17.82353030517578,21.6024,17.61787030517578Q21.8893,17.41222030517578,22.1844,17.218630305175783Q22.4795,17.025040305175782,22.7824,16.84385030517578Q23.0853,16.66266030517578,23.3954,16.49419030517578Q23.7056,16.325710305175782,24.0224,16.17024030517578Q24.3393,16.01477030517578,24.6623,15.872560305175782Q24.9853,15.73036030517578,25.314,15.601670305175782Q25.6426,15.472980305175781,25.9763,15.358027305175781Q26.31,15.24307330517578,26.6482,15.142052305175781Q26.9864,15.041031305175782,27.3284,14.954117305175782Q27.6705,14.867203305175781,28.0159,14.794545305175781Q28.3613,14.72188730517578,28.7094,14.663610305175782Q29.0575,14.605333305175781,29.4077,14.561538305175782Q29.7579,14.517742305175782,30.1096,14.48850340517578Q30.4614,14.459264405175782,30.814,14.444632405175781Q31.1667,14.430000305175781,31.5196,14.430000305175781L32.4804,14.430000305175781Q32.8333,14.430000305175781,33.186,14.444632405175781Q33.5386,14.459264405175782,33.8904,14.48850340517578Q34.2421,14.517742305175782,34.5923,14.561538305175782Q34.942499999999995,14.605333305175781,35.2906,14.663610305175782Q35.6387,14.72188730517578,35.9841,14.794545305175781Q36.3295,14.867203305175781,36.6716,14.954117305175782Q37.0136,15.041031305175782,37.3518,15.142052305175781Q37.69,15.24307330517578,38.0237,15.358027305175781Q38.3574,15.472980305175781,38.686,15.601670305175782Q39.0147,15.73036030517578,39.3377,15.872560305175782Q39.6607,16.01477030517578,39.9776,16.17024030517578Q40.2944,16.325710305175782,40.6046,16.49419030517578Q40.9147,16.66266030517578,41.2176,16.84385030517578Q41.5205,17.025040305175782,41.8156,17.218630305175783Q42.1107,17.41222030517578,42.3976,17.61787030517578Q42.6844,17.82353030517578,42.9625,18.040900305175782Q43.2405,18.25827030517578,43.5093,18.48699030517578Q43.7781,18.71570030517578,44.0372,18.95536030517578Q44.2963,19.19502030517578,44.5453,19.44522030517578Q44.7942,19.69541030517578,45.0326,19.95571030517578Q45.2709,20.216010305175782,45.4983,20.485970305175783Q45.7257,20.75593030517578,45.9416,21.035080305175782Q46.1576,21.31424030517578,46.3618,21.60210030517578Q46.566,21.88997030517578,46.7581,22.186050305175783Q46.9502,22.482140305175783,47.1299,22.785930305175782Q47.3096,23.08972030517578,47.4765,23.400700305175782Q47.6434,23.711680305175783,47.7973,24.02932030517578Q47.9511,24.34695030517578,48.0917,24.67070030517578Q48.2323,24.99440030517578,48.3593,25.323700305175784Q48.4864,25.65300030517578,48.5996,25.98730030517578Q48.7129,26.32160030517578,48.8122,26.66020030517578Q48.9116,26.99890030517578,48.9967,27.34140030517578L49.4361,27.34140030517578Q49.6954,27.34140030517578,49.9545,27.35410030517578Q50.2135,27.366900305175783,50.4716,27.39230030517578Q50.7296,27.41770030517578,50.9862,27.45580030517578Q51.2427,27.49380030517578,51.497,27.54440030517578Q51.7514,27.59500030517578,52.0029,27.658000305175783Q52.2545,27.72100030517578,52.5026,27.796300305175784Q52.7508,27.871600305175782,52.995,27.95890030517578Q53.2391,28.046300305175784,53.4787,28.14550030517578Q53.7183,28.24480030517578,53.9528,28.35570030517578Q54.1872,28.46650030517578,54.4159,28.58880030517578Q54.6446,28.71100030517578,54.867,28.844400305175782Q55.0895,28.97770030517578,55.3051,29.121800305175782Q55.5207,29.26580030517578,55.729,29.42030030517578Q55.9373,29.57480030517578,56.1378,29.73930030517578Q56.3382,29.903800305175782,56.5304,30.07800030517578Q56.7225,30.25210030517578,56.9059,30.435500305175783Q57.0893,30.61890030517578,57.2634,30.81100030517578Q57.4376,31.00320030517578,57.6021,31.203700305175783Q57.7666,31.40410030517578,57.9211,31.612400305175782Q58.0756,31.82070030517578,58.2197,32.036300305175786Q58.3637,32.252000305175784,58.4971,32.47440030517578Q58.6304,32.696800305175785,58.7526,32.92550030517578Q58.8749,33.15420030517578,58.9857,33.38870030517578Q59.0966,33.62310030517578,59.1959,33.86270030517578Q59.2951,34.10230030517578,59.3825,34.34640030517578Q59.4698,34.59060030517578,59.5451,34.83880030517578Q59.6204,35.08690030517578,59.6834,35.338500305175785Q59.7464,35.59000030517578,59.797,35.84440030517578Q59.8476,36.09870030517578,59.8857,36.35530030517578Q59.9237,36.61180030517578,59.9491,36.86990030517578Q59.9746,37.127900305175785,59.9873,37.38700030517578Q60,37.64600030517578,60,37.905300305175786Q60,38.16460030517578,59.9873,38.423700305175785Q59.9746,38.682700305175786,59.9491,38.940800305175785Q59.9237,39.19880030517578,59.8857,39.455400305175786Q59.8476,39.71190030517578,59.797,39.96620030517578Q59.7464,40.22060030517578,59.6834,40.472100305175786Q59.6204,40.72370030517578,59.5451,40.971800305175776Q59.4698,41.22000030517578,59.3825,41.46420030517578Q59.2951,41.70830030517578,59.1959,41.94790030517578Q59.0966,42.18750030517578,58.9858,42.422000305175786Q58.8749,42.65640030517578,58.7526,42.88510030517578Q58.6304,43.113800305175786,58.4971,43.33620030517578Q58.3637,43.558700305175776,58.2197,43.774300305175785Q58.0756,43.98990030517578,57.9211,44.19820030517578Q57.7666,44.40650030517578,57.6021,44.60700030517578Q57.4376,44.80740030517578,57.2634,44.99960030517578Q57.0893,45.191700305175786,56.9059,45.37510030517578Q56.7225,45.558500305175784,56.5304,45.73260030517578Q56.3382,45.90680030517578,56.1378,46.07130030517578Q55.9373,46.235800305175786,55.729,46.390300305175785Q55.5207,46.544800305175784,55.3051,46.68890030517578Q55.0895,46.832900305175784,54.867,46.96630030517578Q54.6446,47.099600305175784,54.4159,47.22180030517578Q54.1872,47.34410030517578,53.9527,47.454900305175784Q53.7183,47.565800305175785,53.4787,47.665100305175784Q53.2391,47.76430030517578,52.995,47.85170030517578Q52.7508,47.93900030517578,52.5026,48.01430030517578Q52.2545,48.08960030517578,52.0029,48.15260030517578Q51.7514,48.21560030517578,51.497,48.26620030517578Q51.2427,48.31680030517578,50.9862,48.35490030517578Q50.7296,48.39290030517578,50.4716,48.418300305175784Q50.2135,48.44370030517578,49.9545,48.45650030517578Q49.6954,48.46920030517578,49.4361,48.46920030517578L32.4804,48.46920030517578Z" fill-rule="evenodd" fill="url(#master_svg0_225_232723)" fill-opacity="1"/></g><g filter="url(#master_svg1_188_46855)"><path d="M33.090217927551265,49.56721823272705L17.176467927551272,49.56721823272705Q16.933877927551272,49.56721823272705,16.69156792755127,49.555318232727046Q16.44925792755127,49.54341823272705,16.20782792755127,49.51971823272705Q15.96639792755127,49.49591823272705,15.726427927551269,49.46031823272705Q15.48645792755127,49.42471823272705,15.24851792755127,49.37731823272705Q15.01057792755127,49.33001823272705,14.77525792755127,49.27111823272705Q14.539927927551268,49.21211823272705,14.30777792755127,49.14171823272705Q14.07562792755127,49.07131823272705,13.84720792755127,48.98951823272705Q13.61878792755127,48.90781823272705,13.394657927551268,48.815018232727056Q13.17052792755127,48.722118232727055,12.95121792755127,48.61841823272705Q12.731917927551269,48.51471823272705,12.517957927551269,48.40031823272705Q12.30400792755127,48.28601823272705,12.09592792755127,48.161318232727055Q11.88784792755127,48.03651823272705,11.686127927551269,47.90181823272705Q11.48441792755127,47.767018232727054,11.28955792755127,47.622518232727046Q11.09470792755127,47.47791823272705,10.907167927551269,47.324018232727056Q10.71963792755127,47.17011823272705,10.53988792755127,47.007218232727055Q10.36013792755127,46.84431823272705,10.18858792755127,46.67281823272705Q10.01704792755127,46.501218232727055,9.85412792755127,46.32151823272705Q9.69120792755127,46.14171823272705,9.53730792755127,45.95421823272705Q9.38340792755127,45.766618232727055,9.23888792755127,45.571818232727054Q9.09437792755127,45.37691823272705,8.95959792755127,45.17521823272705Q8.824817927551269,44.97351823272705,8.700097927551269,44.76541823272705Q8.57537792755127,44.557318232727056,8.46101792755127,44.343418232727046Q8.34665792755127,44.12941823272705,8.24292992755127,43.91011823272705Q8.13920592755127,43.690818232727054,8.046366927551269,43.46671823272705Q7.95352892755127,43.242618232727054,7.87179992755127,43.01411823272705Q7.79007092755127,42.78571823272705,7.71964892755127,42.55361823272705Q7.649225927551269,42.321418232727055,7.590279927551269,42.086118232727046Q7.5313329275512695,41.85081823272705,7.484004927551269,41.61281823272705Q7.43667592755127,41.374918232727055,7.40107992755127,41.134918232727046Q7.36548292755127,40.895018232727054,7.341704127551269,40.65351823272705Q7.31792542755127,40.41211823272705,7.30602162755127,40.16981823272705Q7.2941179275512695,39.92751823272705,7.2941179275512695,39.68491823272705Q7.2941179275512695,39.44231823272705,7.30602162755127,39.20001823272705Q7.31792542755127,38.957718232727046,7.341704127551269,38.71621823272705Q7.36548292755127,38.474818232727046,7.40107992755127,38.23481823272705Q7.43667592755127,37.99491823272705,7.484004927551269,37.75691823272705Q7.5313329275512695,37.51901823272705,7.590279927551269,37.283718232727054Q7.649225927551269,37.048318232727055,7.71964892755127,36.81621823272705Q7.79007092755127,36.58401823272705,7.87179992755127,36.35561823272705Q7.95352892755127,36.127218232727046,8.046366927551269,35.90311823272705Q8.13920592755127,35.67891823272705,8.24292992755127,35.45961823272705Q8.34665792755127,35.24031823272705,8.46101792755127,35.02641823272705Q8.57537792755127,34.812418232727055,8.700097927551269,34.60431823272705Q8.824817927551269,34.396318232727054,8.95959792755127,34.19451823272705Q9.09437792755127,33.992818232727046,9.23888792755127,33.798018232727046Q9.38340792755127,33.60311823272705,9.53730792755127,33.41561823272705Q9.69120792755127,33.22811823272705,9.85412792755127,33.04831823272705Q10.01704792755127,32.86851823272705,10.18858792755127,32.697018232727046Q10.36013792755127,32.52551823272705,10.53988792755127,32.362518232727055Q10.71963792755127,32.19961823272705,10.907167927551269,32.045718232727054Q11.09470792755127,31.89181823272705,11.28955792755127,31.74731823272705Q11.48441792755127,31.602818232727053,11.686127927551269,31.46801823272705Q11.88784792755127,31.33321823272705,12.09592792755127,31.20851823272705Q12.30400792755127,31.08381823272705,12.517957927551269,30.96941823272705Q12.731917927551269,30.85511823272705,12.95121792755127,30.75131823272705Q13.17052792755127,30.64761823272705,13.394657927551268,30.55481823272705Q13.61878792755127,30.46191823272705,13.84720792755127,30.380218232727053Q14.07562792755127,30.29851823272705,14.30777792755127,30.22811823272705Q14.539927927551268,30.157618232727053,14.77525792755127,30.09871823272705Q15.01057792755127,30.03971823272705,15.24851792755127,29.99241823272705Q15.48645792755127,29.94511823272705,15.726427927551269,29.909518232727052Q15.96639792755127,29.87391823272705,16.20782792755127,29.85011823272705Q16.44925792755127,29.82631823272705,16.69156792755127,29.81441823272705Q16.933877927551272,29.802518232727053,17.176467927551272,29.802518232727053L17.647217927551267,29.802518232727053Q17.72691792755127,29.48211823272705,17.81981792755127,29.165318232727053Q17.91271792755127,28.848518232727052,18.018717927551272,28.535818232727053Q18.12471792755127,28.22301823272705,18.24351792755127,27.91501823272705Q18.362317927551267,27.60696823272705,18.49391792755127,27.30411823272705Q18.62541792755127,27.00126823272705,18.76931792755127,26.70412823272705Q18.91331792755127,26.406988232727052,19.06941792755127,26.116068232727052Q19.22561792755127,25.825148232727052,19.39361792755127,25.54095823272705Q19.56171792755127,25.25675823272705,19.741417927551268,24.97977823272705Q19.921117927551272,24.70279823272705,20.11221792755127,24.43349823272705Q20.30321792755127,24.16420823272705,20.50521792755127,23.90306823272705Q20.70731792755127,23.64192823272705,20.92001792755127,23.38937823272705Q21.13261792755127,23.13683823272705,21.355617927551272,22.89332823272705Q21.57861792755127,22.64982823272705,21.81151792755127,22.41576823272705Q22.04441792755127,22.18171823272705,22.28671792755127,21.95751823272705Q22.52911792755127,21.73331823272705,22.78061792755127,21.51936823272705Q23.03211792755127,21.30540823272705,23.29221792755127,21.10205823272705Q23.552317927551268,20.89870823272705,23.820617927551268,20.70632823272705Q24.089017927551268,20.51393823272705,24.36501792755127,20.33283823272705Q24.64111792755127,20.151738232727052,24.92451792755127,19.98223823272705Q25.207817927551268,19.81273823272705,25.49791792755127,19.65512823272705Q25.78811792755127,19.49752823272705,26.08451792755127,19.352088232727052Q26.38091792755127,19.20663823272705,26.68311792755127,19.07360823272705Q26.985317927551268,18.940588232727052,27.29271792755127,18.82019823272705Q27.60021792755127,18.69981023272705,27.91231792755127,18.59227223272705Q28.22451792755127,18.48473523272705,28.54091792755127,18.39023123272705Q28.857217927551268,18.29572823272705,29.17721792755127,18.21442123272705Q29.49721792755127,18.13311423272705,29.82031792755127,18.06514423272705Q30.14341792755127,17.99717323272705,30.46911792755127,17.94265623272705Q30.794717927551268,17.888139232727053,31.12231792755127,17.84716923272705Q31.45001792755127,17.806199432727052,31.77901792755127,17.77884693272705Q32.10801792755127,17.751494332727052,32.43791792755127,17.73780633272705Q32.76781792755127,17.72411823272705,33.09801792755127,17.72411823272705L34.19601792755127,17.72411823272705Q34.52621792755127,17.72411823272705,34.85611792755127,17.73780633272705Q35.18601792755127,17.751494332727052,35.51501792755127,17.77884693272705Q35.84411792755127,17.806199432727052,36.17171792755127,17.84716923272705Q36.499317927551274,17.888139232727053,36.82491792755127,17.94265623272705Q37.15061792755127,17.99717323272705,37.47371792755127,18.06514423272705Q37.796817927551274,18.13311423272705,38.11681792755127,18.21442123272705Q38.436817927551274,18.29572823272705,38.75321792755127,18.39023123272705Q39.069517927551274,18.48473523272705,39.38171792755127,18.59227223272705Q39.69391792755127,18.69981023272705,40.00131792755127,18.82019823272705Q40.30871792755127,18.940588232727052,40.61091792755127,19.07360823272705Q40.91311792755127,19.20663823272705,41.20951792755127,19.352088232727052Q41.505917927551266,19.49752823272705,41.79611792755127,19.65512823272705Q42.08621792755127,19.81273823272705,42.36961792755127,19.98223823272705Q42.65291792755127,20.151738232727052,42.92901792755127,20.33283823272705Q43.20501792755127,20.51393823272705,43.47341792755127,20.70632823272705Q43.74171792755127,20.89870823272705,44.00181792755127,21.10205823272705Q44.26201792755127,21.30540823272705,44.51341792755127,21.51936823272705Q44.76491792755127,21.73331823272705,45.00731792755127,21.95751823272705Q45.249717927551266,22.18171823272705,45.48251792755127,22.41576823272705Q45.71541792755127,22.64982823272705,45.93841792755127,22.89332823272705Q46.16141792755127,23.13683823272705,46.37411792755127,23.38937823272705Q46.58681792755127,23.64192823272705,46.78881792755127,23.90306823272705Q46.99081792755127,24.16420823272705,47.18191792755127,24.43349823272705Q47.37291792755127,24.70279823272705,47.55261792755127,24.97977823272705Q47.73231792755127,25.25675823272705,47.90041792755127,25.54095823272705Q48.06851792755127,25.825148232727052,48.22461792755127,26.116068232727052Q48.38081792755127,26.406988232727052,48.52471792755127,26.70412823272705Q48.66871792755127,27.00126823272705,48.80021792755127,27.30411823272705Q48.93171792755127,27.60696823272705,49.05051792755127,27.91501823272705Q49.16941792755127,28.22301823272705,49.27531792755127,28.535818232727053Q49.38131792755127,28.848518232727052,49.47421792755127,29.165318232727053Q49.56711792755127,29.48211823272705,49.64681792755127,29.802518232727053L50.11761792755127,29.802518232727053Q50.36021792755127,29.802518232727053,50.60251792755127,29.81441823272705Q50.84481792755127,29.82631823272705,51.08631792755127,29.85011823272705Q51.32771792755127,29.87391823272705,51.56771792755127,29.909518232727052Q51.80761792755127,29.94511823272705,52.04561792755127,29.99241823272705Q52.28351792755127,30.03971823272705,52.51891792755127,30.09871823272705Q52.75421792755127,30.157618232727053,52.98631792755127,30.22811823272705Q53.21851792755127,30.29851823272705,53.44691792755127,30.380218232727053Q53.67531792755127,30.46191823272705,53.89941792755127,30.55481823272705Q54.12361792755127,30.64761823272705,54.34291792755127,30.75131823272705Q54.562217927551266,30.85511823272705,54.77611792755127,30.96941823272705Q54.99011792755127,31.08381823272705,55.19821792755127,31.20851823272705Q55.40631792755127,31.33321823272705,55.608017927551266,31.46801823272705Q55.80971792755127,31.602818232727053,56.00451792755127,31.74731823272705Q56.199417927551266,31.89181823272705,56.386917927551266,32.045718232727054Q56.57451792755127,32.19961823272705,56.75421792755127,32.362518232727055Q56.93401792755127,32.52551823272705,57.10551792755127,32.697018232727046Q57.27711792755127,32.86851823272705,57.44001792755127,33.04831823272705Q57.60291792755127,33.22811823272705,57.75681792755127,33.41561823272705Q57.91071792755127,33.60311823272705,58.05521792755127,33.798018232727046Q58.19971792755127,33.992818232727046,58.33451792755127,34.19451823272705Q58.469317927551266,34.396318232727054,58.59401792755127,34.60431823272705Q58.71871792755127,34.812418232727055,58.83311792755127,35.02641823272705Q58.94741792755127,35.24031823272705,59.05121792755127,35.45961823272705Q59.15491792755127,35.67891823272705,59.24771792755127,35.90311823272705Q59.34061792755127,36.127218232727046,59.42231792755127,36.35561823272705Q59.50401792755127,36.58401823272705,59.57451792755127,36.81621823272705Q59.64491792755127,37.048318232727055,59.70381792755127,37.283718232727054Q59.76281792755127,37.51901823272705,59.81011792755127,37.75691823272705Q59.85741792755127,37.99491823272705,59.89301792755127,38.23481823272705Q59.92861792755127,38.474818232727046,59.95241792755127,38.71621823272705Q59.97621792755127,38.957718232727046,59.98811792755127,39.20001823272705Q60.00001792755127,39.44231823272705,60.00001792755127,39.68491823272705Q60.00001792755127,39.92751823272705,59.98811792755127,40.16981823272705Q59.97621792755127,40.41211823272705,59.95241792755127,40.65351823272705Q59.92861792755127,40.895018232727054,59.89301792755127,41.134918232727046Q59.85741792755127,41.374918232727055,59.81011792755127,41.61281823272705Q59.76281792755127,41.85081823272705,59.70381792755127,42.086118232727046Q59.64491792755127,42.321418232727055,59.57451792755127,42.55361823272705Q59.50401792755127,42.78571823272705,59.42231792755127,43.01411823272705Q59.34061792755127,43.242618232727054,59.24771792755127,43.46671823272705Q59.15491792755127,43.690818232727054,59.05121792755127,43.91011823272705Q58.94741792755127,44.12941823272705,58.83311792755127,44.343418232727046Q58.71871792755127,44.557318232727056,58.59401792755127,44.76541823272705Q58.469317927551266,44.97351823272705,58.33451792755127,45.17521823272705Q58.19971792755127,45.37691823272705,58.05521792755127,45.571818232727054Q57.91071792755127,45.766618232727055,57.75681792755127,45.95421823272705Q57.60291792755127,46.14171823272705,57.44001792755127,46.32151823272705Q57.27711792755127,46.501218232727055,57.10551792755127,46.67281823272705Q56.93401792755127,46.84431823272705,56.75421792755127,47.007218232727055Q56.57451792755127,47.17011823272705,56.386917927551266,47.324018232727056Q56.199417927551266,47.47791823272705,56.00451792755127,47.622518232727046Q55.80971792755127,47.767018232727054,55.608017927551266,47.90181823272705Q55.40631792755127,48.03651823272705,55.19821792755127,48.161318232727055Q54.99011792755127,48.28601823272705,54.77611792755127,48.40031823272705Q54.562217927551266,48.51471823272705,54.34291792755127,48.61841823272705Q54.12361792755127,48.722118232727055,53.89941792755127,48.815018232727056Q53.67531792755127,48.90781823272705,53.44691792755127,48.98951823272705Q53.21851792755127,49.07131823272705,52.98631792755127,49.14171823272705Q52.75421792755127,49.21211823272705,52.51881792755127,49.27111823272705Q52.28351792755127,49.33001823272705,52.04561792755127,49.37731823272705Q51.80761792755127,49.42471823272705,51.56771792755127,49.46031823272705Q51.32771792755127,49.49591823272705,51.08631792755127,49.51971823272705Q50.84481792755127,49.54341823272705,50.60251792755127,49.555318232727046Q50.36021792755127,49.56721823272705,50.11761792755127,49.56721823272705L34.19601792755127,49.56721823272705L33.09801792755127,49.56721823272705L33.090217927551265,49.56721823272705Z" fill-rule="evenodd" fill="url(#master_svg2_225_232709)" fill-opacity="1"/></g><g filter="url(#master_svg3_188_46858)"><path d="M32.29553194030762,43.409779869079586C31.890071940307617,43.82787986907959,31.33511194030762,44.06787986907959,30.75275194030762,44.07677986907959C30.170381940307617,44.08577986907959,29.608311940307615,43.86307986907959,29.190171940307618,43.45757986907959C29.174011940307615,43.44187986907959,29.158081940307618,43.42597986907959,29.142401940307618,43.409779869079586L23.634264940307617,37.72952986907959C23.442029940307616,37.531289869079586,23.446898940307616,37.214739869079594,23.645141940307617,37.02249986907959L26.080371940307618,34.66106986907959C26.278611940307616,34.46882986907959,26.595161940307616,34.47369986907959,26.787391940307618,34.67194986907959L30.360021940307618,38.35617986907959C30.556451940307618,38.558779869079586,30.881481940307616,38.558779869079586,31.07792194030762,38.35617986907959L40.50679194030762,28.63272986907959C40.69899194030762,28.43448686907959,41.01549194030761,28.429616869079588,41.213791940307615,28.62185286907959L43.64899194030762,30.98328986907959C43.84729194030761,31.17551986907959,43.852091940307616,31.49206986907959,43.65989194030762,31.69030986907959L32.29553194030762,43.409779869079586Z" fill-rule="evenodd" fill="#ACACAC" fill-opacity="1"/></g></g></g></svg>