<svg xmlns="http://www.w3.org/2000/svg" xmlns:xlink="http://www.w3.org/1999/xlink" fill="none" version="1.1" width="64" height="64" viewBox="0 0 64 64"><defs><linearGradient x1="1" y1="0.9736040234565735" x2="0.8527087414598735" y2="0.12471801368830812" id="master_svg0_188_47143"><stop offset="29.285714030265808%" stop-color="#808080" stop-opacity="1"/><stop offset="100%" stop-color="#BCBCBC" stop-opacity="1"/></linearGradient><linearGradient x1="1" y1="0.9736040234565735" x2="0.5627499276313492" y2="0.5574480883883344" id="master_svg1_225_232618"><stop offset="0%" stop-color="#9F9F9F" stop-opacity="1"/><stop offset="76.59937143325806%" stop-color="#BCBCBC" stop-opacity="0.7699999809265137"/></linearGradient><linearGradient x1="0.7607561945915222" y1="-0.04122503101825714" x2="0.5803462486481059" y2="1.0305923862397648" id="master_svg2_225_232693"><stop offset="0%" stop-color="#DFDFDF" stop-opacity="1"/><stop offset="100%" stop-color="#808080" stop-opacity="1"/></linearGradient><linearGradient x1="1" y1="0.9736040234565735" x2="0.9030264501911253" y2="0.08246111572982678" id="master_svg3_225_232685"><stop offset="0%" stop-color="#9F9F9F" stop-opacity="1"/><stop offset="54.759496450424194%" stop-color="#BCBCBC" stop-opacity="0.7699999809265137"/><stop offset="100%" stop-color="#ECECEC" stop-opacity="1"/></linearGradient><filter id="master_svg4_188_48561" filterUnits="objectBoundingBox" color-interpolation-filters="sRGB" x="0" y="0" width="1" height="1"><feFlood flood-opacity="0" result="BackgroundImageFix"/><feBlend mode="normal" in="SourceGraphic" in2="BackgroundImageFix" result="shape"/><feColorMatrix in="SourceAlpha" type="matrix" result="hardAlpha" values="0 0 0 0 0 0 0 0 0 0 0 0 0 0 0 0 0 0 127 0"/><feOffset dy="0" dx="-0.20000000298023224"/><feGaussianBlur stdDeviation="0.10000000149011612"/><feComposite in2="hardAlpha" operator="arithmetic" k2="-1" k3="1"/><feColorMatrix type="matrix" values="0 0 0 0 0.5 0 0 0 0 0.5 0 0 0 0 0.5 0 0 0 0.4000000059604645 0"/><feBlend mode="normal" in2="shape" result="effect1_innerShadow"/></filter><linearGradient x1="1" y1="0.9736040234565735" x2="0.986529929530892" y2="0.33299618903610756" id="master_svg5_188_44150"><stop offset="0%" stop-color="#BCBCBC" stop-opacity="1"/><stop offset="100%" stop-color="#9F9F9F" stop-opacity="1"/></linearGradient><filter id="master_svg6_188_48558" filterUnits="objectBoundingBox" color-interpolation-filters="sRGB" x="0" y="0" width="1" height="1"><feFlood flood-opacity="0" result="BackgroundImageFix"/><feBlend mode="normal" in="SourceGraphic" in2="BackgroundImageFix" result="shape"/><feColorMatrix in="SourceAlpha" type="matrix" result="hardAlpha" values="0 0 0 0 0 0 0 0 0 0 0 0 0 0 0 0 0 0 127 0"/><feOffset dy="-0.5" dx="0"/><feGaussianBlur stdDeviation="0.5"/><feComposite in2="hardAlpha" operator="arithmetic" k2="-1" k3="1"/><feColorMatrix type="matrix" values="0 0 0 0 0.6254901885986328 0 0 0 0 0.6254901885986328 0 0 0 0 0.6254901885986328 0 0 0 0.1599999964237213 0"/><feBlend mode="normal" in2="shape" result="effect1_innerShadow"/></filter><linearGradient x1="1" y1="0.9736040234565735" x2="0.798377275466919" y2="0.33695247769355774" id="master_svg7_188_44150"><stop offset="0%" stop-color="#BCBCBC" stop-opacity="1"/><stop offset="100%" stop-color="#9F9F9F" stop-opacity="1"/></linearGradient><linearGradient x1="1" y1="0.9736040234565735" x2="0.798377275466919" y2="0.33695247769355774" id="master_svg8_188_44150"><stop offset="0%" stop-color="#BCBCBC" stop-opacity="1"/><stop offset="100%" stop-color="#9F9F9F" stop-opacity="1"/></linearGradient></defs><g><g><g><path d="M31.999457359313965,54.05407982177734L40.43188735931396,55.999979821777345L40.43188735931396,42.378379821777344L32.648106359313964,45.621619821777344L31.999457359313965,54.05407982177734Z" fill="url(#master_svg0_188_47143)" fill-opacity="1"/></g><g><path d="M18.239578364990635,41.21934364471436C18.344814260650633,41.32454364471435,18.470745260650634,41.41314364471435,18.612105260650633,41.48144364471436C20.972428260650634,41.21934364471436,26.412958260650633,36.289243644714354,33.94538826065063,28.756743644714355C41.47788826065063,21.224303644714354,44.97238826065063,16.432433644714354,46.021488260650635,14.072033644714356C45.95498826065064,13.934281644714355,45.86918826065063,13.811231644714356,45.76758826065063,13.707760965514355C49.411888260650635,17.356443644714354,51.45888826065063,22.302513644714356,51.45888826065063,27.459443644714355C51.45888826065063,38.206643644714354,42.74658826065064,46.91894364471435,31.999488260650637,46.91894364471435C26.838488260650635,46.91894364471435,21.888898260650635,44.86874364471436,18.239578364990635,41.21934364471436Z" fill-rule="evenodd" fill="url(#master_svg1_225_232618)" fill-opacity="1"/></g><g><path d="M38.48594570159912,45.77201026733398L38.48594570159912,55.351330267333985L48.86434570159912,54.054030267333985L45.62108570159912,41.08107926733398L44.91468570159912,40.84561526733398C44.105135701599124,40.57576326733398,43.23540570159912,40.54236126733399,42.40753570159912,40.749329267333984C40.10279570159912,41.32551626733398,38.48594570159912,43.39633026733399,38.48594570159912,45.77201026733398Z" fill="url(#master_svg2_225_232693)" fill-opacity="1"/></g><g><path d="M40.43189334869385,47.72727139038086L40.43189334869385,55.99998139038086L48.864323348693844,54.05408139038086L45.621083348693844,41.08108139038086C42.57136334869385,41.84351139038086,40.43189334869385,44.58369139038086,40.43189334869385,47.72727139038086Z" fill="url(#master_svg3_225_232685)" fill-opacity="1"/></g><g transform="matrix(0.7071067690849304,0.7071067690849304,-0.7071067690849304,0.7071067690849304,19.54400256428103,-26.875646165631522)" filter="url(#master_svg4_188_48561)"><ellipse cx="47.2279748916626" cy="29.613367795944214" rx="5.014198303222656" ry="19.45949363708496" fill="url(#master_svg5_188_44150)" fill-opacity="1"/></g><g filter="url(#master_svg6_188_48558)"><path d="M36.51062204742432,30.02468208557129L28.107572047424316,21.62162208557129L26.161622047424316,23.56757208557129L34.56335204742432,31.96932208557129C34.890462047424315,31.65372208557129,35.21783204742432,31.33214208557129,35.54500204742432,31.00496208557129C35.87326204742432,30.67671208557129,36.195222047424316,30.34985208557129,36.51062204742432,30.02468208557129Z" fill-rule="evenodd" fill="#EEEEEE" fill-opacity="1"/></g><g><ellipse cx="26.16162109375" cy="21.621621131896973" rx="3.2432432174682617" ry="3.2432432174682617" fill="url(#master_svg7_188_44150)" fill-opacity="1"/></g><g><ellipse cx="26.810270071029663" cy="20.972972631454468" rx="1.2972972393035889" ry="1.2972972393035889" fill="#BCBCBC" fill-opacity="1"/></g><g><path d="M12.540001855093028,19.0336C12.540000592991028,19.031399999999998,12.539999961853027,19.0292,12.539999961853027,19.027C12.539999961853027,12.936969999999999,17.476969961853026,8,23.56699996185303,8C23.569199961853027,8,23.571399961853025,8.000000631138,23.573599961853027,8.00000189324C23.937899961853027,8.000213083,24.215699961853026,8.303369,24.215699961853026,8.667681L24.215699961853026,9.06963C24.215699961853026,9.42065,23.924599961853026,9.69671,23.573599961853027,9.69647C23.571399961853025,9.69647,23.569199961853027,9.69647,23.56699996185303,9.69647C18.413899961853026,9.69647,14.236469961853027,13.873899999999999,14.236469961853027,19.027C14.236469961853027,19.0292,14.236469961853027,19.031399999999998,14.236469961853027,19.0336C14.236709961853027,19.3846,13.960649961853028,19.6757,13.609629961853027,19.6757L13.207680961853027,19.6757C12.843368961853027,19.6757,12.540213044853028,19.3979,12.540001855113028,19.0336M23.573599961853027,11.8919C23.571399961853025,11.89189,23.569199961853027,11.89189,23.56699996185303,11.89189C19.62639996185303,11.89189,16.431889961853027,15.086400000000001,16.431889961853027,19.027C16.431889961853027,19.0292,16.431889961853027,19.031399999999998,16.431899961853027,19.0336C16.43222996185303,19.4012,16.742619961853027,19.6757,17.110279961853028,19.6757L17.405249961853027,19.6757C17.751239961853027,19.6757,18.017879961853026,19.3796,18.017479961853027,19.0336C18.017479961853027,19.031399999999998,18.017479961853027,19.0292,18.017479961853027,19.027C18.017479961853027,15.96209,20.502089961853027,13.47748,23.56699996185303,13.47748C23.569199961853027,13.47748,23.571399961853025,13.47748,23.573599961853027,13.47748C23.919599961853027,13.477879999999999,24.215699961853026,13.21124,24.215699961853026,12.86525L24.215699961853026,12.57028C24.215699961853026,12.20262,23.941199961853027,11.89223,23.573599961853027,11.8919M23.725999961853027,15.78761C23.67339996185303,15.785070000000001,23.62029996185303,15.78378,23.56699996185303,15.78378C21.775829961853027,15.78378,20.323779961853027,17.23583,20.323779961853027,19.027C20.323779961853027,19.0803,20.32506996185303,19.1334,20.327609961853028,19.186C20.341419961853028,19.472,20.594389961853025,19.6757,20.880659961853027,19.6757L21.073779961853027,19.6757C21.394929961853027,19.6757,21.622189961853028,19.355,21.621089961853027,19.0338C21.621079961853027,19.031599999999997,21.621079961853027,19.0293,21.621079961853027,19.027C21.621079961853027,17.95231,22.492309961853028,17.08108,23.56699996185303,17.08108C23.569299961853027,17.08108,23.571599961853025,17.08108,23.573799961853027,17.08109C23.894999961853028,17.08219,24.215699961853026,16.85493,24.215699961853026,16.53378L24.215699961853026,16.34066C24.215699961853026,16.054389999999998,24.01199996185303,15.80142,23.725999961853027,15.78761" fill-rule="evenodd" fill="url(#master_svg8_188_44150)" fill-opacity="1"/></g></g></g></svg>