<svg xmlns="http://www.w3.org/2000/svg" xmlns:xlink="http://www.w3.org/1999/xlink" fill="none" version="1.1" width="64" height="64" viewBox="0 0 64 64"><defs><linearGradient x1="1" y1="0.9736040234565735" x2="0.8871663073029522" y2="0.32158723778978743" id="master_svg0_225_232568"><stop offset="0%" stop-color="#9F9F9F" stop-opacity="1"/><stop offset="100%" stop-color="#BCBCBC" stop-opacity="1"/></linearGradient><linearGradient x1="1" y1="0.9736040234565735" x2="0.8973081140253573" y2="0.32137603124547165" id="master_svg1_188_44150"><stop offset="0%" stop-color="#BCBCBC" stop-opacity="1"/><stop offset="100%" stop-color="#9F9F9F" stop-opacity="1"/></linearGradient><linearGradient x1="0.18221446871757507" y1="0.07093721628189087" x2="1.010572457856668" y2="0.3469072288857382" id="master_svg2_188_44397"><stop offset="0%" stop-color="#CFCFCF" stop-opacity="1"/><stop offset="100%" stop-color="#E3E3E3" stop-opacity="1"/></linearGradient><linearGradient x1="0.18221446871757507" y1="0.07093721628189087" x2="1.0425349652245077" y2="0.5022572325560537" id="master_svg3_188_44397"><stop offset="0%" stop-color="#CFCFCF" stop-opacity="1"/><stop offset="100%" stop-color="#E3E3E3" stop-opacity="1"/></linearGradient><mask id="master_svg4_188_44155" style="mask-type:alpha" maskUnits="objectBoundingBox"><g><path d="M15.22449,7Q14.55102,7.636364,15.897959,10.5C17.2449,13.36364,21.28571,14,21.95918,14Q22.632649999999998,14,26,12.409089999999999Q21.9592,11.77273,20.2755,8.590910000000001Q17.58162,8.590910000000001,15.22449,7Z" fill="#FFFFFF" fill-opacity="1"/></g></mask></defs><g><g><g transform="matrix(-1,0,0,1,108.08000183105469,0)"><path d="M54.040000915527344,22.67416L54.040000915527344,47.5056L76.08000091552734,54L79.17330091552734,26.8764L79.17330091552734,20L54.040000915527344,22.67416Z" fill="url(#master_svg0_225_232568)" fill-opacity="1"/></g><g><path d="M8.41333293914795,24.58427L8.41333293914795,49.033699999999996L32.386632939147944,54L32.386632939147944,27.25843L28.90663293914795,26.8764L28.90663293914795,20L8.41333293914795,24.58427Z" fill="url(#master_svg1_188_44150)" fill-opacity="1"/></g><g><path d="M3,33.752810000457764L26.9733,38.337070000457764L32.386700000000005,27.258430000457764L8.41333,24.584270000457764L3,33.752810000457764Z" fill="url(#master_svg2_188_44397)" fill-opacity="1"/></g><g><path d="M32.38666343688965,27.25842714263916L40.11999343688965,39.10115714263916L60.999963436889644,32.224717142639165L54.03996343688965,22.67415714263916L32.38666343688965,27.25842714263916Z" fill="url(#master_svg3_188_44397)" fill-opacity="1"/></g></g><g><path d="M43,22.5L47.5,21Q49.5,15.5,49,13Q46.5,14.5,45.5,14.5Q44.5,22,43,22.5Z" fill="#DBDBDB" fill-opacity="1"/></g><g mask="url(#master_svg4_188_44155)"><g><path d="M15.22449,7Q14.55102,7.636364,15.897959,10.5C17.2449,13.36364,21.28571,14,21.95918,14Q22.632649999999998,14,26,12.409089999999999Q21.9592,11.77273,20.2755,8.590910000000001Q17.58162,8.590910000000001,15.22449,7Z" fill="#DBDBDB" fill-opacity="1"/></g><g><path d="M14.257298243186188,9.202024910064697Q13.942284543186188,9.454753410064697,17.581613543186187,14.636356410064696L22.29590354318619,15.909086410064697L24.989803543186188,13.045446410064697Q19.000023543186188,13.500006410064698,15.561203543186188,10.181809410064698Q14.414825543186188,9.075643410064698,14.257298243186188,9.202024910064697Z" fill="#ACACAC" fill-opacity="1"/></g></g></g></svg>