<svg xmlns="http://www.w3.org/2000/svg" xmlns:xlink="http://www.w3.org/1999/xlink" fill="none" version="1.1" width="12" height="12" viewBox="0 0 12 12"><g transform="matrix(0,1,1,0,0,0)"><g transform="matrix(0,1,-1,0,14.5,-6.5)"><path d="M10.5,4.841664L10.5,12.15834C10.5,12.41928,10.500673879,12.55434,10.5523963,12.60974C10.5949817,12.65536,10.657979,12.67931,10.720113,12.67351C10.795578,12.66646,10.885809,12.56596,11.059171,12.37093L14.02756,9.03149C14.19473,8.84343,14.27966,8.74722,14.31082,8.64094C14.33776,8.54903,14.33776,8.45097,14.31082,8.35906C14.27966,8.25278,14.19473,8.15657,14.02756,7.96851L11.059171,4.629067C10.885809,4.434035,10.795578,4.33354,10.720113,4.326494C10.657979,4.320693,10.5949817,4.344644,10.5523963,4.39026C10.500674043,4.4456620000000004,10.5,4.580719,10.5,4.841664Z" fill="#C0C0C0" fill-opacity="1"/></g></g></svg>