<svg xmlns="http://www.w3.org/2000/svg" xmlns:xlink="http://www.w3.org/1999/xlink" fill="none" version="1.1" width="12" height="12" viewBox="0 0 12 12"><g transform="matrix(0,-1,-1,0,24,24)"><g transform="matrix(0,1,-1,0,38.5,-6.5)"><path d="M22.5,16.841664L22.5,24.158340000000003C22.5,24.41928,22.500673879,24.55434,22.5523963,24.609740000000002C22.5949817,24.65536,22.657979,24.67931,22.720113,24.67351C22.795578,24.66646,22.885809,24.56596,23.059171,24.37093L26.02756,21.031489999999998C26.19473,20.843429999999998,26.27966,20.74722,26.31082,20.64094C26.33776,20.549030000000002,26.33776,20.450969999999998,26.31082,20.35906C26.27966,20.25278,26.19473,20.156570000000002,26.02756,19.968510000000002L23.059171,16.629067C22.885809,16.434035,22.795578,16.33354,22.720113,16.326494C22.657979,16.320693,22.5949817,16.344644,22.5523963,16.39026C22.500674043,16.445662,22.5,16.580719,22.5,16.841664Z" fill="#C0C0C0" fill-opacity="1"/></g></g></svg>