{
    "asset" : {
        "generator" : "Khronos glTF Blender I/O v1.8.19",
        "version" : "2.0"
    },
    "scene" : 0,
    "scenes" : [
        {
            "name" : "Scene",
            "nodes" : [
                0
            ]
        }
    ],
    "nodes" : [
        {
            "mesh" : 0,
            "name" : "\u4e66\u67dc09"
        }
    ],
    "materials" : [
        {
            "doubleSided" : true,
            "name" : "Mat3d66-713896-4-148.003",
            "pbrMetallicRoughness" : {
                "baseColorTexture" : {
                    "index" : 0
                },
                "metallicFactor" : 0,
                "roughnessFactor" : 0.7047244310379028
            }
        },
        {
            "doubleSided" : true,
            "name" : "Mat3d66-713896-24-8005.003",
            "pbrMetallicRoughness" : {
                "baseColorTexture" : {
                    "index" : 1
                },
                "metallicFactor" : 0,
                "roughnessFactor" : 0.8228346109390259
            }
        },
        {
            "doubleSided" : true,
            "name" : "Mat3d66-713896-2-1076.003",
            "pbrMetallicRoughness" : {
                "baseColorFactor" : [
                    0.2509799897670746,
                    0.2509799897670746,
                    0.2509799897670746,
                    1
                ],
                "metallicFactor" : 0,
                "roughnessFactor" : 0.6811023950576782
            }
        }
    ],
    "meshes" : [
        {
            "name" : "Obj3d66-713896-14-235",
            "primitives" : [
                {
                    "attributes" : {
                        "POSITION" : 0,
                        "NORMAL" : 1,
                        "TEXCOORD_0" : 2
                    },
                    "indices" : 3,
                    "material" : 0
                },
                {
                    "attributes" : {
                        "POSITION" : 4,
                        "NORMAL" : 5,
                        "TEXCOORD_0" : 6
                    },
                    "indices" : 7,
                    "material" : 1
                },
                {
                    "attributes" : {
                        "POSITION" : 8,
                        "NORMAL" : 9,
                        "TEXCOORD_0" : 10
                    },
                    "indices" : 11,
                    "material" : 2
                }
            ]
        }
    ],
    "textures" : [
        {
            "sampler" : 0,
            "source" : 0
        },
        {
            "sampler" : 0,
            "source" : 1
        }
    ],
    "images" : [
        {
            "bufferView" : 4,
            "mimeType" : "image/jpeg",
            "name" : "3d66Model-713896-files-7"
        },
        {
            "bufferView" : 9,
            "mimeType" : "image/jpeg",
            "name" : "3d66Model-713896-files-1"
        }
    ],
    "accessors" : [
        {
            "bufferView" : 0,
            "componentType" : 5126,
            "count" : 2261,
            "max" : [
                0.255092978477478,
                0.04623604565858841,
                0.20805691182613373
            ],
            "min" : [
                -0.255092978477478,
                -2.2351741790771484e-08,
                -0.22480008006095886
            ],
            "type" : "VEC3"
        },
        {
            "bufferView" : 1,
            "componentType" : 5126,
            "count" : 2261,
            "type" : "VEC3"
        },
        {
            "bufferView" : 2,
            "componentType" : 5126,
            "count" : 2261,
            "type" : "VEC2"
        },
        {
            "bufferView" : 3,
            "componentType" : 5123,
            "count" : 2448,
            "type" : "SCALAR"
        },
        {
            "bufferView" : 5,
            "componentType" : 5126,
            "count" : 11800,
            "max" : [
                0.255092978477478,
                1.1998140811920166,
                0.22559510171413422
            ],
            "min" : [
                -0.255092978477478,
                0.046396974474191666,
                -0.22480008006095886
            ],
            "type" : "VEC3"
        },
        {
            "bufferView" : 6,
            "componentType" : 5126,
            "count" : 11800,
            "type" : "VEC3"
        },
        {
            "bufferView" : 7,
            "componentType" : 5126,
            "count" : 11800,
            "type" : "VEC2"
        },
        {
            "bufferView" : 8,
            "componentType" : 5123,
            "count" : 13956,
            "type" : "SCALAR"
        },
        {
            "bufferView" : 10,
            "componentType" : 5126,
            "count" : 18643,
            "max" : [
                0.07925403118133545,
                1.18491792678833,
                0.22501297295093536
            ],
            "min" : [
                -0.08074593544006348,
                0.0895090401172638,
                -0.22559508681297302
            ],
            "type" : "VEC3"
        },
        {
            "bufferView" : 11,
            "componentType" : 5126,
            "count" : 18643,
            "type" : "VEC3"
        },
        {
            "bufferView" : 12,
            "componentType" : 5126,
            "count" : 18643,
            "type" : "VEC2"
        },
        {
            "bufferView" : 13,
            "componentType" : 5123,
            "count" : 58650,
            "type" : "SCALAR"
        }
    ],
    "bufferViews" : [
        {
            "buffer" : 0,
            "byteLength" : 27132,
            "byteOffset" : 0
        },
        {
            "buffer" : 0,
            "byteLength" : 27132,
            "byteOffset" : 27132
        },
        {
            "buffer" : 0,
            "byteLength" : 18088,
            "byteOffset" : 54264
        },
        {
            "buffer" : 0,
            "byteLength" : 4896,
            "byteOffset" : 72352
        },
        {
            "buffer" : 0,
            "byteLength" : 6876,
            "byteOffset" : 77248
        },
        {
            "buffer" : 0,
            "byteLength" : 141600,
            "byteOffset" : 84124
        },
        {
            "buffer" : 0,
            "byteLength" : 141600,
            "byteOffset" : 225724
        },
        {
            "buffer" : 0,
            "byteLength" : 94400,
            "byteOffset" : 367324
        },
        {
            "buffer" : 0,
            "byteLength" : 27912,
            "byteOffset" : 461724
        },
        {
            "buffer" : 0,
            "byteLength" : 17238,
            "byteOffset" : 489636
        },
        {
            "buffer" : 0,
            "byteLength" : 223716,
            "byteOffset" : 506876
        },
        {
            "buffer" : 0,
            "byteLength" : 223716,
            "byteOffset" : 730592
        },
        {
            "buffer" : 0,
            "byteLength" : 149144,
            "byteOffset" : 954308
        },
        {
            "buffer" : 0,
            "byteLength" : 117300,
            "byteOffset" : 1103452
        }
    ],
    "samplers" : [
        {
            "magFilter" : 9729,
            "minFilter" : 9987
        }
    ],
    "buffers" : [
        {
            "byteLength" : 1220752,
            "uri" : "data:application/octet-stream;base64,"
        }
    ]
}
