<?xml version="1.0" standalone="no"?><!DOCTYPE svg PUBLIC "-//W3C//DTD SVG 1.1//EN" "http://www.w3.org/Graphics/SVG/1.1/DTD/svg11.dtd"><svg t="1729561280578" class="icon" viewBox="0 0 1024 1024" version="1.1" xmlns="http://www.w3.org/2000/svg" p-id="9475" xmlns:xlink="http://www.w3.org/1999/xlink" width="80" height="80"><path d="M512 128a128 128 0 0 1 128 128v128h68.48a128 128 0 0 1 122.208 89.824l92.96 297.536A96 96 0 0 1 832.032 896H191.968a96 96 0 0 1-91.616-124.64l92.992-297.536A128 128 0 0 1 315.52 384H384V256a128 128 0 0 1 128-128zM218.624 607.552l-57.184 182.912a32 32 0 0 0 26.816 41.312l3.712 0.224h71.36c0.16-1.792 0.48-3.616 0.96-5.44l33.12-123.648a32 32 0 0 1 61.824 16.576L329.056 832h502.976a32 32 0 0 0 31.456-37.92l-0.928-3.616-57.056-182.592c-0.96 0.096-1.92 0.128-2.88 0.128H224a33.6 33.6 0 0 1-5.376-0.448zM512 192a64 64 0 0 0-63.84 59.2L448 256v192H315.52a64 64 0 0 0-59.328 40l-1.76 4.896L238.4 544h547.104l-15.936-51.104a64 64 0 0 0-55.872-44.672L708.48 448h-132.544L576 256a64 64 0 0 0-64-64z" fill="#919191" p-id="9476"></path></svg>