<svg xmlns="http://www.w3.org/2000/svg" xmlns:xlink="http://www.w3.org/1999/xlink" version="1.1" viewBox="0 0 24 24"><g><g><path d="M4.0000000298023,6.1L4.0000000298023,9.4Q4.0000000298023,10.366109999999999,4.16771,10.68966Q4.387098,11.1129,4.810344,11.33229Q5.13389,11.5,6.1,11.5L9.4,11.5Q10.366109999999999,11.5,10.68966,11.33229Q11.1129,11.1129,11.33229,10.68966Q11.5,10.366109999999999,11.5,9.4L11.5,6.1Q11.5,5.13389,11.33229,4.810343Q11.1129,4.387098,10.68966,4.16771Q10.366109999999999,4.0000000596046,9.4,4.0000000298023L6.1,4.0000000596046Q5.13389,4.0000000596046,4.810343,4.16771Q4.387099,4.387099,4.16771,4.810343Q3.9999999403954,5.13389,4.0000000298023,6.1ZM5.05553,10.22946Q5,10.122340000000001,5,9.4L5,6.1Q5,5.3776600000000006,5.05553,5.2705400000000004Q5.12893,5.12893,5.2705400000000004,5.05553Q5.3776600000000006,5,6.1,5L9.4,5Q10.122340000000001,5,10.22946,5.05553Q10.37107,5.12893,10.444469999999999,5.2705400000000004Q10.5,5.3776600000000006,10.5,6.1L10.5,9.4Q10.5,10.122340000000001,10.444469999999999,10.22946Q10.37107,10.37107,10.22946,10.444469999999999Q10.122340000000001,10.5,9.4,10.5L6.1,10.5Q5.3776600000000006,10.5,5.2705400000000004,10.444469999999999Q5.12893,10.37107,5.05553,10.22946ZM4.0000000298023,14.6L4.0000000298023,17.9Q4.0000000298023,18.8661,4.16771,19.189700000000002Q4.387098,19.6129,4.810344,19.8323Q5.13389,20,6.1,20L9.4,20Q10.366109999999999,20,10.68966,19.8323Q11.1129,19.6129,11.33229,19.189700000000002Q11.5,18.8661,11.5,17.9L11.5,14.6Q11.5,13.63389,11.33229,13.31034Q11.1129,12.8871,10.68966,12.66771Q10.366109999999999,12.5,9.4,12.5L6.1,12.5Q5.13389,12.5,4.810343,12.66771Q4.387099,12.8871,4.16771,13.31034Q3.9999999403954,13.63389,4.0000000298023,14.6ZM5.05553,18.7295Q5,18.6223,5,17.9L5,14.6Q5,13.87766,5.05553,13.77054Q5.12893,13.62893,5.2705400000000004,13.55553Q5.3776600000000006,13.5,6.1,13.5L9.4,13.5Q10.122340000000001,13.5,10.22946,13.55553Q10.37107,13.62893,10.444469999999999,13.77054Q10.5,13.87766,10.5,14.6L10.5,17.9Q10.5,18.6223,10.444469999999999,18.7295Q10.37107,18.8711,10.22946,18.944499999999998Q10.122340000000001,19,9.4,19L6.1,19Q5.3776600000000006,19,5.2705400000000004,18.944499999999998Q5.12893,18.8711,5.05553,18.7295ZM12.5,6.1L12.5,9.4Q12.5,10.366109999999999,12.66771,10.68966Q12.8871,11.1129,13.31034,11.33229Q13.63389,11.5,14.6,11.5L17.9,11.5Q18.8661,11.5,19.189700000000002,11.33229Q19.6129,11.1129,19.8323,10.68966Q20,10.366109999999999,20,9.4L20,6.1Q20,5.13389,19.8323,4.810343Q19.6129,4.387098,19.189700000000002,4.16771Q18.8661,4.0000000596046,17.9,4.0000000298023L14.6,4.0000000596046Q13.63389,4.0000000596046,13.31034,4.16771Q12.8871,4.387099,12.66771,4.810343Q12.5,5.13389,12.5,6.1ZM13.55553,10.22946Q13.5,10.122340000000001,13.5,9.4L13.5,6.1Q13.5,5.3776600000000006,13.55553,5.2705400000000004Q13.62893,5.12893,13.77054,5.05553Q13.87766,5,14.6,5L17.9,5Q18.6223,5,18.7295,5.05553Q18.8711,5.12893,18.944499999999998,5.2705400000000004Q19,5.3776600000000006,19,6.1L19,9.4Q19,10.122340000000001,18.944499999999998,10.22946Q18.8711,10.37107,18.7295,10.444469999999999Q18.6223,10.5,17.9,10.5L14.6,10.5Q13.87766,10.5,13.77054,10.444469999999999Q13.62893,10.37107,13.55553,10.22946ZM12.5,14.6L12.5,17.9Q12.5,18.8661,12.66771,19.189700000000002Q12.8871,19.6129,13.31034,19.8323Q13.63389,20,14.6,20L17.9,20Q18.8661,20,19.189700000000002,19.8323Q19.6129,19.6129,19.8323,19.189700000000002Q20,18.8661,20,17.9L20,14.6Q20,13.63389,19.8323,13.31034Q19.6129,12.8871,19.189700000000002,12.66771Q18.8661,12.5,17.9,12.5L14.6,12.5Q13.63389,12.5,13.31034,12.66771Q12.8871,12.8871,12.66771,13.31034Q12.5,13.63389,12.5,14.6ZM13.55553,18.7295Q13.5,18.6223,13.5,17.9L13.5,14.6Q13.5,13.87766,13.55553,13.77054Q13.62893,13.62893,13.77054,13.55553Q13.87766,13.5,14.6,13.5L17.9,13.5Q18.6223,13.5,18.7295,13.55553Q18.8711,13.62893,18.944499999999998,13.77054Q19,13.87766,19,14.6L19,17.9Q19,18.6223,18.944499999999998,18.7295Q18.8711,18.8711,18.7295,18.944499999999998Q18.6223,19,17.9,19L14.6,19Q13.87766,19,13.77054,18.944499999999998Q13.62893,18.8711,13.55553,18.7295Z"/></g></g></svg>