<svg xmlns="http://www.w3.org/2000/svg" xmlns:xlink="http://www.w3.org/1999/xlink" version="1.1" viewBox="0 0 24 24"><g><g><path d="M16.8,4L8.2,4C7.07989,4,6.50718,4.00226746,6.0808800000000005,4.223236C5.713957,4.413433,5.413433,4.713957,5.223236,5.0808800000000005C5.00226746,5.50718,5,6.07989,5,7.2L5,15.8C5,16.920099999999998,5.00226751,17.492800000000003,5.223236,17.9191C5.413433,18.286,5.713957,18.5866,6.0808800000000005,18.7768C6.50718,18.997700000000002,7.07989,19,8.2,19L16.8,19C17.920099999999998,19,18.492800000000003,18.997700000000002,18.9191,18.7768C19.286,18.5866,19.5866,18.286,19.7768,17.9191C19.997700000000002,17.492800000000003,20,16.920099999999998,20,15.8L20,7.2C20,6.07989,19.997700000000002,5.50718,19.7768,5.0808800000000005C19.5866,4.713957,19.286,4.413433,18.9191,4.223236C18.492800000000003,4.00226751,17.920099999999998,4,16.8,4ZM6.54108,5.1110500000000005Q6.75533,5,8.2,5L16.8,5Q18.2447,5,18.4589,5.1110500000000005Q18.7421,5.25786,18.8889,5.54108Q19,5.75532,19,7.2L19,15.8Q19,17.2447,18.8889,17.4589Q18.7421,17.7421,18.4589,17.8889Q18.2447,18,16.8,18L8.2,18Q6.75533,18,6.5410900000000005,17.8889Q6.25786,17.7421,6.1110500000000005,17.4589Q6,17.2447,6,15.8L6,7.2Q6,5.75533,6.1110500000000005,5.54108Q6.25786,5.25786,6.54108,5.1110500000000005ZM17.8947,8.80697L14.39468,13.30697C14.24191,13.50338,13.96797,13.55757,13.75193,13.43412L10.635169999999999,11.65311L7.9,15.3C7.82044,15.4061,7.70199,15.4762,7.57071,15.495C7.439439999999999,15.5137,7.30609,15.4796,7.2,15.4C6.97909,15.2343,6.93431,14.9209,7.1,14.7L10.1,10.7C10.2513,10.49827,10.52913,10.44077,10.74807,10.56588L13.87156,12.35073L17.1053,8.19303C17.186700000000002,8.08836,17.3064,8.02031,17.438000000000002,8.00386C17.5696,7.987410000000001,17.7023,8.02391,17.807000000000002,8.105319999999999C17.9116,8.18674,17.9797,8.3064,17.9961,8.43798C18.0126,8.569569999999999,17.976100000000002,8.702300000000001,17.8947,8.80697Z" /></g></g></svg>