<svg xmlns="http://www.w3.org/2000/svg" xmlns:xlink="http://www.w3.org/1999/xlink" version="1.1" viewBox="0 0 24 24"><g><g><path d="M3.0545454,19.6391L4.28364,15.0184C4.30274,14.9465,4.33761,14.8799,4.3857099999999996,14.8232L14.2409,3.21746Q15.153,2.143238,16.5565,2.0159179Q17.96,1.888598,19.0506,2.7811339999999998Q20.1827,3.70763,20.3027,5.16558Q20.4227,6.62352,19.4573,7.72263L9.33031,19.2522C9.28107,19.3083,9.219909999999999,19.3526,9.151309999999999,19.382L4.87277,21.2123Q4.10411,21.5411,3.471875,20.9941Q2.839637,20.4471,3.0545454,19.6391ZM4.0209399999999995,19.8962Q3.966748,20.0999,4.12618,20.2379Q4.28562,20.3758,4.47945,20.2929L8.65379,18.5071L17.680999999999997,8.2296L14.0599,4.97545L5.22103,15.3845L4.0209399999999995,19.8962ZM14.7075,4.21289L18.341,7.47822L18.706,7.0627Q19.3913,6.28251,19.3061,5.247590000000001Q19.2209,4.212680000000001,18.417299999999997,3.5550100000000002Q17.6432,2.9214510000000002,16.646900000000002,3.01183Q15.6506,3.10221,15.0031,3.8647400000000003L14.7075,4.21289Z" /></g></g></svg>