<svg xmlns="http://www.w3.org/2000/svg" xmlns:xlink="http://www.w3.org/1999/xlink" version="1.1" viewBox="0 0 24 24"><g><g><path d="M4,11.5Q4,7.97919,6.48959,5.48959Q8.97918,3,12.5,3Q16.0208,3,18.5104,5.48959Q21,7.97918,21,11.5Q21,15.0208,18.5104,17.5104Q16.0208,20,12.5,20Q8.97918,20,6.48959,17.5104Q4,15.0208,4,11.5ZM5,11.5Q5,14.6066,7.1967,16.8033Q9.3934,19,12.5,19Q15.6066,19,17.8033,16.8033Q20,14.6066,20,11.5Q20,8.3934,17.8033,6.1967Q15.6066,4,12.5,4Q9.3934,4,7.1967,6.1967Q5,8.3934,5,11.5ZM10,10L11.56574,10L10.08397,7.77735C9.9308,7.54759,9.99289,7.23715,10.22265,7.08397C10.45241,6.9308,10.76285,6.99289,10.91603,7.22265L11.89907,8.69722L12.5,9.59861L14.084,7.22265C14.2372,6.99289,14.5476,6.9308,14.7774,7.08397C14.8877,7.15753,14.9643,7.27191,14.9903,7.40194C15.0163,7.53197,14.9896,7.66701,14.916,7.77735L14.916,7.77735L13.43426,10L15,10C15.2761,10,15.5,10.22386,15.5,10.5C15.5,10.77614,15.2761,11,15,11L13,11L13,13L15,13C15.2761,13,15.5,13.2239,15.5,13.5C15.5,13.7761,15.2761,14,15,14L13,14L13,16.5C13,16.7761,12.77614,17,12.5,17C12.22386,17,12,16.7761,12,16.5L12,14L10,14C9.72386,14,9.5,13.7761,9.5,13.5C9.5,13.2239,9.72386,13,10,13L12,13L12,11L10,11C9.72386,11,9.5,10.77614,9.5,10.5C9.5,10.22386,9.72386,10,10,10Z" /></g></g></svg>