<svg xmlns="http://www.w3.org/2000/svg" xmlns:xlink="http://www.w3.org/1999/xlink" version="1.1" viewBox="0 0 24 24"><g><g><g><path d="M10.280000000000001,3.0413699999999997Q11.39518,2.204983,11.872160000000001,2.0813616Q12.5,1.9186374,13.12784,2.0813618Q13.60482,2.204984,14.72,3.0413699999999997L19.52,6.64137Q20.2815,7.21248,20.4936,7.49288Q20.7745,7.86412,20.903,8.31155Q21,8.64951,21,9.60137L21,16.3014Q21,18.1117,20.7207,18.6506Q20.3549,19.3563,19.6492,19.722Q19.110300000000002,20.0014,17.3,20.0014L7.7,20.0014Q5.88967,20.0014,5.35079,19.722Q4.645113,19.3563,4.279328,18.6506Q4,18.1117,4,16.3014L4,9.60137Q4,8.64951,4.097034,8.31156Q4.225501,7.86412,4.50637,7.49289Q4.718516,7.21248,5.48,6.64137L10.280000000000001,3.0413699999999997ZM10.879999999999999,3.84137L6.08,7.44137Q5.43109,7.92805,5.30384,8.09624Q5.1352899999999995,8.31902,5.0582,8.587530000000001Q5,8.790230000000001,5,9.60137L5,16.3014Q5,17.8679,5.16714,18.1904Q5.38694,18.6144,5.81098,18.8342Q6.13344,19.0014,7.7,19.0014L17.3,19.0014Q18.8666,19.0014,19.189,18.8342Q19.6131,18.6144,19.832900000000002,18.1904Q20,17.8679,20,16.3014L20,9.60137Q20,8.790230000000001,19.9418,8.587530000000001Q19.8647,8.31902,19.696199999999997,8.09624Q19.5689,7.92805,18.92,7.44137L14.12,3.84137Q13.16278,3.1234599999999997,12.87696,3.04938Q12.5,2.9516780000000002,12.12304,3.04938Q11.83722,3.1234599999999997,10.879999999999999,3.84137ZM9.5,16.7514L15.5,16.7514C15.9142,16.7514,16.25,16.415599999999998,16.25,16.0014C16.25,15.5872,15.9142,15.2514,15.5,15.2514L9.5,15.2514C9.08579,15.2514,8.75,15.5872,8.75,16.0014C8.75,16.415599999999998,9.08579,16.7514,9.5,16.7514Z" /></g></g></g></svg>