<svg xmlns="http://www.w3.org/2000/svg" xmlns:xlink="http://www.w3.org/1999/xlink" version="1.1" viewBox="0 0 24 24"><g><g><g><path d="M4,18C4,19.1046,4.895431,20,6,20L18,20C19.104599999999998,20,20,19.1046,20,18L20,9.5C20,8.87049,19.7036,8.277709999999999,19.2,7.9L13.2,3.4C12.48889,2.866667,11.51111,2.866667,10.8,3.4L4.8,7.9C4.296388,8.277709999999999,4,8.87049,4,9.5L4,18ZM8.25,16.5C8.25,16.9155,8.58579,17.2524,9,17.2524L15,17.2524C15.4142,17.2524,15.75,16.9155,15.75,16.5C15.75,16.0845,15.4142,15.7476,15,15.7476L9,15.7476C8.58579,15.7476,8.25,16.0845,8.25,16.5Z" fill-rule="evenodd"/></g></g></g></svg>