<svg xmlns="http://www.w3.org/2000/svg" xmlns:xlink="http://www.w3.org/1999/xlink" version="1.1" viewBox="0 0 24 24"><g><g><path d="M3.510221,8.118054253540038Q3.628764,6.605214253540039,5.12219,6.0451842535400395L11.12219,3.795183253540039Q12,3.466005253540039,12.87781,3.795183253540039L18.8778,6.0451842535400395Q20.3709,6.605094253540039,20.4897,8.117394253540038Q20.5,8.194134253540039,20.5,8.27292425354004L20.5,9.000114253540039L20.5,16.61399425354004Q20.5,18.346494253540037,18.8778,18.954794253540037L12.87781,21.20479425354004Q12,21.53399425354004,11.12219,21.20479425354004L5.12219,18.954794253540037Q3.5,18.346494253540037,3.5,16.61399425354004L3.5,8.27292425354004Q3.5,8.19447425354004,3.510221,8.118054253540038ZM4.5,8.38600425354004L4.5,16.61399425354004Q4.5,17.65349425354004,5.47332,18.01849425354004L11.473320000000001,20.268494253540037Q11.48667,20.27349425354004,11.49996,20.27819425354004L11.49996,11.85417425354004Q11.49996,10.83862425354004,10.55705,10.46146425354004L5.6305700000000005,8.490874253540039L5.5,8.438644253540039L5.48604,8.433054253540039L4.7175,8.125644253540038Q4.63253,8.091654253540039,4.56528,8.144034253540038Q4.55576,8.151434253540039,4.5466,8.16057425354004L4.5466,8.16057425354004L4.54462,8.15892425354004L4.54316,8.157464253540038L4.51603,8.130334253540038L4.5466,8.16057425354004L4.5466,8.16057425354004Q4.51644,8.190984253540039,4.50587,8.228664253540039Q4.5,8.30530425354004,4.5,8.38600425354004ZM5.07027,7.1898442535400395Q5.07956,7.193434253540039,5.08889,7.1971642535400395L10.92844,9.53298425354004L10.93038,9.533764253540038Q11.5843,9.79591425354004,11.99998,10.35384425354004Q12.41628,9.79508425354004,13.07152,9.53298425354004L18.911099999999998,7.1971642535400395Q18.9204,7.193434253540039,18.9297,7.189834253540039Q18.755000000000003,7.0671242535400385,18.526699999999998,6.981514253540039L12.52668,4.731514253540039Q12,4.534005253540039,11.473320000000001,4.731514253540039L5.47331,6.981514253540039Q5.24502,7.0671242535400385,5.07027,7.1898442535400395ZM19.4941,8.228484253540039Q19.4835,8.19064425354004,19.4536,8.160764253540039Q19.3796,8.086794253540038,19.2825,8.125644253540038L18.514,8.43303425354004L18.5,8.438614253540038L13.44291,10.46146425354004Q12.5,10.83862425354004,12.5,11.85417425354004L12.5,15.50009425354004L12.49996,20.27829425354004Q12.51329,20.27349425354004,12.52669,20.268494253540037L18.526699999999998,18.01849425354004Q19.5,17.65349425354004,19.5,16.61399425354004L19.5,8.38600425354004Q19.5,8.30520425354004,19.4941,8.228484253540039ZM17.657899999999998,10.84426425354004L15.6579,11.84426425354004C15.5393,11.90357425354004,15.402,11.91333425354004,15.2762,11.87139425354004C15.1504,11.829464253540038,15.0464,11.739274253540039,14.9871,11.620664253540038C14.8636,11.373674253540038,14.9637,11.07333425354004,15.2107,10.94984425354004L17.2107,9.94984425354004C17.457700000000003,9.82634425354004,17.758,9.92645425354004,17.881500000000003,10.173444253540039C17.9408,10.292054253540039,17.9506,10.42936425354004,17.9087,10.555164253540038C17.8667,10.68097425354004,17.7765,10.78496425354004,17.657899999999998,10.84426425354004Z" /></g></g></svg>