<svg xmlns="http://www.w3.org/2000/svg" xmlns:xlink="http://www.w3.org/1999/xlink" version="1.1" viewBox="0 0 24 24"><g><g><path d="M12,5.5L12,3.5C12,3.223858,12.22386,3,12.5,3C12.77614,3,13,3.223858,13,3.5L13,5.5C13,5.77614,12.77614,6,12.5,6C12.22386,6,12,5.77614,12,5.5ZM5.85355,5.14645C5.75979,5.0526800000000005,5.63261,5,5.5,5C5.36739,5,5.24021,5.0526800000000005,5.14645,5.14645C5.0526800000000005,5.240209999999999,5,5.36739,5,5.5C5,5.63261,5.0526800000000005,5.75978,5.14645,5.85355L6.56066,7.26777C6.75592,7.46303,7.0725,7.46303,7.2677700000000005,7.26777C7.46303,7.0725,7.46303,6.75592,7.2677700000000005,6.56066L5.85355,5.14645ZM19.1464,5.14645C19.3417,4.95118,19.6583,4.95118,19.8536,5.14645C19.9473,5.240209999999999,20,5.36739,20,5.5C20,5.63261,19.9473,5.75978,19.8536,5.85355L18.4393,7.26777C18.2441,7.46303,17.927500000000002,7.46303,17.7322,7.26777C17.6385,7.174,17.5858,7.04682,17.5858,6.914210000000001C17.5858,6.781610000000001,17.6385,6.65443,17.7322,6.56066L19.1464,5.14645ZM6.5,13.25L6.5,18.75L4.5,18.75C4.223858,18.75,4,18.9739,4,19.25C4,19.5261,4.223858,19.75,4.5,19.75L20.5,19.75C20.7761,19.75,21,19.5261,21,19.25C21,18.9739,20.7761,18.75,20.5,18.75L18.5,18.75L18.5,13.25C18.5,9.93629,15.8137,7.25,12.5,7.25C9.18629,7.25,6.5,9.93629,6.5,13.25ZM17.5,18.75L17.5,13.25Q17.5,11.17893,16.0355,9.71447Q14.5711,8.25,12.5,8.25Q10.428930000000001,8.25,8.96447,9.71447Q7.5,11.17893,7.5,13.25L7.5,18.75L17.5,18.75ZM10.5,17C10.22386,17,10,16.7761,10,16.5C10,16.2239,10.22386,16,10.5,16L14.5,16C14.7761,16,15,16.2239,15,16.5C15,16.7761,14.7761,17,14.5,17L10.5,17Z" fill-rule="evenodd"/></g></g></svg>