<svg xmlns="http://www.w3.org/2000/svg" xmlns:xlink="http://www.w3.org/1999/xlink" version="1.1" viewBox="0 0 24 24"><g><g><path d="M8.780017564315795,6.337056199676514Q7.038567564315796,5.672456199676514,5.337227564315796,6.433905199676514Q3.635891564315796,7.195354199676514,2.971290564315796,8.936804199676514L2.969980564315796,8.940244199676513Q2.3053795643157957,10.681694199676514,3.066828564315796,12.383034199676514Q3.828277564315796,14.084364199676514,5.569727564315796,14.748964199676514Q7.311187564315796,15.413564199676514,9.012517564315797,14.652124199676514Q9.276217564315797,14.534094199676513,9.514997564315795,14.392544199676514L12.336437564315796,17.823824199676515Q12.001177564315796,18.211724199676514,11.803497564315796,18.729724199676514L11.802917564315797,18.731224199676515Q11.359847564315796,19.892224199676512,11.867487564315796,21.026424199676512Q12.375117564315795,22.160724199676515,13.536047564315796,22.603724199676513Q14.697047564315795,23.046824199676514,15.831247564315795,22.539224199676514Q16.9655475643158,22.031524199676515,17.408547564315796,20.870624199676513L17.409147564315795,20.869024199676513Q17.852247564315796,19.70812419967651,17.344547564315796,18.573824199676515Q16.851447564315798,17.47202419967651,15.741747564315796,17.022424199676514L18.962647564315795,11.103074199676513Q19.437847564315796,11.088404199676514,19.907447564315795,10.878204199676514Q20.853047564315794,10.455014199676514,21.222447564315797,9.487164199676513L21.222447564315797,9.487164199676513Q21.592147564315795,8.518394199676514,21.168947564315797,7.5728441996765135Q20.745747564315796,6.627285199676514,19.777847564315795,6.257918199676514Q18.810047564315795,5.888551199676514,17.864447564315796,6.311744199676514Q16.918947564315793,6.734937199676514,16.549547564315795,7.702784199676514L16.549547564315795,7.702784199676514Q16.408847564315796,8.071414199676514,16.382947564315796,8.435904199676514L11.500587564315795,9.282584199676513Q11.412357564315796,8.992204199676515,11.282917564315795,8.702994199676514Q10.521467564315795,7.001656199676514,8.780017564315795,6.337056199676514ZM11.681047564315795,10.266254199676514L16.525747564315797,9.426114199676514Q16.560347564315798,9.521714199676513,16.603047564315794,9.617104199676515Q17.012247564315796,10.531484199676513,17.930847564315798,10.907044199676513L14.728047564315796,16.793024199676516Q14.049747564315796,16.761724199676515,13.380747564315795,17.061124199676513Q13.242247564315797,17.123124199676514,13.114047564315795,17.194924199676514L10.312997564315797,13.788464199676515Q11.007357564315797,13.121624199676514,11.378457564315795,12.149214199676514L11.379767564315795,12.145784199676513Q11.740677564315796,11.200104199676513,11.681047564315795,10.266254199676514ZM8.423467564315796,7.271334199676514Q9.777927564315796,7.788244199676514,10.370167564315796,9.111504199676514Q10.962407564315797,10.434764199676515,10.445487564315796,11.789234199676514L10.444177564315796,11.792664199676514Q9.927267564315795,13.147124199676513,8.604007564315797,13.739364199676514Q7.280747564315796,14.331604199676514,5.926287564315796,13.814694199676513Q4.571817564315796,13.297784199676514,3.979577564315796,11.974524199676512Q3.387343564315796,10.651254199676513,3.904257564315796,9.296794199676514L3.905567564315796,9.293364199676514Q4.422477564315796,7.938894199676514,5.745737564315796,7.346654199676514Q7.068997564315796,6.754420199676513,8.423467564315796,7.271334199676514ZM15.319447564315796,17.930824199676515Q16.093447564315795,18.226224199676516,16.431847564315795,18.982324199676512Q16.770247564315795,19.73852419967651,16.474847564315795,20.512524199676513L16.474247564315796,20.514024199676513Q16.1789475643158,21.288024199676514,15.422747564315795,21.626424199676514Q14.666647564315795,21.964824199676514,13.892647564315796,21.669424199676513Q13.118647564315795,21.374124199676515,12.780247564315795,20.617924199676516Q12.441817564315796,19.861824199676512,12.737147564315796,19.08782419967651L12.737747564315796,19.08632419967651Q13.033147564315795,18.312324199676514,13.789347564315795,17.973924199676514Q14.545447564315795,17.635424199676514,15.319447564315796,17.930824199676515ZM20.256147564315796,7.981354199676513Q20.002247564315795,7.413874199676513,19.421347564315795,7.192194199676514Q18.840447564315795,6.970515199676513,18.273047564315796,7.2244941996765135Q17.705547564315793,7.4784841996765135,17.483847564315795,8.059344199676513L17.483847564315795,8.059344199676513Q17.261847564315794,8.641114199676514,17.515747564315795,9.208594199676513Q17.769747564315796,9.776074199676513,18.350647564315796,9.997754199676514Q18.931547564315796,10.219434199676513,19.498947564315795,9.965454199676515Q20.066447564315794,9.711474199676513,20.288147564315796,9.130604199676513L20.288147564315796,9.130604199676513Q20.510147564315798,8.548834199676513,20.256147564315796,7.981354199676513Z" /></g></g></svg>