<svg xmlns="http://www.w3.org/2000/svg" xmlns:xlink="http://www.w3.org/1999/xlink" version="1.1" viewBox="0 0 24 24"><g><g><path d="M15.5046,7.14143L16.9333,8.44617Q17.086199999999998,8.58583,17.293100000000003,8.576450000000001Q17.4999,8.567070000000001,17.6396,8.41413L20.5888,5.18485C20.6312,5.13835,20.6821,5.1003,20.7387,5.07268C20.9869,4.95157,21.2862,5.05456,21.4073,5.30273Q22.3005,7.13295,21.8622,9.12602Q21.3412,11.49517,19.2975,12.802Q17.2539,14.1088,14.8846,13.5878Q14.6246,13.5305,14.3725,13.4509L8.35746,20.6871Q7.52171,21.6925,6.2168,21.7738Q4.91191,21.8551,3.957809,20.9612Q3.00633574,20.0696,3.0000354648,18.7658Q2.99373507,17.4619,3.936561,16.5613L10.71924,10.08194Q10.026720000000001,8.41188,10.42294,6.61025Q10.94397,4.241099999999999,12.98764,2.934285Q15.0313,1.627472,17.4005,2.148508Q17.8278,2.242504,18.234099999999998,2.397265C18.2929,2.419648,18.346899999999998,2.452914,18.3934,2.49532C18.5973,2.68154,18.6116,2.997798,18.4254,3.2016999999999998L15.4725,6.43499Q15.1354,6.80421,15.5046,7.14143ZM14.8302,7.87982Q14.3714,7.46082,14.3433,6.84016Q14.3151,6.21947,14.7341,5.76068L17.148400000000002,3.11709Q15.205,2.703391,13.5264,3.77677Q11.83166,4.86043,11.3996,6.82504Q11.03789,8.46976,11.77001,9.9816C11.86463,10.17699,11.82236,10.41111,11.66538,10.56107L4.62731,17.284399999999998Q3.995804,17.8876,4.00002,18.761Q4.00424,19.6343,4.64157,20.2315Q5.28059,20.8302,6.15461,20.7758Q7.02865,20.7213,7.58844,20.0478L13.8254,12.5448C13.9625,12.3799,14.1895,12.3208,14.3897,12.3979Q14.7348,12.5309,15.0995,12.6111Q17.0641,13.0432,18.7588,11.95951Q20.4535,10.87584,20.8856,8.91123Q21.1654,7.63863,20.7909,6.44646L18.378,9.08849Q17.959,9.54728,17.3384,9.575420000000001Q16.7177,9.60356,16.2589,9.184560000000001L14.8302,7.87982ZM7.85526,17.361800000000002L6.3552599999999995,18.8618C6.26149,18.9556,6.134320000000001,19.0082,6.00171,19.0082C5.8690999999999995,19.0082,5.74192,18.9556,5.64816,18.8618C5.45289,18.6665,5.45289,18.3499,5.64816,18.1547L7.14816,16.6547C7.34342,16.459400000000002,7.66,16.459400000000002,7.85526,16.6547C7.94903,16.7485,8.00171,16.8756,8.00171,17.008200000000002C8.00171,17.1408,7.94903,17.268,7.85526,17.361800000000002Z" /></g></g></svg>