<svg xmlns="http://www.w3.org/2000/svg" xmlns:xlink="http://www.w3.org/1999/xlink" version="1.1" viewBox="0 0 24 24"><g><g><path d="M5.82433,8.61523L1.5,8.61523C1.223858,8.61523,1,8.839089999999999,1,9.11523C1,9.39138,1.223858,9.61523,1.5,9.61523L3.62682,9.61523Q3.62367,9.62367,3.6206,9.632159999999999Q3.47701,10.02954,3.70253,11.18934L4.81419,16.9065Q5.11475,18.452199999999998,5.42749,18.8993Q5.83849,19.4869,6.49374,19.7782Q6.99233,19.9999,8.56699,19.9999L15.204,19.9999Q16.7787,19.9999,17.2773,19.7782Q17.9325,19.4869,18.3435,18.8993Q18.6563,18.452199999999998,18.9568,16.9065L20.0685,11.189350000000001Q20.294,10.02954,20.1504,9.632159999999999Q20.1474,9.62369,20.1442,9.61523L22.2692,9.61523C22.5454,9.61523,22.7692,9.39138,22.7692,9.11523C22.7692,8.839089999999999,22.5454,8.61523,22.2692,8.61523L17.5702,8.61523C17.5903,8.486080000000001,17.559,8.354199999999999,17.483,8.24784L14.5984,4.209381C14.4379,3.9846746,14.1256,3.9326288,13.9009,4.0931332C13.793,4.17021,13.7202,4.286996,13.6984,4.4178C13.6766,4.548604,13.7076,4.682711,13.7847,4.7906189999999995L16.5166,8.61523L7.25102,8.61523L9.98289,4.7906189999999995C10.05997,4.682711,10.09102,4.548604,10.06922,4.4178C10.04742,4.286996,9.97455,4.17021,9.86664,4.0931332C9.64193,3.9326288,9.32966,3.9846746,9.16915,4.209381L6.28454,8.24784C6.20857,8.354199999999999,6.17727,8.486080000000001,6.19734,8.61523L5.82433,8.61523ZM17.9467,9.61523L5.82433,9.61523Q4.91891,9.61523,4.79324,9.69036Q4.62693,9.78978,4.56109,9.972010000000001Q4.51133,10.10971,4.68414,10.99848L5.79581,16.715600000000002Q6.05585,18.053,6.24693,18.3261Q6.49865,18.686,6.89996,18.8644Q7.20459,18.9999,8.56699,18.9999L15.204,18.9999Q16.5664,18.9999,16.8711,18.8644Q17.2724,18.686,17.5241,18.3261Q17.7152,18.053,17.9752,16.715600000000002L19.0869,10.99848Q19.2597,10.10971,19.2099,9.972010000000001Q19.1441,9.78978,18.9778,9.69036Q18.8521,9.61523,17.9467,9.61523ZM7.92383,16.0387L7.92383,12.57715L8.923829999999999,12.57715L8.923829999999999,16.0387L7.92383,16.0387ZM11.3848,16.0387L11.3848,12.57715L12.3848,12.57715L12.3848,16.0387L11.3848,16.0387ZM14.8457,16.0387L14.8457,12.57715L15.8457,12.57715L15.8457,16.0387L14.8457,16.0387Z" fill-rule="evenodd"/></g></g></svg>