<svg xmlns="http://www.w3.org/2000/svg" xmlns:xlink="http://www.w3.org/1999/xlink" version="1.1" viewBox="0 0 24 24"><g><g><path d="M20,11.04633Q20,14.6194,17.8024,17.392699999999998Q15.6039,20.167,12.12019,20.9868C12.04493,21.0045,11.96659,21.0045,11.89132,20.9868Q8.40843,20.1686,6.20473,17.393700000000003Q4,14.6175,4,11.04633L4,5.17651C4,4.91057,4.20818,4.69116,4.473757,4.6772Q8.31086,4.47553,11.71898,2.090413C11.89109,1.969967,12.12013,1.9699416,12.29226,2.0903493Q15.6939,4.46978,19.527,4.677239999999999C19.792299999999997,4.6916,20,4.91087,20,5.17651L20,11.04633ZM19,11.04633L19,5.64239Q15.306,5.32038,12.00574,3.10618Q8.69876,5.32594,5,5.64309L5,11.04633Q5,14.2687,6.987830000000001,16.7718Q8.939129999999999,19.2289,12.00558,19.9857Q15.0724,19.2276,17.0186,16.7716Q19,14.2712,19,11.04633ZM8.679310000000001,10.54537L11.04541,13.122L15.3219,8.57716C15.5111,8.37605,15.8276,8.366430000000001,16.0287,8.55566C16.229799999999997,8.744900000000001,16.2394,9.06133,16.0502,9.26244L11.405090000000001,14.199C11.39675,14.2078,11.3881,14.2164,11.37914,14.2246C11.281469999999999,14.3143,11.15216,14.3615,11.019680000000001,14.3559C10.88719,14.3502,10.76237,14.2922,10.67267,14.1945L7.94276,11.22175C7.75598,11.01836,7.76945,10.70206,7.97284,10.51528C8.17624,10.32851,8.49253,10.34198,8.679310000000001,10.54537Z" /></g></g></svg>