<svg xmlns="http://www.w3.org/2000/svg" xmlns:xlink="http://www.w3.org/1999/xlink" version="1.1" viewBox="0 0 24 24"><g><g><path d="M19.573999999999998,16.2223Q18.1415,18.3662,15.7593,19.353Q13.3771,20.3397,10.8482,19.8367Q8.319289999999999,19.3336,6.49606,17.5104Q4.672825,15.6872,4.169795,13.1583Q3.666765,10.62937,4.653494,8.24719Q5.64022,5.8650199999999995,7.78412,4.43251Q9.92802,3,12.50647,3Q14.1933,3,15.7578,3.64806Q17.334899999999998,4.3012999999999995,18.52,5.48645Q19.705199999999998,6.67159,20.3584,8.248660000000001Q21.0059,9.81193,21.0065,11.49723L21.0065,11.5Q21.0065,14.0784,19.573999999999998,16.2223ZM19.990099999999998,11L13.00647,11L13.00647,4.01635Q14.2278,4.09669,15.3751,4.57194Q16.7684,5.14906,17.8129,6.19355Q18.8574,7.23804,19.4345,8.63134Q19.9098,9.7787,19.990099999999998,11ZM18.7425,15.6668Q19.866300000000003,13.9849,19.9909,12L12.50647,12C12.23033,12,12.00647,11.77614,12.00647,11.5L12.00647,4.01555Q10.02154,4.1402,8.339690000000001,5.26398Q6.44802,6.52796,5.57737,8.62987Q4.70673,10.73179,5.15058,12.96318Q5.59443,15.1946,7.20317,16.8033Q8.8119,18.412,11.043289999999999,18.8559Q13.27467,19.2997,15.3766,18.4291Q17.4785,17.558500000000002,18.7425,15.6668Z" /></g></g></svg>