<svg xmlns="http://www.w3.org/2000/svg" xmlns:xlink="http://www.w3.org/1999/xlink" version="1.1" viewBox="0 0 24 24"><g><g><path d="M5.2658477109375,14.485589828338624C4.4848007109375,13.704539828338623,4.4847787109375,12.438229828338624,5.2658477109375,11.657159828338623L11.6572137109375,5.265799828338623C12.0868237109375,4.8361828283386235,12.6884337109375,4.625153528338623,13.2922837109375,4.692244728338623L17.9057537109375,5.204858828338623C18.3706537109375,5.256501828338623,18.737553710937497,5.623461828338623,18.7892537109375,6.088299828338624L19.3018537109375,10.701789828338622C19.3689537109375,11.305639828338624,19.157853710937502,11.907249828338623,18.7282537109375,12.336869828338623L12.3369137109375,18.728199828338624C11.5558437109375,19.509299828338623,10.2895337109375,19.509299828338623,9.5084837109375,18.728199828338624L5.2658477109375,14.485589828338624ZM12.3649437109375,5.9724998283386235L5.9735837109375005,12.363859828338622C5.5830457109375,12.754389828338622,5.5830607109375,13.387549828338623,5.9735837109375005,13.778069828338623L10.2162237109375,18.02069982833862C10.6067437109375,18.411199828338624,11.2399037109375,18.411199828338624,11.6304337109375,18.02069982833862L18.0217537109375,11.629349828338622Q18.1828537109375,11.468239828338623,18.2583537109375,11.253249828338623C18.308553710937503,11.109919828338622,18.3253537109375,10.962779828338622,18.308553710937503,10.811809828338623L17.7959537109375,6.198329828338623L13.1824737109375,5.685719828338623C13.0315137109375,5.668942828338623,12.8843737109375,5.685699828338623,12.7410437109375,5.735979828338623Q12.5260537109375,5.811389828338623,12.3649437109375,5.9724998283386235ZM13.7746437109375,10.224839828338624C14.5556937109375,11.005889828338624,15.8220537109375,11.005889828338624,16.603053710937502,10.224839828338624C17.3841537109375,9.443789828338623,17.3841537109375,8.177459828338623,16.603053710937502,7.396409828338623C15.8220537109375,6.615359828338623,14.5556937109375,6.615359828338623,13.7746437109375,7.396409828338623C12.9935937109375,8.177459828338623,12.9935937109375,9.443789828338623,13.7746437109375,10.224839828338624ZM14.4818037109375,9.517779828338623C14.8723537109375,9.908299828338624,15.5054537109375,9.908299828338624,15.8960537109375,9.517779828338623C16.2865537109375,9.127259828338623,16.2865537109375,8.494089828338623,15.8960537109375,8.103569828338623C15.5054537109375,7.713039828338623,14.8723537109375,7.713039828338623,14.4818037109375,8.103569828338623C14.0912737109375,8.494089828338623,14.0912737109375,9.127259828338623,14.4818037109375,9.517779828338623Z" /></g></g></svg>