<svg xmlns="http://www.w3.org/2000/svg" xmlns:xlink="http://www.w3.org/1999/xlink" version="1.1" viewBox="0 0 24 24"><g><g><path d="M6.146960703125,18.3418C6.085980703125,18.4638,6.146960703125,18.6467,6.268920703125,18.768700000000003C7.1226207031249995,19.5614,8.098290703125,20.1102,9.134930703125,20.4761L9.256890703125,20.4761C9.378850703125,20.4761,9.500800703125,20.4151,9.561780703124999,20.3541C10.171570703125,19.6224,11.086260703125,19.256500000000003,12.000940703125,19.256500000000003C12.915630703125,19.256500000000003,13.769370703125,19.6833,14.440070703125,20.3541C14.562070703125,20.4761,14.683970703125,20.5371,14.866970703125,20.4761C15.903570703125,20.0492,16.879270703125,19.5004,17.732970703124998,18.768700000000003C17.854970703124998,18.707700000000003,17.915870703125,18.5247,17.854970703124998,18.3418C17.610970703125,17.4271,17.671970703124998,16.5124,18.159770703124998,15.6587C18.586670703125,14.866,19.379370703125,14.3172,20.294070703125,14.0733C20.416070703125,14.0123,20.537970703125,13.8903,20.598970703125,13.7074C20.720970703125,13.09762,20.781870703125,12.54881,20.781870703125,12C20.781870703125,11.45119,20.720970703125,10.8414,20.598970703125,10.29259C20.598970703125,10.10965,20.476970703125,9.98769,20.294070703125,9.92671C19.379370703125,9.743780000000001,18.647670703125,9.19497,18.159770703124998,8.34126C17.671970703124998,7.54853,17.550070703125,6.57287,17.854970703124998,5.658189999999999C17.915870703125,5.53623,17.854970703124998,5.35329,17.732970703124998,5.23133C16.879270703125,4.438607,15.903570703125,3.889796,14.866970703125,3.5239224C14.744970703125,3.4629435,14.562070703125,3.5239224,14.440070703125,3.64588C13.830270703125,4.377628,12.915630703125,4.7435,12.000940703125,4.7435C11.086260703125,4.7435,10.232550703125,4.316649,9.561780703124999,3.64588C9.439830703125,3.5239223,9.317870703125,3.4629433,9.134930703125,3.5239223C8.098290703125,3.950775,7.1226207031249995,4.499586,6.268920703125,5.23133C6.146960703125,5.2923100000000005,6.085980703125,5.47525,6.146960703125,5.658189999999999C6.390880703125,6.57287,6.329900703125,7.48756,5.842070703125,8.34126C5.415210703125,9.13399,4.622490703125,9.6828,3.707802703125,9.92671C3.585844703125,9.98769,3.463886703125,10.10965,3.402907703125,10.29259C3.280949703125,10.90238,3.219970703125,11.45119,3.219970703125,12C3.219970703125,12.54881,3.280949603125,13.1586,3.402907703125,13.7074C3.402907703125,13.8903,3.524865703125,14.0123,3.707802703125,14.0733C4.622490703125,14.2562,5.354230703124999,14.805,5.842070703125,15.6587C6.329900703125,16.4515,6.451860703125,17.4271,6.146960703125,18.3418ZM14.581870703125,4.4839210000000005Q14.558070703125,4.475361,14.534170703125,4.466913L14.500970703125,4.455201Q14.542170703125,4.471918,14.581870703125,4.4839210000000005ZM6.702260703125,15.1486Q7.605770703125,16.6274,7.208950703125,18.2648Q8.036760703125001,18.9578,9.091480703125,19.3898Q10.243590703125001,18.256500000000003,12.000940703125,18.256500000000003Q13.583370703125,18.256500000000003,14.869170703125,19.3861Q15.967970703125,18.8887,16.804570703125002,18.2363Q16.481570703125,16.5885,17.285370703125,15.1734Q18.047370703125,13.7682,19.672670703125,13.21688Q19.781870703125,12.56705,19.781870703125,12Q19.781870703125,11.38311,19.680970703125,10.80325Q18.158170703125002,10.34362,17.299570703125,8.851420000000001Q16.396170703125,7.372529999999999,16.792970703125,5.73522Q15.965170703125,5.0421499999999995,14.910370703125,4.61017Q13.758270703125,5.7435,12.000940703125,5.7435Q10.418500703125,5.7435,9.132750703125,4.61395Q8.033930703125,5.11131,7.197310703125,5.76368Q7.520280703125,7.41145,6.716500703125,8.82653Q5.954580703125,10.23178,4.329230703125,10.78312Q4.219970703125,11.43295,4.219970703125,12Q4.219970703125,12.61689,4.320940703125,13.19675Q5.8436907031250005,13.6564,6.702260703125,15.1486ZM16.887370703125,5.39967Q16.896570703125,5.37082,16.906270703125,5.34196L16.918670703125002,5.3047Q16.899670703125,5.35319,16.887370703125,5.39967ZM6.919710703125,5.99059Q6.953060703125,5.962,6.986860703125,5.9337Q6.933990703125,5.98981,6.862320703125,6.03978L6.919710703125,5.99059ZM15.499970703125,12C15.499970703125,13.931,13.964870703125,15.5,12.000000703125,15.5C10.096490703125,15.5,8.500000703125,13.931,8.500000703125,12C8.500000703125,10.06897,10.035090703125,8.5,12.000000703125,8.5C13.903470703125,8.5,15.499970703125,10.06897,15.499970703125,12ZM13.777370703125,13.7694Q13.051660703125,14.5,12.000000703125,14.5Q10.980240703125,14.5,10.241370703125,13.7651Q9.500000703125,13.02775,9.500000703125,12Q9.500000703125,10.95809,10.222630703124999,10.23059Q10.948340703125,9.5,12.000000703125,9.5Q13.019750703125,9.5,13.758670703125,10.23488Q14.499970703125,10.972249999999999,14.499970703125,12Q14.499970703125,13.04191,13.777370703125,13.7694ZM17.015070703124998,18.0663Q17.048770703125,18.038,17.082170703125,18.0094L17.139570703125003,17.9602Q17.067870703125,18.010199999999998,17.015070703124998,18.0663ZM7.114510703125,18.6003Q7.1052807031250005,18.6291,7.0956407031249995,18.658L7.083220703125,18.6953Q7.102170703125,18.6468,7.114510703125,18.6003Z" fill-rule="evenodd" fill-opacity="0.800000011920929"/></g></g></svg>