<svg xmlns="http://www.w3.org/2000/svg" xmlns:xlink="http://www.w3.org/1999/xlink" version="1.1" viewBox="0 0 16 16"><g><g><path d="M8.00178703125,8.94441392578125L4.4349870312499995,12.51121392578125C4.17463903125,12.77156392578125,3.75252903125,12.77156392578125,3.49217903125,12.51122392578125C3.23182973125,12.25087392578125,3.23183003125,11.82876392578125,3.49218003125,11.56841392578125L7.05897703125,8.00160392578125L3.48871903125,4.43134392578125C3.22836963125,4.17099592578125,3.22836963125,3.74888592578125,3.48871903125,3.48853592578125C3.74906903125,3.22818652578125,4.17117903125,3.22818652578125,4.43152703125,3.48853592578125L8.00178703125,7.05879392578125L11.57205703125,3.48853592578125C11.69707703125,3.36351182578125,11.86664703125,3.29327392578125,12.04345703125,3.29327392578125C12.22026703125,3.29327392578125,12.38983703125,3.36351182578125,12.51486703125,3.48853592578125C12.77520703125,3.74888592578125,12.77520703125,4.17099592578125,12.51486703125,4.43134392578125L8.94459703125,8.00160392578125L12.51139703125,11.56841392578125C12.77174703125,11.82876392578125,12.77174703125,12.25087392578125,12.51140703125,12.51122392578125C12.25105703125,12.77156392578125,11.82894703125,12.77156392578125,11.56859703125,12.51121392578125L8.00178703125,8.94441392578125Z" fill-rule="evenodd" /></g></g></svg>