<svg xmlns="http://www.w3.org/2000/svg" xmlns:xlink="http://www.w3.org/1999/xlink" version="1.1" viewBox="0 0 24 24"><g><g><path d="M19.4136,3.87182Q21.2854,5.74369,21.2854,8.38037Q21.2855,11.01704,19.4073,12.8951Q17.4908,14.7454,14.91,14.7454Q14.1652,14.7454,13.4144,14.5636L11.43832,16.594099999999997C11.34419,16.6908,11.21496,16.7454,11.08,16.7454L10.46,16.7454L10.46,17.3854C10.46,17.53,10.3974,17.6675,10.28834,17.7625L8.81834,19.0425C8.727319999999999,19.1217,8.6107,19.1654,8.49,19.1654L7.66,19.1654L7.66,20.1754C7.66,20.4146,7.49059,20.6203,7.25583,20.6661L2.595829,21.5761C2.564259,21.5823,2.532167,21.5854,2.5,21.5854C2.223858,21.5854,2,21.3615,2,21.0854L2,16.705399999999997C2,16.5728,2.0526784,16.4456,2.146447,16.3518L8.67256,9.82571Q7.82412,6.40207,10.38645,3.87182Q12.2583,1.9999389648,14.9,1.9999389648Q17.5417,1.9999389648,19.4136,3.87182ZM18.7064,4.57893Q17.1274,2.999939,14.9,2.999939Q12.6726,2.999939,11.09355,4.57893Q8.84178,6.80253,9.71069,9.83776C9.76069,10.01242,9.712019999999999,10.20046,9.583549999999999,10.32893L3,16.9125L3,20.4783L6.66,19.7636L6.66,18.6654C6.66,18.3892,6.88386,18.1654,7.16,18.1654L8.30282,18.1654L9.46,17.1578L9.46,16.2454C9.46,15.9692,9.68386,15.7454,9.96,15.7454L10.86891,15.7454L12.9017,13.6567C13.0304,13.5244,13.2215,13.4738,13.3988,13.525Q14.1615,13.7454,14.91,13.7454Q17.0868,13.7454,18.7127,12.1757Q20.2855,10.60282,20.2854,8.38037Q20.2855,6.15791,18.7064,4.57893ZM15,6.08521Q15.8284,6.08521,16.4142,6.67099Q17,7.25678,17,8.08521Q17,8.913630000000001,16.4142,9.49942Q15.8284,10.08521,15,10.08521Q14.1716,10.08521,13.5858,9.49942Q13,8.913630000000001,13,8.08521Q13,7.25678,13.5858,6.67099Q14.1716,6.08521,15,6.08521ZM15,7.08521Q14.5858,7.08521,14.2929,7.3781Q14,7.67099,14,8.08521Q14,8.49942,14.2929,8.79231Q14.5858,9.08521,15,9.08521Q15.4142,9.08521,15.7071,8.79231Q16,8.49942,16,8.08521Q16,7.67099,15.7071,7.3781Q15.4142,7.08521,15,7.08521Z" /></g></g></svg>