<svg xmlns="http://www.w3.org/2000/svg" xmlns:xlink="http://www.w3.org/1999/xlink" fill="none" version="1.1" width="1921" height="103" viewBox="0 0 1921 103"><defs><linearGradient x1="0.5" y1="-3.0616171314629196e-17" x2="0.5" y2="1" id="master_svg0_11_09631"><stop offset="0%" stop-color="#080E1E" stop-opacity="1"/><stop offset="100%" stop-color="#080E1E" stop-opacity="0.6000000238418579"/></linearGradient><linearGradient x1="0.49579811096191406" y1="-0.08799999952316284" x2="0.5107731442095915" y2="0.9998515184865842" id="master_svg1_11_09768"><stop offset="0%" stop-color="#1B7EF2" stop-opacity="0"/><stop offset="100%" stop-color="#1B7EF2" stop-opacity="0.38999998569488525"/></linearGradient><linearGradient x1="0.5989465117454529" y1="0.07689473032951355" x2="1.6652682123924" y2="0.10520934618399735" id="master_svg2_11_09762"><stop offset="0%" stop-color="#1A5AA4" stop-opacity="0.2800000011920929"/><stop offset="100%" stop-color="#0669DD" stop-opacity="0.6499999761581421"/></linearGradient><linearGradient x1="6.140469821502847e-8" y1="-0.07936518639326096" x2="0.9254977745579346" y2="0.3806804084978599" id="master_svg3_11_09765"><stop offset="0%" stop-color="#6D8FB8" stop-opacity="0.05000000074505806"/><stop offset="100%" stop-color="#6D8FB8" stop-opacity="1"/></linearGradient><linearGradient x1="0.49579814076423645" y1="-0.08799999952316284" x2="0.510773174011914" y2="0.999851518486584" id="master_svg4_11_09777"><stop offset="0%" stop-color="#1B7EF2" stop-opacity="0"/><stop offset="100%" stop-color="#1B7EF2" stop-opacity="0.38999998569488525"/></linearGradient><linearGradient x1="0.5989465117454529" y1="0.07689473032951355" x2="1.6652682123924" y2="0.10520934618399735" id="master_svg5_11_09762"><stop offset="0%" stop-color="#1A5AA4" stop-opacity="0.2800000011920929"/><stop offset="100%" stop-color="#0669DD" stop-opacity="0.6499999761581421"/></linearGradient><linearGradient x1="6.894330795148562e-8" y1="-0.08800011873245239" x2="0.9284230634138932" y2="0.3699513534386074" id="master_svg6_11_09780"><stop offset="0%" stop-color="#6D8FB8" stop-opacity="0.05000000074505806"/><stop offset="100%" stop-color="#6D8FB8" stop-opacity="1"/></linearGradient><linearGradient x1="0.4996587038040161" y1="-0.3888886272907257" x2="0.4996587038040161" y2="0.9999997615814209" id="master_svg7_11_09742"><stop offset="0%" stop-color="#050607" stop-opacity="0.3100000023841858"/><stop offset="55.20833134651184%" stop-color="#10437F" stop-opacity="0.5400000214576721"/><stop offset="78.64583134651184%" stop-color="#1767C5" stop-opacity="0.7799999713897705"/><stop offset="100%" stop-color="#1B7EF2" stop-opacity="0.699999988079071"/></linearGradient><filter id="master_svg8_128_067316/11_09743" filterUnits="objectBoundingBox" color-interpolation-filters="sRGB" x="-0.7261904761904762" y="-11.6" width="1.9047619047619047" height="16.2"><feFlood flood-opacity="0" result="BackgroundImageFix"/><feColorMatrix in="SourceAlpha" type="matrix" values="0 0 0 0 0 0 0 0 0 0 0 0 0 0 0 0 0 0 127 0"/><feMorphology radius="5" operator="dilate" in="SourceAlpha" result="effect1_dropShadow"/><feOffset dy="1" dx="0"/><feGaussianBlur stdDeviation="4.5"/><feColorMatrix type="matrix" values="0 0 0 0 0.5684548616409302 0 0 0 0 0.7650489807128906 0 0 0 0 0.9958333373069763 0 0 0 0.8299999833106995 0"/><feBlend mode="normal" in2="BackgroundImageFix" result="effect1_dropShadow"/><feColorMatrix in="SourceAlpha" type="matrix" values="0 0 0 0 0 0 0 0 0 0 0 0 0 0 0 0 0 0 127 0"/><feMorphology radius="2" operator="dilate" in="SourceAlpha" result="effect2_dropShadow"/><feOffset dy="2" dx="0"/><feGaussianBlur stdDeviation="9"/><feColorMatrix type="matrix" values="0 0 0 0 0.40552085638046265 0 0 0 0 0.65789794921875 0 0 0 0 0.9541666507720947 0 0 0 0.5199999809265137 0"/><feBlend mode="normal" in2="effect1_dropShadow" result="effect2_dropShadow"/><feBlend mode="normal" in="SourceGraphic" in2="effect2_dropShadow" result="shape"/></filter><linearGradient x1="0.013698608614504337" y1="0.054794665426015854" x2="0.3753848346411106" y2="0.0995928174642784" id="master_svg9_11_09724"><stop offset="0%" stop-color="#1A5AA4" stop-opacity="0.8700000047683716"/><stop offset="100%" stop-color="#0669DD" stop-opacity="0.6499999761581421"/></linearGradient><linearGradient x1="0.013698608614504337" y1="0.054794665426015854" x2="0.3753848346411106" y2="0.0995928174642784" id="master_svga_11_09724"><stop offset="0%" stop-color="#1A5AA4" stop-opacity="0.8700000047683716"/><stop offset="100%" stop-color="#0669DD" stop-opacity="0.6499999761581421"/></linearGradient><linearGradient x1="0.5007898211479187" y1="-10.277778625488281" x2="0.5007898211479187" y2="0.8333332538604736" id="master_svgb_11_09727"><stop offset="0%" stop-color="#080B0E" stop-opacity="1"/><stop offset="100%" stop-color="#96C6FE" stop-opacity="1"/></linearGradient><linearGradient x1="0.5" y1="-0.3986012041568756" x2="0.5" y2="0.9999998211860657" id="master_svgc_11_09749"><stop offset="0%" stop-color="#14202E" stop-opacity="1"/><stop offset="100%" stop-color="#96C6FE" stop-opacity="1"/></linearGradient><linearGradient x1="-0.20000000298023224" y1="-1.0627525030522996e-14" x2="-0.20000000298023224" y2="1" id="master_svgd_11_09735"><stop offset="0%" stop-color="#1B7EF2" stop-opacity="0.41999998688697815"/><stop offset="100%" stop-color="#1B7EF2" stop-opacity="0"/></linearGradient><linearGradient x1="0.14166668057441711" y1="1.8255398074825714e-14" x2="0.14166453480720523" y2="0.9999999999955236" id="master_svge_11_09737"><stop offset="0%" stop-color="#29AFFA" stop-opacity="1"/><stop offset="95.98060250282288%" stop-color="#29AFFA" stop-opacity="0"/><stop offset="100%" stop-color="#29AFFA" stop-opacity="0"/></linearGradient><linearGradient x1="0.5638198852539062" y1="0.06250012665987015" x2="0.5638198852539062" y2="0.9375" id="master_svgf_11_09752"><stop offset="0%" stop-color="#1B7EF2" stop-opacity="0.41999998688697815"/><stop offset="100%" stop-color="#1B7EF2" stop-opacity="0"/></linearGradient><linearGradient x1="0.4698498845100403" y1="0.06249992549419403" x2="0.4698498845100403" y2="1" id="master_svgg_11_09754"><stop offset="0%" stop-color="#29AFFA" stop-opacity="1"/><stop offset="59.89583134651184%" stop-color="#29AFFA" stop-opacity="0"/><stop offset="100%" stop-color="#29AFFA" stop-opacity="0"/></linearGradient><linearGradient x1="0.5" y1="-3.0616171314629196e-17" x2="0.5" y2="1" id="master_svgh_11_09730"><stop offset="0%" stop-color="#1B7EF2" stop-opacity="0.41999998688697815"/><stop offset="100%" stop-color="#1B7EF2" stop-opacity="0"/></linearGradient><linearGradient x1="0.6314103007316589" y1="-8.073737804616815e-14" x2="0.6314052815668312" y2="0.9999999999751071" id="master_svgi_11_09732"><stop offset="0%" stop-color="#29AFFA" stop-opacity="1"/><stop offset="95.98060250282288%" stop-color="#29AFFA" stop-opacity="0"/><stop offset="100%" stop-color="#29AFFA" stop-opacity="0"/></linearGradient><linearGradient x1="0.3606557250022888" y1="-7.0748109282060215e-15" x2="0.3606557250022888" y2="1" id="master_svgj_11_09721"><stop offset="0%" stop-color="#1B7EF2" stop-opacity="0.41999998688697815"/><stop offset="100%" stop-color="#1B7EF2" stop-opacity="0"/></linearGradient><linearGradient x1="0.5286885499954224" y1="-1.3257591639087574e-13" x2="0.5286885499954224" y2="1" id="master_svgk_11_09718"><stop offset="0%" stop-color="#29AFFA" stop-opacity="1"/><stop offset="95.98060250282288%" stop-color="#29AFFA" stop-opacity="0"/><stop offset="100%" stop-color="#29AFFA" stop-opacity="0"/></linearGradient><linearGradient x1="0.3606557250022888" y1="-7.0748109282060215e-15" x2="0.3606557250022888" y2="1" id="master_svgl_11_09716"><stop offset="0%" stop-color="#164277" stop-opacity="1"/><stop offset="100%" stop-color="#14253A" stop-opacity="0.10000000149011612"/></linearGradient><linearGradient x1="0.5286885499954224" y1="-1.3257591639087574e-13" x2="0.5286885499954224" y2="1" id="master_svgm_11_09718"><stop offset="0%" stop-color="#29AFFA" stop-opacity="1"/><stop offset="95.98060250282288%" stop-color="#29AFFA" stop-opacity="0"/><stop offset="100%" stop-color="#29AFFA" stop-opacity="0"/></linearGradient><filter id="master_svgn_128_067316/11_09708" filterUnits="objectBoundingBox" color-interpolation-filters="sRGB" x="-0.8026315789473685" y="-12.2" width="2" height="16.2"><feFlood flood-opacity="0" result="BackgroundImageFix"/><feColorMatrix in="SourceAlpha" type="matrix" values="0 0 0 0 0 0 0 0 0 0 0 0 0 0 0 0 0 0 127 0"/><feMorphology radius="5" operator="dilate" in="SourceAlpha" result="effect1_dropShadow"/><feOffset dy="0" dx="0"/><feGaussianBlur stdDeviation="4.5"/><feColorMatrix type="matrix" values="0 0 0 0 0.5684548616409302 0 0 0 0 0.7650489807128906 0 0 0 0 0.9958333373069763 0 0 0 0.8299999833106995 0"/><feBlend mode="normal" in2="BackgroundImageFix" result="effect1_dropShadow"/><feColorMatrix in="SourceAlpha" type="matrix" values="0 0 0 0 0 0 0 0 0 0 0 0 0 0 0 0 0 0 127 0"/><feMorphology radius="2" operator="dilate" in="SourceAlpha" result="effect2_dropShadow"/><feOffset dy="0" dx="0"/><feGaussianBlur stdDeviation="9"/><feColorMatrix type="matrix" values="0 0 0 0 0.40552085638046265 0 0 0 0 0.65789794921875 0 0 0 0 0.9541666507720947 0 0 0 0.5199999809265137 0"/><feBlend mode="normal" in2="effect1_dropShadow" result="effect2_dropShadow"/><feBlend mode="normal" in="SourceGraphic" in2="effect2_dropShadow" result="shape"/></filter><filter id="master_svgo_128_067316/11_09739" filterUnits="objectBoundingBox" color-interpolation-filters="sRGB" x="-0.8026315789473685" y="-12.2" width="2" height="16.2"><feFlood flood-opacity="0" result="BackgroundImageFix"/><feColorMatrix in="SourceAlpha" type="matrix" values="0 0 0 0 0 0 0 0 0 0 0 0 0 0 0 0 0 0 127 0"/><feMorphology radius="5" operator="dilate" in="SourceAlpha" result="effect1_dropShadow"/><feOffset dy="0" dx="0"/><feGaussianBlur stdDeviation="4.5"/><feColorMatrix type="matrix" values="0 0 0 0 0.5684548616409302 0 0 0 0 0.7650489807128906 0 0 0 0 0.9958333373069763 0 0 0 0.8299999833106995 0"/><feBlend mode="normal" in2="BackgroundImageFix" result="effect1_dropShadow"/><feColorMatrix in="SourceAlpha" type="matrix" values="0 0 0 0 0 0 0 0 0 0 0 0 0 0 0 0 0 0 127 0"/><feMorphology radius="2" operator="dilate" in="SourceAlpha" result="effect2_dropShadow"/><feOffset dy="0" dx="0"/><feGaussianBlur stdDeviation="9"/><feColorMatrix type="matrix" values="0 0 0 0 0.40552085638046265 0 0 0 0 0.65789794921875 0 0 0 0 0.9541666507720947 0 0 0 0.5199999809265137 0"/><feBlend mode="normal" in2="effect1_dropShadow" result="effect2_dropShadow"/><feBlend mode="normal" in="SourceGraphic" in2="effect2_dropShadow" result="shape"/></filter><filter id="master_svgp_128_067316/11_09660" filterUnits="objectBoundingBox" color-interpolation-filters="sRGB" x="-0.3611111111111111" y="-0.8125" width="1.7222222222222223" height="2.625"><feFlood flood-opacity="0" result="BackgroundImageFix"/><feColorMatrix in="SourceAlpha" type="matrix" values="0 0 0 0 0 0 0 0 0 0 0 0 0 0 0 0 0 0 127 0"/><feOffset dy="0" dx="0"/><feGaussianBlur stdDeviation="6.5"/><feColorMatrix type="matrix" values="0 0 0 0 0.10588234663009644 0 0 0 0 0.49411749839782715 0 0 0 0 0.9490196108818054 0 0 0 0.9100000262260437 0"/><feBlend mode="normal" in2="BackgroundImageFix" result="effect1_dropShadow"/><feBlend mode="normal" in="SourceGraphic" in2="effect1_dropShadow" result="shape"/></filter><clipPath id="master_svgq_128_067316/11_09654"><rect x="152" y="18" width="36" height="36" rx="0"/></clipPath><filter id="master_svgr_128_067316/11_09672" filterUnits="objectBoundingBox" color-interpolation-filters="sRGB" x="-0.26804123711340205" y="-0.8125" width="1.5360824742268042" height="2.625"><feFlood flood-opacity="0" result="BackgroundImageFix"/><feColorMatrix in="SourceAlpha" type="matrix" values="0 0 0 0 0 0 0 0 0 0 0 0 0 0 0 0 0 0 127 0"/><feOffset dy="0" dx="0"/><feGaussianBlur stdDeviation="6.5"/><feColorMatrix type="matrix" values="0 0 0 0 0.10588234663009644 0 0 0 0 0.49411749839782715 0 0 0 0 0.9490196108818054 0 0 0 0.9100000262260437 0"/><feBlend mode="normal" in2="BackgroundImageFix" result="effect1_dropShadow"/><feBlend mode="normal" in="SourceGraphic" in2="effect1_dropShadow" result="shape"/></filter></defs><g><rect x="0" y="0" width="1920" height="80" rx="0" fill="url(#master_svg0_11_09631)" fill-opacity="1"/><g><g><g><g><path d="M509,0.5C509,0.5,595.2899,0.5,595.2899,0.5C595.2899,0.5,627,63,627,63C627,63,543.7059,63,543.7059,63C543.7059,63,509,29,509,29C509,29,509,0.5,509,0.5C509,0.5,509,0.5,509,0.5Z" fill="url(#master_svg1_11_09768)" fill-opacity="1"/></g><g><path d="M626.499976953125,62.49989C626.499976953125,62.49989,542.000016953125,61.99989,542.000016953125,61.99989C542.000016953125,61.99989,535.036376953125,56,535.036376953125,56C535.036376953125,56,623.536376953125,56.5,623.536376953125,56.5C623.536376953125,56.5,626.499976953125,62.49989,626.499976953125,62.49989C626.499976953125,62.49989,626.499976953125,62.49989,626.499976953125,62.49989Z" fill-rule="evenodd" fill="url(#master_svg2_11_09762)" fill-opacity="1"/></g><g><path d="M543,63C543,63,542.3032,63.7173,542.3032,63.7173C542.3032,63.7173,542.5942,64,542.5942,64C542.5942,64,543,64,543,64C543,64,543,63,543,63C543,63,543,63,543,63ZM508,29C508,29,507,29,507,29C507,29,507,29.4227,507,29.4227C507,29.4227,507.303214,29.7173,507.303214,29.7173C507.303214,29.7173,508,29,508,29C508,29,508,29,508,29ZM627,62C627,62,543,62,543,62C543,62,543,64,543,64C543,64,627,64,627,64C627,64,627,62,627,62C627,62,627,62,627,62ZM543.6968,62.2827C543.6968,62.2827,508.69679,28.2827,508.69679,28.2827C508.69679,28.2827,507.303214,29.7173,507.303214,29.7173C507.303214,29.7173,542.3032,63.7173,542.3032,63.7173C542.3032,63.7173,543.6968,62.2827,543.6968,62.2827C543.6968,62.2827,543.6968,62.2827,543.6968,62.2827ZM509,29C509,29,509,0,509,0C509,0,507,0,507,0C507,0,507,29,507,29C507,29,509,29,509,29C509,29,509,29,509,29Z" fill="url(#master_svg3_11_09765)" fill-opacity="1"/></g></g><g transform="matrix(-1,0,0,1,2828,0)"><g><path d="M1416,0.5C1416,0.5,1502.5,0.5,1502.5,0.5C1502.5,0.5,1534,63,1534,63C1534,63,1450.7059,63,1450.7059,63C1450.7059,63,1416,29,1416,29C1416,29,1416,0.5,1416,0.5C1416,0.5,1416,0.5,1416,0.5Z" fill="url(#master_svg4_11_09777)" fill-opacity="1"/></g><g><path d="M1533.499976953125,62.49989C1533.499976953125,62.49989,1449.000016953125,61.99989,1449.000016953125,61.99989C1449.000016953125,61.99989,1442.036376953125,56,1442.036376953125,56C1442.036376953125,56,1530.536376953125,56.5,1530.536376953125,56.5C1530.536376953125,56.5,1533.499976953125,62.49989,1533.499976953125,62.49989C1533.499976953125,62.49989,1533.499976953125,62.49989,1533.499976953125,62.49989Z" fill-rule="evenodd" fill="url(#master_svg5_11_09762)" fill-opacity="1"/></g><g><path d="M1450,63C1450,63,1449.3032,63.7173,1449.3032,63.7173C1449.3032,63.7173,1449.5942,64,1449.5942,64C1449.5942,64,1450,64,1450,64C1450,64,1450,63,1450,63C1450,63,1450,63,1450,63ZM1415,29C1415,29,1414,29,1414,29C1414,29,1414,29.4227,1414,29.4227C1414,29.4227,1414.303214,29.7173,1414.303214,29.7173C1414.303214,29.7173,1415,29,1415,29C1415,29,1415,29,1415,29ZM1534,62C1534,62,1450,62,1450,62C1450,62,1450,64,1450,64C1450,64,1534,64,1534,64C1534,64,1534,62,1534,62C1534,62,1534,62,1534,62ZM1450.6968,62.2827C1450.6968,62.2827,1415.69679,28.2827,1415.69679,28.2827C1415.69679,28.2827,1414.303214,29.7173,1414.303214,29.7173C1414.303214,29.7173,1449.3032,63.7173,1449.3032,63.7173C1449.3032,63.7173,1450.6968,62.2827,1450.6968,62.2827C1450.6968,62.2827,1450.6968,62.2827,1450.6968,62.2827ZM1416,29C1416,29,1416,0.5,1416,0.5C1416,0.5,1414,0.5,1414,0.5C1414,0.5,1414,29,1414,29C1414,29,1416,29,1416,29C1416,29,1416,29,1416,29Z" fill="url(#master_svg6_11_09780)" fill-opacity="1"/></g></g><g><g><path d="M594.5,0C594.5,0,1327,0,1327,0C1327,0,1291,72,1291,72C1291,72,1005.5,72,1005.5,72C1005.5,72,997,66,997,66C997,66,960.5,66,960.5,66C960.5,66,922.5,66,922.5,66C922.5,66,913.5,72,913.5,72C913.5,72,630,72,630,72C630,72,594.5,0,594.5,0C594.5,0,594.5,0,594.5,0Z" fill="url(#master_svg7_11_09742)" fill-opacity="1"/></g><g transform="matrix(-1,0,0,-1,2004,150)" filter="url(#master_svg8_128_067316/11_09743)"><path d="M1002,75C1002,75,1086,75,1086,75C1086,75,1080,80,1080,80C1080,80,1008,80,1008,80C1008,80,1002,75,1002,75C1002,75,1002,75,1002,75Z" fill="#C2DEFF" fill-opacity="1"/></g><g><path d="M612,35.5C612,35.5,619,35.5,619,35.5C619,35.5,633.8542,65,633.8542,65C633.8542,65,794.5,65,794.5,65C794.5,65,794.5,72,794.5,72C794.5,72,630.146,72,630.146,72C630.146,72,612,35.5,612,35.5C612,35.5,612,35.5,612,35.5Z" fill-rule="evenodd" fill="url(#master_svg9_11_09724)" fill-opacity="1"/></g><g transform="matrix(-1,0,0,1,2619,0)"><path d="M1309.5,34C1309.5,34,1316.5,34,1316.5,34C1316.5,34,1331.3542,63.5,1331.3542,63.5C1331.3542,63.5,1492,63.5,1492,63.5C1492,63.5,1492,70.5,1492,70.5C1492,70.5,1327.646,70.5,1327.646,70.5C1327.646,70.5,1309.5,34,1309.5,34C1309.5,34,1309.5,34,1309.5,34Z" fill-rule="evenodd" fill="url(#master_svga_11_09724)" fill-opacity="1"/></g><g><path d="M920.974,63.5C920.974,63.5,998.5,63.5,998.5,63.5C998.5,63.5,1006.5,69.5,1006.5,69.5C1006.5,69.5,1115.5,69.5,1115.5,69.5C1115.5,69.5,1118.5,72.5,1118.5,72.5C1118.5,72.5,1005.5,72.5,1005.5,72.5C1005.5,72.5,997.5,66.5,997.5,66.5C997.5,66.5,922.026,66.5,922.026,66.5C922.026,66.5,914.526,72.5,914.526,72.5C914.526,72.5,802,72.5,802,72.5C802,72.5,805,69.5,805,69.5C805,69.5,913.474,69.5,913.474,69.5C913.474,69.5,920.974,63.5,920.974,63.5C920.974,63.5,920.974,63.5,920.974,63.5Z" fill-rule="evenodd" fill="url(#master_svgb_11_09727)" fill-opacity="1"/></g><g><path d="M1291.0003239831924,71.99999399961233C1291.0003239831924,71.99999399961233,1291.0003239831924,72.99999399961233,1291.0003239831924,72.99999399961233C1291.0003239831924,72.99999399961233,1291.6203239831925,72.99999399961233,1291.6203239831925,72.99999399961233C1291.6203239831925,72.99999399961233,1291.8963239831924,72.44469399961233,1291.8963239831924,72.44469399961233C1291.8963239831924,72.44469399961233,1291.0003239831924,71.99999399961233,1291.0003239831924,71.99999399961233C1291.0003239831924,71.99999399961233,1291.0003239831924,71.99999399961233,1291.0003239831924,71.99999399961233ZM630.0000239831925,71.99999399961233C630.0000239831925,71.99999399961233,629.1043239831924,72.44469399961233,629.1043239831924,72.44469399961233C629.1043239831924,72.44469399961233,629.3800239831925,72.99999399961233,629.3800239831925,72.99999399961233C629.3800239831925,72.99999399961233,630.0000239831925,72.99999399961233,630.0000239831925,72.99999399961233C630.0000239831925,72.99999399961233,630.0000239831925,71.99999399961233,630.0000239831925,71.99999399961233C630.0000239831925,71.99999399961233,630.0000239831925,71.99999399961233,630.0000239831925,71.99999399961233ZM914.0003239831924,71.99999399961233C914.0003239831924,71.99999399961233,914.0003239831924,72.99999399961233,914.0003239831924,72.99999399961233C914.0003239831924,72.99999399961233,914.3513239831925,72.99999399961233,914.3513239831925,72.99999399961233C914.3513239831925,72.99999399961233,914.6253239831924,72.78089399961233,914.6253239831924,72.78089399961233C914.6253239831924,72.78089399961233,914.0003239831924,71.99999399961233,914.0003239831924,71.99999399961233C914.0003239831924,71.99999399961233,914.0003239831924,71.99999399961233,914.0003239831924,71.99999399961233ZM921.5003239831924,65.99999399961233C921.5003239831924,65.99999399961233,921.5003239831924,64.99999399961233,921.5003239831924,64.99999399961233C921.5003239831924,64.99999399961233,921.1493239831925,64.99999399961233,921.1493239831925,64.99999399961233C921.1493239831925,64.99999399961233,920.8753239831924,65.21909399961233,920.8753239831924,65.21909399961233C920.8753239831924,65.21909399961233,921.5003239831924,65.99999399961233,921.5003239831924,65.99999399961233C921.5003239831924,65.99999399961233,921.5003239831924,65.99999399961233,921.5003239831924,65.99999399961233ZM998.0003239831924,65.99999399961233C998.0003239831924,65.99999399961233,998.6003239831924,65.19999399961233,998.6003239831924,65.19999399961233C998.6003239831924,65.19999399961233,998.3333239831925,64.99999399961233,998.3333239831925,64.99999399961233C998.3333239831925,64.99999399961233,998.0003239831924,64.99999399961233,998.0003239831924,64.99999399961233C998.0003239831924,64.99999399961233,998.0003239831924,65.99999399961233,998.0003239831924,65.99999399961233C998.0003239831924,65.99999399961233,998.0003239831924,65.99999399961233,998.0003239831924,65.99999399961233ZM1006.0003239831924,71.99999399961233C1006.0003239831924,71.99999399961233,1005.4003239831925,72.79999399961233,1005.4003239831925,72.79999399961233C1005.4003239831925,72.79999399961233,1005.6673239831924,72.99999399961233,1005.6673239831924,72.99999399961233C1005.6673239831924,72.99999399961233,1006.0003239831924,72.99999399961233,1006.0003239831924,72.99999399961233C1006.0003239831924,72.99999399961233,1006.0003239831924,71.99999399961233,1006.0003239831924,71.99999399961233C1006.0003239831924,71.99999399961233,1006.0003239831924,71.99999399961233,1006.0003239831924,71.99999399961233ZM1325.6043239831924,0.05529399961233139C1325.6043239831924,0.05529399961233139,1290.1043239831924,71.55529399961233,1290.1043239831924,71.55529399961233C1290.1043239831924,71.55529399961233,1291.8963239831924,72.44469399961233,1291.8963239831924,72.44469399961233C1291.8963239831924,72.44469399961233,1327.3963239831924,0.9447059996123314,1327.3963239831924,0.9447059996123314C1327.3963239831924,0.9447059996123314,1325.6043239831924,0.05529399961233139,1325.6043239831924,0.05529399961233139C1325.6043239831924,0.05529399961233139,1325.6043239831924,0.05529399961233139,1325.6043239831924,0.05529399961233139ZM630.8957239831924,71.55529399961233C630.8957239831924,71.55529399961233,595.3956739831924,0.05529399961233139,595.3956739831924,0.05529399961233139C595.3956739831924,0.05529399961233139,593.6043239831924,0.9447059996123314,593.6043239831924,0.9447059996123314C593.6043239831924,0.9447059996123314,629.1043239831924,72.44469399961233,629.1043239831924,72.44469399961233C629.1043239831924,72.44469399961233,630.8957239831924,71.55529399961233,630.8957239831924,71.55529399961233C630.8957239831924,71.55529399961233,630.8957239831924,71.55529399961233,630.8957239831924,71.55529399961233ZM914.0003239831924,70.99999399961233C914.0003239831924,70.99999399961233,630.0000239831925,70.99999399961233,630.0000239831925,70.99999399961233C630.0000239831925,70.99999399961233,630.0000239831925,72.99999399961233,630.0000239831925,72.99999399961233C630.0000239831925,72.99999399961233,914.0003239831924,72.99999399961233,914.0003239831924,72.99999399961233C914.0003239831924,72.99999399961233,914.0003239831924,70.99999399961233,914.0003239831924,70.99999399961233C914.0003239831924,70.99999399961233,914.0003239831924,70.99999399961233,914.0003239831924,70.99999399961233ZM920.8753239831924,65.21909399961233C920.8753239831924,65.21909399961233,913.3753239831924,71.21909399961233,913.3753239831924,71.21909399961233C913.3753239831924,71.21909399961233,914.6253239831924,72.78089399961233,914.6253239831924,72.78089399961233C914.6253239831924,72.78089399961233,922.1253239831924,66.78089399961233,922.1253239831924,66.78089399961233C922.1253239831924,66.78089399961233,920.8753239831924,65.21909399961233,920.8753239831924,65.21909399961233C920.8753239831924,65.21909399961233,920.8753239831924,65.21909399961233,920.8753239831924,65.21909399961233ZM998.0003239831924,64.99999399961233C998.0003239831924,64.99999399961233,921.5003239831924,64.99999399961233,921.5003239831924,64.99999399961233C921.5003239831924,64.99999399961233,921.5003239831924,66.99999399961233,921.5003239831924,66.99999399961233C921.5003239831924,66.99999399961233,998.0003239831924,66.99999399961233,998.0003239831924,66.99999399961233C998.0003239831924,66.99999399961233,998.0003239831924,64.99999399961233,998.0003239831924,64.99999399961233C998.0003239831924,64.99999399961233,998.0003239831924,64.99999399961233,998.0003239831924,64.99999399961233ZM1291.0003239831924,70.99999399961233C1291.0003239831924,70.99999399961233,1006.0003239831924,70.99999399961233,1006.0003239831924,70.99999399961233C1006.0003239831924,70.99999399961233,1006.0003239831924,72.99999399961233,1006.0003239831924,72.99999399961233C1006.0003239831924,72.99999399961233,1291.0003239831924,72.99999399961233,1291.0003239831924,72.99999399961233C1291.0003239831924,72.99999399961233,1291.0003239831924,70.99999399961233,1291.0003239831924,70.99999399961233C1291.0003239831924,70.99999399961233,1291.0003239831924,70.99999399961233,1291.0003239831924,70.99999399961233ZM1006.6003239831924,71.19999399961233C1006.6003239831924,71.19999399961233,998.6003239831924,65.19999399961233,998.6003239831924,65.19999399961233C998.6003239831924,65.19999399961233,997.4003239831925,66.79999399961233,997.4003239831925,66.79999399961233C997.4003239831925,66.79999399961233,1005.4003239831925,72.79999399961233,1005.4003239831925,72.79999399961233C1005.4003239831925,72.79999399961233,1006.6003239831924,71.19999399961233,1006.6003239831924,71.19999399961233C1006.6003239831924,71.19999399961233,1006.6003239831924,71.19999399961233,1006.6003239831924,71.19999399961233Z" fill="url(#master_svgc_11_09749)" fill-opacity="1"/></g><g style="opacity:0.8100000023841858;"><path d="M805,43C805,43,765.7357,43,765.7357,43C765.7357,43,745,53,745,53C745,53,785.921,53,785.921,53C785.921,53,805,43,805,43C805,43,805,43,805,43Z" fill="url(#master_svgd_11_09735)" fill-opacity="1"/><path d="M765.7357,43L805,43L803.0921,44L785.921,53L745,53L765.7357,43ZM765.9642,44L800.938,44L785.6748,52L749.37568,52L765.9642,44Z" fill-rule="evenodd" fill="url(#master_svge_11_09737)" fill-opacity="1"/></g><g style="opacity:0.8100000023841858;"><path d="M947.7755,53C947.7755,53,918.94568,53,918.94568,53C918.94568,53,914,64,914,64C914,64,951,64,951,64C951,64,947.7755,53,947.7755,53C947.7755,53,947.7755,53,947.7755,53Z" fill="url(#master_svgf_11_09752)" fill-opacity="1"/><path d="M918.94568,53L947.7755,53L950.7069,63L951,64L914,64L918.94568,53ZM947.0266,54L949.6648,63L915.54603,63L919.5925,54L947.0266,54Z" fill-rule="evenodd" fill="url(#master_svgg_11_09754)" fill-opacity="1"/></g><g><path d="M791,46C791,46,701.7357,46,701.7357,46C701.7357,46,635,63,635,63C635,63,765.921,63,765.921,63C765.921,63,791,46,791,46C791,46,791,46,791,46Z" fill="url(#master_svgh_11_09730)" fill-opacity="1"/><path d="M701.7357,46L791,46L765.921,63L635,63L701.7357,46ZM701.8611,47L787.7429999999999,47L765.614,62L642.97663,62L701.8611,47Z" fill-rule="evenodd" fill="url(#master_svgi_11_09732)" fill-opacity="1"/></g><g transform="matrix(-1,0,0,1,2404,0)" style="opacity:0.18000000715255737;"><path d="M1324,18C1324,18,1234.7357,18,1234.7357,18C1234.7357,18,1202,35,1202,35C1202,35,1298.921,35,1298.921,35C1298.921,35,1324,18,1324,18C1324,18,1324,18,1324,18Z" fill="url(#master_svgj_11_09721)" fill-opacity="1"/><path d="M1234.7357,18L1324,18L1322.525,19L1298.921,35L1202,35L1234.7357,18ZM1234.9799,19L1320.743,19L1298.614,34L1206.09543,34L1234.9799,19Z" fill-rule="evenodd" fill="url(#master_svgk_11_09718)" fill-opacity="1"/></g><g transform="matrix(-1,0,0,1,2390,0)"><path d="M1317,24C1317,24,1227.7357,24,1227.7357,24C1227.7357,24,1195,41,1195,41C1195,41,1291.921,41,1291.921,41C1291.921,41,1317,24,1317,24C1317,24,1317,24,1317,24Z" fill="url(#master_svgl_11_09716)" fill-opacity="1"/><path d="M1227.7357,24L1317,24L1315.525,25L1291.921,41L1195,41L1227.7357,24ZM1227.9799,25L1313.743,25L1291.614,40L1199.09543,40L1227.9799,25Z" fill-rule="evenodd" fill="url(#master_svgm_11_09718)" fill-opacity="1"/></g><g filter="url(#master_svgn_128_067316/11_09708)"><path d="M675,71C675,71,751,71,751,71C751,71,745,76,745,76C745,76,681,76,681,76C681,76,675,71,675,71C675,71,675,71,675,71Z" fill="#C2DEFF" fill-opacity="1"/></g><g filter="url(#master_svgo_128_067316/11_09739)"><path d="M1170,71C1170,71,1246,71,1246,71C1246,71,1240,76,1240,76C1240,76,1176,76,1176,76C1176,76,1170,71,1170,71C1170,71,1170,71,1170,71Z" fill="#C2DEFF" fill-opacity="1"/></g></g><g><g style="opacity:0.6000000238418579;"><path d="M1302,68C1302,68,1320,68,1320,68C1320,68,1318,70,1318,70C1318,70,1300,70,1300,70C1300,70,1302,68,1302,68C1302,68,1302,68,1302,68Z" fill="#F2994A" fill-opacity="1"/></g><g><path d="M1326,68C1326,68,1344,68,1344,68C1344,68,1342,70,1342,70C1342,70,1324,70,1324,70C1324,70,1326,68,1326,68C1326,68,1326,68,1326,68Z" fill="#F2994A" fill-opacity="1"/></g><g style="opacity:0.30000001192092896;"><path d="M1350,68C1350,68,1368,68,1368,68C1368,68,1366,70,1366,70C1366,70,1348,70,1348,70C1348,70,1350,68,1350,68C1350,68,1350,68,1350,68Z" fill="#F2994A" fill-opacity="1"/></g></g><g transform="matrix(-1,0,0,1,1244,0)"><g style="opacity:0.6000000238418579;"><path d="M624,68C624,68,642,68,642,68C642,68,640,70,640,70C640,70,622,70,622,70C622,70,624,68,624,68C624,68,624,68,624,68Z" fill="#F2994A" fill-opacity="1"/></g><g><path d="M648,68C648,68,666,68,666,68C666,68,664,70,664,70C664,70,646,70,646,70C646,70,648,68,648,68C648,68,648,68,648,68Z" fill="#F2994A" fill-opacity="1"/></g><g style="opacity:0.30000001192092896;"><path d="M672,68C672,68,690,68,690,68C690,68,688,70,688,70C688,70,670,70,670,70C670,70,672,68,672,68C672,68,672,68,672,68Z" fill="#F2994A" fill-opacity="1"/></g></g></g><g><g><path d="M1402.3972630332946,59C1402.3972630332946,59,1408.2191830332947,59,1408.2191830332947,59C1408.2191830332947,59,1409.2465730332947,61,1409.2465730332947,61C1409.2465730332947,61,1401.3698630332947,61,1401.3698630332947,61C1401.3698630332947,61,1402.3972630332946,59,1402.3972630332946,59C1402.3972630332946,59,1402.3972630332946,59,1402.3972630332946,59Z" fill="#0E4688" fill-opacity="1"/></g><g><path d="M1885.9588928222656,60C1885.9588928222656,60,1891.0958928222656,60,1891.0958928222656,60C1891.0958928222656,60,1892.1232928222655,62,1892.1232928222655,62C1892.1232928222655,62,1886.9862928222656,62,1886.9862928222656,62C1886.9862928222656,62,1885.9588928222656,60,1885.9588928222656,60C1885.9588928222656,60,1885.9588928222656,60,1885.9588928222656,60Z" fill="#1B7EF2" fill-opacity="1"/></g><g><path d="M1893.8356323242188,60C1893.8356323242188,60,1898.9726323242187,60,1898.9726323242187,60C1898.9726323242187,60,1900.0000323242186,62,1900.0000323242186,62C1900.0000323242186,62,1894.8630323242187,62,1894.8630323242187,62C1894.8630323242187,62,1893.8356323242188,60,1893.8356323242188,60C1893.8356323242188,60,1893.8356323242188,60,1893.8356323242188,60Z" fill="#0D3565" fill-opacity="1"/></g><g><g style="opacity:0.20000000298023224;"><path d="M1486,55C1486,55,1504,55,1504,55C1504,55,1502,57,1502,57C1502,57,1484,57,1484,57C1484,57,1486,55,1486,55C1486,55,1486,55,1486,55Z" fill="#F2994A" fill-opacity="1"/></g><g style="opacity:0.800000011920929;"><path d="M1510,55C1510,55,1528,55,1528,55C1528,55,1526,57,1526,57C1526,57,1508,57,1508,57C1508,57,1510,55,1510,55C1510,55,1510,55,1510,55Z" fill="#F2994A" fill-opacity="1"/></g><g style="opacity:0.20000000298023224;"><path d="M1534,55C1534,55,1552,55,1552,55C1552,55,1550,57,1550,57C1550,57,1532,57,1532,57C1532,57,1534,55,1534,55C1534,55,1534,55,1534,55Z" fill="#F2994A" fill-opacity="1"/></g></g><g><path d="M1554.9345061569213,53C1554.9345061569213,53,1562.6715061569214,53,1562.6715061569214,53C1562.6715061569214,53,1564.3835061569214,57,1564.3835061569214,57C1564.3835061569214,57,1555.6825061569214,57,1555.6825061569214,57C1555.6825061569214,57,1554.1415061569214,63,1554.1415061569214,63C1554.1415061569214,63,1409.9315061569214,63,1409.9315061569214,63C1409.9315061569214,63,1411.3013661569214,59,1411.3013661569214,59C1411.3013661569214,59,1553.3935061569214,59,1553.3935061569214,59C1553.3935061569214,59,1554.9345061569213,53,1554.9345061569213,53C1554.9345061569213,53,1554.9345061569213,53,1554.9345061569213,53Z" fill-rule="evenodd" fill="#0E4688" fill-opacity="1"/></g><g><line x1="1556.8493194580078" y1="62.5" x2="1727.0548095703125" y2="62.5" fill-opacity="0" stroke-opacity="1" stroke="#0E488D" fill="none" stroke-width="1"/></g><g transform="matrix(1,-0.006870423909276724,0.0008058017119765282,1,-0.050765507854521275,11.893833272236307)"><line x1="1731.1643981933594" y1="62.5" x2="1883.2263488769531" y2="62.5" fill-opacity="0" stroke-opacity="1" stroke="#0E488D" fill="none" stroke-width="1"/></g><g><path d="M1400.342466,62C1400.342466,62,1413.3562,62,1413.3562,62C1413.3562,62,1413.3562,63,1413.3562,63C1413.3562,63,1400,63,1400,63C1400,63,1400.342466,62,1400.342466,62C1400.342466,62,1400.342466,62,1400.342466,62Z" fill="#0E488D" fill-opacity="1"/></g><g transform="matrix(-1,0,0,1,3151.369873046875,0)"><path d="M1575.6849365234375,56C1575.6849365234375,56,1588.0137365234375,56,1588.0137365234375,56C1588.0137365234375,56,1588.0137365234375,57,1588.0137365234375,57C1588.0137365234375,57,1575.6849365234375,57,1575.6849365234375,57C1575.6849365234375,57,1575.6849365234375,56,1575.6849365234375,56C1575.6849365234375,56,1575.6849365234375,56,1575.6849365234375,56Z" fill="#0E488D" fill-opacity="1"/></g><g transform="matrix(-1,0,0,1,3800,0)"><path d="M1900.00119687,56C1900.00119687,56,2220.89,56,2220.89,56C2220.89,56,2220.89,57,2220.89,57C2220.89,57,1900,57,1900,57C1900,57,1900.00119687,56,1900.00119687,56C1900.00119687,56,1900.00119687,56,1900.00119687,56Z" fill="#0D3565" fill-opacity="1"/></g><g><path d="M1730.1369934082031,60C1730.1369934082031,60,1730.8219144082032,60,1730.8219144082032,60C1730.8219144082032,60,1731.5068334082032,63,1731.5068334082032,63C1731.5068334082032,63,1730.8219144082032,63,1730.8219144082032,63C1730.8219144082032,63,1730.1369934082031,60,1730.1369934082031,60C1730.1369934082031,60,1730.1369934082031,60,1730.1369934082031,60Z" fill="#1B7EF2" fill-opacity="1"/></g></g><g transform="matrix(-1,0,0,1,1040,0)"><g><path d="M522.3972630332946,59C522.3972630332946,59,528.2191830332947,59,528.2191830332947,59C528.2191830332947,59,529.2465730332947,61,529.2465730332947,61C529.2465730332947,61,521.3698630332947,61,521.3698630332947,61C521.3698630332947,61,522.3972630332946,59,522.3972630332946,59C522.3972630332946,59,522.3972630332946,59,522.3972630332946,59Z" fill="#0E4688" fill-opacity="1"/></g><g><path d="M1005.9588928222656,60C1005.9588928222656,60,1011.0958928222656,60,1011.0958928222656,60C1011.0958928222656,60,1012.1232928222656,62,1012.1232928222656,62C1012.1232928222656,62,1006.9862928222656,62,1006.9862928222656,62C1006.9862928222656,62,1005.9588928222656,60,1005.9588928222656,60C1005.9588928222656,60,1005.9588928222656,60,1005.9588928222656,60Z" fill="#1B7EF2" fill-opacity="1"/></g><g><path d="M1013.8356323242188,60C1013.8356323242188,60,1018.9726323242187,60,1018.9726323242187,60C1018.9726323242187,60,1020.0000323242188,62,1020.0000323242188,62C1020.0000323242188,62,1014.8630323242187,62,1014.8630323242187,62C1014.8630323242187,62,1013.8356323242188,60,1013.8356323242188,60C1013.8356323242188,60,1013.8356323242188,60,1013.8356323242188,60Z" fill="#0D3565" fill-opacity="1"/></g><g><g style="opacity:0.20000000298023224;"><path d="M606,55C606,55,624,55,624,55C624,55,622,57,622,57C622,57,604,57,604,57C604,57,606,55,606,55C606,55,606,55,606,55Z" fill="#F2994A" fill-opacity="1"/></g><g style="opacity:0.800000011920929;"><path d="M630,55C630,55,648,55,648,55C648,55,646,57,646,57C646,57,628,57,628,57C628,57,630,55,630,55C630,55,630,55,630,55Z" fill="#F2994A" fill-opacity="1"/></g><g style="opacity:0.20000000298023224;"><path d="M654,55C654,55,672,55,672,55C672,55,670,57,670,57C670,57,652,57,652,57C652,57,654,55,654,55C654,55,654,55,654,55Z" fill="#F2994A" fill-opacity="1"/></g></g><g><path d="M674.9345061569213,53C674.9345061569213,53,682.6715061569214,53,682.6715061569214,53C682.6715061569214,53,684.3835061569214,57,684.3835061569214,57C684.3835061569214,57,675.6825061569214,57,675.6825061569214,57C675.6825061569214,57,674.1415061569214,63,674.1415061569214,63C674.1415061569214,63,529.9315061569214,63,529.9315061569214,63C529.9315061569214,63,531.3013661569214,59,531.3013661569214,59C531.3013661569214,59,673.3935061569214,59,673.3935061569214,59C673.3935061569214,59,674.9345061569213,53,674.9345061569213,53C674.9345061569213,53,674.9345061569213,53,674.9345061569213,53Z" fill-rule="evenodd" fill="#0E4688" fill-opacity="1"/></g><g><line x1="676.8493194580078" y1="62.5" x2="847.0548095703125" y2="62.5" fill-opacity="0" stroke-opacity="1" stroke="#0E488D" fill="none" stroke-width="1"/></g><g transform="matrix(1,-0.006870423909276724,0.0008058017119765282,1,-0.050765507854521275,5.84786023207279)"><line x1="851.1643981933594" y1="62.5" x2="1003.2263488769531" y2="62.5" fill-opacity="0" stroke-opacity="1" stroke="#0E488D" fill="none" stroke-width="1"/></g><g><path d="M520.342466,62C520.342466,62,533.3562,62,533.3562,62C533.3562,62,533.3562,63,533.3562,63C533.3562,63,520,63,520,63C520,63,520.342466,62,520.342466,62C520.342466,62,520.342466,62,520.342466,62Z" fill="#0E488D" fill-opacity="1"/></g><g transform="matrix(-1,0,0,1,1391.369873046875,0)"><path d="M695.6849365234375,56C695.6849365234375,56,708.0137365234375,56,708.0137365234375,56C708.0137365234375,56,708.0137365234375,57,708.0137365234375,57C708.0137365234375,57,695.6849365234375,57,695.6849365234375,57C695.6849365234375,57,695.6849365234375,56,695.6849365234375,56C695.6849365234375,56,695.6849365234375,56,695.6849365234375,56Z" fill="#0E488D" fill-opacity="1"/></g><g transform="matrix(-1,0,0,1,2040,0)"><path d="M1020.00119687,56C1020.00119687,56,1340.8899999999999,56,1340.8899999999999,56C1340.8899999999999,56,1340.8899999999999,57,1340.8899999999999,57C1340.8899999999999,57,1020,57,1020,57C1020,57,1020.00119687,56,1020.00119687,56C1020.00119687,56,1020.00119687,56,1020.00119687,56Z" fill="#0D3565" fill-opacity="1"/></g><g><path d="M850.1369934082031,60C850.1369934082031,60,850.8219144082032,60,850.8219144082032,60C850.8219144082032,60,851.5068334082031,63,851.5068334082031,63C851.5068334082031,63,850.8219144082032,63,850.8219144082032,63C850.8219144082032,63,850.1369934082031,60,850.1369934082031,60C850.1369934082031,60,850.1369934082031,60,850.1369934082031,60Z" fill="#1B7EF2" fill-opacity="1"/></g></g></g><g><g style="opacity:0;"><g filter="url(#master_svgp_128_067316/11_09660)"><path d="M47.82031,27L47.82031,31.5L49.8125,31.5L49.8125,28.94531L60.1094,28.94531L60.1094,31.4922L62.2188,31.4922L62.2188,27L47.82031,27ZM51.9766,30.3125C50.9688,32.0703,49.23438,33.8047,47.50781,34.875C47.99219,35.2656,48.75781,36.0781,49.11719,36.4688C50.8906,35.1719,52.8359,33.0703,54.0156,31L51.9766,30.3125ZM55.7656,31.2422C57.4219,32.7812,59.3906,35,60.25,36.414100000000005L61.9844,35.1484C61.0703,33.7344,59.0547,31.6094,57.375,30.1406L55.7656,31.2422ZM41.84375,27.75C43.16406,28.44531,44.9375,29.53906,45.80469,30.2656L47.00781,28.29688C46.09375,27.625,44.28906,26.59375,43,25.94531L41.84375,27.75ZM40.789062,34.3203C42.22656,35.0547,44.125,36.1953,45.0625,36.9922L46.1875,35.0781C45.20312,34.3203,43.28125,33.2578,41.89062,32.625L40.789062,34.3203ZM41.26562,46.351600000000005L43,48C44.19531,45.664100000000005,45.5625,42.7422,46.67188,40.1562L45.17969,38.6094C43.95312,41.3906,42.375,44.5078,41.26562,46.351600000000005ZM53.7969,34.9531L53.7969,37.5L47.72656,37.5L47.72656,39.5469L52.5,39.5469C51.0859,42.023399999999995,48.80469,44.210899999999995,46.33594,45.3672C46.83594,45.789100000000005,47.50781,46.5781,47.84375,47.1406C50.1719,45.8594,52.2891,43.648399999999995,53.7969,41.0938L53.7969,48.1953L56.0781,48.1953L56.0781,41.0938C57.4922,43.523399999999995,59.4375,45.7422,61.4297,47.039100000000005C61.789100000000005,46.4531,62.5078,45.6406,63.0156,45.2188C60.875,44.039100000000005,58.7188,41.8828,57.375,39.5469L62.273399999999995,39.5469L62.273399999999995,37.5L56.0781,37.5L56.0781,34.9531L53.7969,34.9531ZM79.2344,27.57031L79.2344,45.1094L81.39840000000001,45.1094L81.39840000000001,27.57031L79.2344,27.57031ZM83.8906,26.21094L83.8906,48.0469L86.1953,48.0469L86.1953,26.21094L83.8906,26.21094ZM74.5547,26.35938L74.5547,34.6484C74.5547,39.0156,74.2656,43.2578,71.6797,46.789100000000005C72.3281,47.0547,73.33590000000001,47.7031,73.83590000000001,48.0938C76.5,44.2422,76.78909999999999,39.3828,76.78909999999999,34.6719L76.78909999999999,26.35938L74.5547,26.35938ZM64.7656,42.8672L65.5078,45.2578C67.7656,44.3672,70.6484,43.1875,73.33590000000001,42.0469L72.89840000000001,39.9062L70.3594,40.8906L70.3594,33.7344L73.16409999999999,33.7344L73.16409999999999,31.5L70.3594,31.5L70.3594,25.92188L68.0781,25.92188L68.0781,31.5L65.1719,31.5L65.1719,33.7344L68.0781,33.7344L68.0781,41.726600000000005C66.8281,42.1719,65.6797,42.5703,64.7656,42.8672ZM97.7188,26.07031C98.2188,26.95312,98.77340000000001,28.09375,99.1562,29L89.125,29L89.125,31.210900000000002L98.72659999999999,31.210900000000002L98.72659999999999,34.5L91.33590000000001,34.5L91.33590000000001,45.5547L93.6094,45.5547L93.6094,36.710899999999995L98.72659999999999,36.710899999999995L98.72659999999999,48.273399999999995L101.10159999999999,48.273399999999995L101.10159999999999,36.710899999999995L106.5469,36.710899999999995L106.5469,42.8828C106.5469,43.1953,106.4297,43.2969,106.0234,43.3203C105.6172,43.3438,104.1953,43.3438,102.7344,43.273399999999995C103.0469,43.898399999999995,103.4062,44.8281,103.5,45.5C105.4922,45.5,106.8359,45.476600000000005,107.7734,45.1172C108.6406,44.7578,108.8984,44.1094,108.8984,42.9062L108.8984,34.5L101.10159999999999,34.5L101.10159999999999,31.210900000000002L110.9219,31.210900000000002L110.9219,29L101.8203,29C101.46090000000001,28.04688,100.625,26.52344,99.9453,25.39844L97.7188,26.07031Z" fill="#FFFFFF" fill-opacity="0.8700000047683716"/></g><g><g clip-path="url(#master_svgq_128_067316/11_09654)"><g><path d="M164.42068004608154,27.151165480270386C164.42068002700265,28.056515480270384,164.59900304608155,28.953005480270384,164.94546604608155,29.789435480270384C165.29192904608155,30.625825480270386,165.79975004608156,31.385925480270387,166.43993004608154,32.026025480270384C167.08011004608153,32.666225480270384,167.84011004608155,33.17402548027039,168.67655004608153,33.520525480270386C169.51298004608154,33.867025480270385,170.40947004608154,34.045325480270385,171.31482004608154,34.045325480270385C172.22017004608153,34.045325480270385,173.11666004608153,33.867025480270385,173.95309004608154,33.520525480270386C174.78948004608154,33.17402548027039,175.54958004608153,32.666225480270384,176.18968004608155,32.026025480270384C176.82988004608154,31.385925480270387,177.33768004608154,30.625825480270386,177.68418004608154,29.789435480270384C178.03068004608156,28.953005480270384,178.20898004608154,28.056515480270384,178.20898004608154,27.151165480270386C178.20898004608154,25.322725480270385,177.48258004608155,23.569175480270385,176.18968004608155,22.276275480270385C174.89678004608155,20.983370480270384,173.14326004608154,20.257025480270386,171.31482004608154,20.257025480270386C169.48638004608154,20.257025480270386,167.73283004608155,20.983370480270384,166.43993004608154,22.276275480270385C165.14702504608155,23.569175480270385,164.42068004608154,25.322725480270385,164.42068004608154,27.151165480270386C164.42068004608154,27.151165480270386,164.42068004608154,27.151165480270386,164.42068004608154,27.151165480270386C164.42068004608154,27.151165480270386,164.42068004608154,27.151165480270386,164.42068004608154,27.151165480270386Z" fill="#3B9EEB" fill-opacity="1"/></g><g><path d="M177.22464278945924,39.78631214065552C177.22464278945924,39.78631214065552,162.77540278945924,39.78631214065552,162.77540278945924,39.78631214065552C158.81681278945922,39.78631214065552,155.60704278945923,36.57661214065552,155.60704278945923,32.61797214065552C155.60704278945923,28.659382140655516,158.81681278945922,25.449612140655518,162.77540278945924,25.449612140655518C162.77540278945924,25.449612140655518,177.22814278945924,25.449612140655518,177.22814278945924,25.449612140655518C181.18674278945923,25.449612140655518,184.39654278945923,28.659382140655516,184.39654278945923,32.61797214065552C184.39294278945923,36.57661214065552,181.18674278945923,39.78631214065552,177.22464278945924,39.78631214065552C177.22464278945924,39.78631214065552,177.22464278945924,39.78631214065552,177.22464278945924,39.78631214065552Z" fill="#3B9EEB" fill-opacity="1"/></g><g><path d="M170.9703245162964,45.38320286743164C170.9703245162964,46.02304286743164,170.4500145162964,46.54336286743164,169.8101645162964,46.54336286743164C169.17032451629638,46.54336286743164,168.65001451629638,46.02304286743164,168.65001451629638,45.38320286743164C168.65001451629638,44.90859286743164,169.2863445162964,43.27030986743164,169.61680451629638,42.72538786743164C169.70470451629637,42.58124786743164,169.9156345162964,42.58124786743164,170.00352451629638,42.72538786743164C170.3339945162964,43.27382586743164,170.9703245162964,44.90859286743164,170.9703245162964,45.38320286743164C170.9703245162964,45.38320286743164,170.9703245162964,45.38320286743164,170.9703245162964,45.38320286743164ZM163.7281345162964,45.38320286743164C163.7281345162964,46.02304286743164,163.2078245162964,46.54336286743164,162.56798451629638,46.54336286743164C161.92813651629638,46.54336286743164,161.4078245162964,46.02304286743164,161.4078245162964,45.38320286743164C161.4078245162964,44.90859286743164,162.04415251629638,43.27030986743164,162.3746215162964,42.72538786743164C162.46251451629638,42.58124786743164,162.6734445162964,42.58124786743164,162.7613445162964,42.72538786743164C163.09180451629638,43.27382586743164,163.7281345162964,44.90859286743164,163.7281345162964,45.38320286743164C163.7281345162964,45.38320286743164,163.7281345162964,45.38320286743164,163.7281345162964,45.38320286743164ZM178.20552451629638,45.38320286743164C178.20552451629638,46.02304286743164,177.68512451629638,46.54336286743164,177.04532451629638,46.54336286743164C176.4055245162964,46.54336286743164,175.8851245162964,46.02304286743164,175.8851245162964,45.38320286743164C175.8851245162964,44.90859286743164,176.52152451629638,43.27030986743164,176.85192451629638,42.72538786743164C176.9398245162964,42.58124786743164,177.15082451629638,42.58124786743164,177.23872451629637,42.72538786743164C177.5691245162964,43.27382586743164,178.20552451629638,44.90859286743164,178.20552451629638,45.38320286743164C178.20552451629638,45.38320286743164,178.20552451629638,45.38320286743164,178.20552451629638,45.38320286743164ZM174.5914245162964,50.82890286743164C174.5914245162964,51.33515286743164,174.1836245162964,51.74296286743164,173.67732451629638,51.74296286743164C173.17112451629637,51.74296286743164,172.7633245162964,51.33515286743164,172.7633245162964,50.82890286743164C172.7633245162964,50.45624286743164,173.2660245162964,49.16250286743164,173.5262245162964,48.73359286743164C173.5965245162964,48.61757286743164,173.7617245162964,48.61757286743164,173.8285245162964,48.73359286743164C174.0887245162964,49.16250286743164,174.5914245162964,50.45273286743164,174.5914245162964,50.82890286743164C174.5914245162964,50.82890286743164,174.5914245162964,50.82890286743164,174.5914245162964,50.82890286743164C174.5914245162964,50.82890286743164,174.5914245162964,50.82890286743164,174.5914245162964,50.82890286743164ZM166.8605545162964,49.08163286743164C166.8605545162964,49.58788286743164,166.45274451629638,49.99570286743164,165.94649451629638,49.99570286743164C165.4402445162964,49.99570286743164,165.03243451629638,49.58788286743164,165.03243451629638,49.08163286743164C165.03243451629638,48.708982867431644,165.5351645162964,47.41523286743164,165.79532451629638,46.98632286743164C165.86563451629638,46.87031286743164,166.0308745162964,46.87031286743164,166.0976645162964,46.98632286743164C166.36134451629638,47.41523286743164,166.8605545162964,48.708982867431644,166.8605545162964,49.08163286743164C166.8605545162964,49.08163286743164,166.8605545162964,49.08163286743164,166.8605545162964,49.08163286743164Z" fill="#06F4FB" fill-opacity="1"/></g></g><g><path d="M211.064,25.864C211.04,27.759999999999998,211.064,30.183999999999997,210.704,32.728L201.488,32.728L201.488,34.576L210.392,34.576C209.432,39.135999999999996,207.032,43.792,201.032,46.384C201.536,46.768,202.112,47.416,202.4,47.872C208.256,45.184,210.848,40.576,212.024,35.944C213.89600000000002,41.416,216.992,45.664,221.648,47.872C221.96,47.344,222.536,46.6,222.992,46.192C218.336,44.248000000000005,215.192,39.879999999999995,213.512,34.576L222.608,34.576L222.608,32.728L212.624,32.728C212.96,30.208,212.984,27.808,213.008,25.864L211.064,25.864ZM229.112,36.4C230.504,37.263999999999996,232.328,38.464,233.264,39.184L234.344,38.056C233.36,37.336,231.488,36.184,230.12,35.416L229.112,36.4ZM228.872,41.104C230.312,42.04,232.232,43.36,233.168,44.152L234.272,43C233.264,42.232,231.344,40.96,229.928,40.120000000000005L228.872,41.104ZM237.704,36.4C239.168,37.239999999999995,241.088,38.464,242.048,39.16L243.10399999999998,37.984C242.096,37.288,240.152,36.16,238.736,35.368L237.704,36.4ZM237.368,41.056C238.856,41.992000000000004,240.848,43.288,241.88,44.08L242.936,42.903999999999996C241.88,42.135999999999996,239.864,40.912,238.4,40.048L237.368,41.056ZM225.272,27.352L225.272,29.128L235.016,29.128L235.016,32.272L226.4,32.272L226.4,47.872L228.128,47.872L228.128,33.976L235.016,33.976L235.016,47.632000000000005L236.792,47.632000000000005L236.792,33.976L243.92000000000002,33.976L243.92000000000002,45.616C243.92000000000002,46,243.8,46.096000000000004,243.368,46.120000000000005C242.96,46.144,241.52,46.144,239.96,46.096000000000004C240.224,46.552,240.488,47.296,240.584,47.751999999999995C242.528,47.751999999999995,243.89600000000002,47.751999999999995,244.664,47.464C245.43200000000002,47.176,245.672,46.647999999999996,245.672,45.616L245.672,32.272L236.792,32.272L236.792,29.128L246.752,29.128L246.752,27.352L225.272,27.352Z" fill="#3B9EEB" fill-opacity="1"/></g></g><g><path d="M290.112,46L299.76,46L299.76,44.176L296.23199999999997,44.176L296.23199999999997,28.408L294.552,28.408C293.592,28.96,292.464,29.368000000000002,290.904,29.656L290.904,31.048000000000002L294.048,31.048000000000002L294.048,44.176L290.112,44.176L290.112,46ZM306.072,46L308.352,46C308.64,39.111999999999995,309.384,35.007999999999996,313.512,29.728L313.512,28.408L302.496,28.408L302.496,30.28L311.04,30.28C307.584,35.08,306.384,39.328,306.072,46ZM315.744,40.120000000000005L321.888,40.120000000000005L321.888,38.44L315.744,38.44L315.744,40.120000000000005ZM324.024,46L335.088,46L335.088,44.104L330.216,44.104C329.328,44.104,328.248,44.2,327.336,44.272C331.464,40.36,334.248,36.784,334.248,33.256C334.248,30.136,332.256,28.096,329.112,28.096C326.88,28.096,325.344,29.104,323.928,30.664L325.2,31.912C326.18399999999997,30.736,327.408,29.872,328.848,29.872C331.032,29.872,332.088,31.336,332.088,33.352000000000004C332.088,36.376000000000005,329.544,39.879999999999995,324.024,44.704L324.024,46ZM343.008,46.312C346.296,46.312,348.504,44.32,348.504,41.775999999999996C348.504,39.352000000000004,347.088,38.032,345.552,37.144L345.552,37.024C346.584,36.208,347.88,34.624,347.88,32.775999999999996C347.88,30.064,346.056,28.144,343.056,28.144C340.32,28.144,338.23199999999997,29.944000000000003,338.23199999999997,32.608000000000004C338.23199999999997,34.456,339.336,35.775999999999996,340.608,36.664L340.608,36.760000000000005C339,37.623999999999995,337.392,39.28,337.392,41.632000000000005C337.392,44.344,339.744,46.312,343.008,46.312ZM344.20799999999997,36.448C342.12,35.632,340.224,34.696,340.224,32.608000000000004C340.224,30.904,341.4,29.776,343.032,29.776C344.904,29.776,346.008,31.144,346.008,32.896C346.008,34.192,345.384,35.391999999999996,344.20799999999997,36.448ZM343.032,44.68C340.92,44.68,339.336,43.312,339.336,41.44C339.336,39.760000000000005,340.344,38.367999999999995,341.76,37.456C344.256,38.464,346.416,39.328,346.416,41.704C346.416,43.456,345.072,44.68,343.032,44.68ZM354.12,34.552C355.92,34.552,357.48,33.184,357.48,31.119999999999997C357.48,29.008,355.92,27.688,354.12,27.688C352.296,27.688,350.736,29.008,350.736,31.119999999999997C350.736,33.184,352.296,34.552,354.12,34.552ZM354.12,33.304C352.92,33.304,352.104,32.391999999999996,352.104,31.119999999999997C352.104,29.823999999999998,352.92,28.936,354.12,28.936C355.296,28.936,356.13599999999997,29.823999999999998,356.13599999999997,31.119999999999997C356.13599999999997,32.391999999999996,355.296,33.304,354.12,33.304ZM367.248,46.312C369.48,46.312,371.20799999999997,45.424,372.6,43.792L371.28,42.376000000000005C370.176,43.623999999999995,368.976,44.296,367.296,44.296C363.984,44.296,361.896,41.56,361.896,37.192C361.896,32.848,364.08,30.136,367.392,30.136C368.856,30.136,369.96,30.736,370.896,31.72L372.192,30.28C371.15999999999997,29.176000000000002,369.456,28.119999999999997,367.368,28.119999999999997C362.856,28.119999999999997,359.52,31.552,359.52,37.239999999999995C359.52,42.952,362.808,46.312,367.248,46.312Z" fill="#3B9EEB" fill-opacity="1"/></g></g><g style="opacity:0;"><g><path d="M1509.056,46L1520.12,46L1520.12,44.104L1515.248,44.104C1514.36,44.104,1513.28,44.2,1512.368,44.272C1516.496,40.36,1519.28,36.784,1519.28,33.256C1519.28,30.136,1517.288,28.096,1514.144,28.096C1511.912,28.096,1510.376,29.104,1508.96,30.664L1510.232,31.912C1511.216,30.736,1512.44,29.872,1513.88,29.872C1516.064,29.872,1517.12,31.336,1517.12,33.352000000000004C1517.12,36.376000000000005,1514.576,39.879999999999995,1509.056,44.704L1509.056,46ZM1527.992,46.312C1531.328,46.312,1533.464,43.288,1533.464,37.144C1533.464,31.048000000000002,1531.328,28.096,1527.992,28.096C1524.632,28.096,1522.52,31.048000000000002,1522.52,37.144C1522.52,43.288,1524.632,46.312,1527.992,46.312ZM1527.992,44.536C1526,44.536,1524.632,42.304,1524.632,37.144C1524.632,32.007999999999996,1526,29.823999999999998,1527.992,29.823999999999998C1529.984,29.823999999999998,1531.352,32.007999999999996,1531.352,37.144C1531.352,42.304,1529.984,44.536,1527.992,44.536ZM1535.696,46L1546.76,46L1546.76,44.104L1541.888,44.104C1541,44.104,1539.92,44.2,1539.008,44.272C1543.136,40.36,1545.92,36.784,1545.92,33.256C1545.92,30.136,1543.9279999999999,28.096,1540.784,28.096C1538.552,28.096,1537.016,29.104,1535.6,30.664L1536.872,31.912C1537.856,30.736,1539.08,29.872,1540.52,29.872C1542.704,29.872,1543.76,31.336,1543.76,33.352000000000004C1543.76,36.376000000000005,1541.216,39.879999999999995,1535.696,44.704L1535.696,46ZM1556.12,46L1558.184,46L1558.184,41.152L1560.536,41.152L1560.536,39.4L1558.184,39.4L1558.184,28.408L1555.76,28.408L1548.44,39.712L1548.44,41.152L1556.12,41.152L1556.12,46ZM1556.12,39.4L1550.72,39.4L1554.728,33.4C1555.232,32.536,1555.712,31.648,1556.144,30.808L1556.24,30.808C1556.192,31.695999999999998,1556.12,33.135999999999996,1556.12,34L1556.12,39.4ZM1562.384,40.120000000000005L1568.528,40.120000000000005L1568.528,38.44L1562.384,38.44L1562.384,40.120000000000005ZM1571.72,46L1581.368,46L1581.368,44.176L1577.84,44.176L1577.84,28.408L1576.16,28.408C1575.2,28.96,1574.0720000000001,29.368000000000002,1572.512,29.656L1572.512,31.048000000000002L1575.656,31.048000000000002L1575.656,44.176L1571.72,44.176L1571.72,46ZM1585.04,46L1594.688,46L1594.688,44.176L1591.16,44.176L1591.16,28.408L1589.48,28.408C1588.52,28.96,1587.392,29.368000000000002,1585.8319999999999,29.656L1585.8319999999999,31.048000000000002L1588.976,31.048000000000002L1588.976,44.176L1585.04,44.176L1585.04,46ZM1597.352,40.120000000000005L1603.496,40.120000000000005L1603.496,38.44L1597.352,38.44L1597.352,40.120000000000005ZM1605.632,46L1616.696,46L1616.696,44.104L1611.824,44.104C1610.936,44.104,1609.856,44.2,1608.944,44.272C1613.0720000000001,40.36,1615.856,36.784,1615.856,33.256C1615.856,30.136,1613.864,28.096,1610.72,28.096C1608.488,28.096,1606.952,29.104,1605.536,30.664L1606.808,31.912C1607.792,30.736,1609.016,29.872,1610.456,29.872C1612.64,29.872,1613.696,31.336,1613.696,33.352000000000004C1613.696,36.376000000000005,1611.152,39.879999999999995,1605.632,44.704L1605.632,46ZM1624.184,46.312C1627.136,46.312,1629.944,44.128,1629.944,40.288C1629.944,36.4,1627.544,34.672,1624.64,34.672C1623.584,34.672,1622.792,34.936,1622,35.368L1622.456,30.28L1629.08,30.28L1629.08,28.408L1620.536,28.408L1619.96,36.616L1621.136,37.36C1622.144,36.688,1622.888,36.328,1624.064,36.328C1626.272,36.328,1627.712,37.816,1627.712,40.336C1627.712,42.903999999999996,1626.056,44.488,1623.968,44.488C1621.9279999999999,44.488,1620.632,43.552,1619.648,42.544L1618.544,43.984C1619.744,45.16,1621.424,46.312,1624.184,46.312Z" fill="#3B9EEB" fill-opacity="1"/></g><g><path d="M1677.808,31.744L1690.192,31.744L1690.192,33.903999999999996L1677.808,33.903999999999996L1677.808,31.744ZM1677.808,28.264L1690.192,28.264L1690.192,30.375999999999998L1677.808,30.375999999999998L1677.808,28.264ZM1676.056,26.823999999999998L1676.056,35.344L1692.04,35.344L1692.04,26.823999999999998L1676.056,26.823999999999998ZM1677.592,35.368C1676.632,37.480000000000004,1674.952,39.568,1673.2,40.912C1673.632,41.176,1674.376,41.704,1674.712,42.04C1675.552,41.32,1676.416,40.384,1677.208,39.352000000000004L1683.088,39.352000000000004L1683.088,41.632000000000005L1676.368,41.632000000000005L1676.368,43.096000000000004L1683.088,43.096000000000004L1683.088,45.712L1673.56,45.712L1673.56,47.296L1694.488,47.296L1694.488,45.712L1684.96,45.712L1684.96,43.096000000000004L1691.968,43.096000000000004L1691.968,41.632000000000005L1684.96,41.632000000000005L1684.96,39.352000000000004L1692.976,39.352000000000004L1692.976,37.816L1684.96,37.816L1684.96,35.872L1683.088,35.872L1683.088,37.816L1678.288,37.816C1678.696,37.192,1679.056,36.519999999999996,1679.368,35.872L1677.592,35.368ZM1700.272,42.568C1699.552,44.176,1698.28,45.784,1696.936,46.864000000000004C1697.368,47.128,1698.088,47.632000000000005,1698.424,47.92C1699.72,46.72,1701.112,44.872,1701.976,43.048L1700.272,42.568ZM1703.704,43.312C1704.64,44.44,1705.744,46.024,1706.176,47.007999999999996L1707.664,46.144C1707.16,45.16,1706.056,43.672,1705.096,42.568L1703.704,43.312ZM1716.52,28.672L1716.52,32.536L1711.6,32.536L1711.6,28.672L1716.52,28.672ZM1709.92,27.04L1709.92,35.752C1709.92,39.208,1709.728,43.792,1707.712,46.984C1708.12,47.176,1708.864,47.704,1709.152,48.016C1710.592,45.736000000000004,1711.216,42.664,1711.456,39.760000000000005L1716.52,39.760000000000005L1716.52,45.592C1716.52,45.976,1716.376,46.072,1716.04,46.096000000000004C1715.68,46.120000000000005,1714.456,46.120000000000005,1713.184,46.072C1713.424,46.552,1713.688,47.344,1713.76,47.824C1715.512,47.824,1716.664,47.8,1717.336,47.488C1718.032,47.2,1718.248,46.647999999999996,1718.248,45.616L1718.248,27.04L1709.92,27.04ZM1716.52,34.144L1716.52,38.128L1711.552,38.128C1711.6,37.288,1711.6,36.495999999999995,1711.6,35.752L1711.6,34.144L1716.52,34.144ZM1705.288,26.128L1705.288,29.032L1700.92,29.032L1700.92,26.128L1699.288,26.128L1699.288,29.032L1697.248,29.032L1697.248,30.64L1699.288,30.64L1699.288,40.456L1696.912,40.456L1696.912,42.064L1708.744,42.064L1708.744,40.456L1706.968,40.456L1706.968,30.64L1708.744,30.64L1708.744,29.032L1706.968,29.032L1706.968,26.128L1705.288,26.128ZM1700.92,30.64L1705.288,30.64L1705.288,32.775999999999996L1700.92,32.775999999999996L1700.92,30.64ZM1700.92,34.216L1705.288,34.216L1705.288,36.568L1700.92,36.568L1700.92,34.216ZM1700.92,38.032L1705.288,38.032L1705.288,40.456L1700.92,40.456L1700.92,38.032ZM1721.056,35.656L1721.056,37.623999999999995L1743.04,37.623999999999995L1743.04,35.656L1721.056,35.656Z" fill="#3B9EEB" fill-opacity="1"/></g><g filter="url(#master_svgr_128_067316/11_09672)"><path d="M1786.04,46L1796.144,46L1796.144,43.72L1792.712,43.72L1792.712,28.311999999999998L1790.624,28.311999999999998C1789.592,28.96,1788.416,29.392,1786.76,29.68L1786.76,31.432000000000002L1789.928,31.432000000000002L1789.928,43.72L1786.04,43.72L1786.04,46ZM1804.544,46.336C1807.976,46.336,1810.232,43.239999999999995,1810.232,37.096000000000004C1810.232,31,1807.976,28,1804.544,28C1801.064,28,1798.808,30.976,1798.808,37.096000000000004C1798.808,43.239999999999995,1801.064,46.336,1804.544,46.336ZM1804.544,44.128C1802.744,44.128,1801.472,42.184,1801.472,37.096000000000004C1801.472,32.032,1802.744,30.183999999999997,1804.544,30.183999999999997C1806.32,30.183999999999997,1807.592,32.032,1807.592,37.096000000000004C1807.592,42.184,1806.32,44.128,1804.544,44.128ZM1814.936,36.879999999999995C1815.992,36.879999999999995,1816.808,36.088,1816.808,34.96C1816.808,33.808,1815.992,32.992000000000004,1814.936,32.992000000000004C1813.904,32.992000000000004,1813.088,33.808,1813.088,34.96C1813.088,36.088,1813.904,36.879999999999995,1814.936,36.879999999999995ZM1814.936,46.336C1815.992,46.336,1816.808,45.495999999999995,1816.808,44.367999999999995C1816.808,43.239999999999995,1815.992,42.424,1814.936,42.424C1813.904,42.424,1813.088,43.239999999999995,1813.088,44.367999999999995C1813.088,45.495999999999995,1813.904,46.336,1814.936,46.336ZM1819.568,46L1830.992,46L1830.992,43.623999999999995L1826.552,43.623999999999995C1825.688,43.623999999999995,1824.584,43.72,1823.672,43.816C1827.416,40.239999999999995,1830.152,36.712,1830.152,33.304C1830.152,30.112000000000002,1828.064,28,1824.824,28C1822.496,28,1820.936,28.984,1819.424,30.64L1820.984,32.176C1821.944,31.072,1823.096,30.232,1824.464,30.232C1826.456,30.232,1827.44,31.528,1827.44,33.448C1827.44,36.352000000000004,1824.776,39.784,1819.568,44.391999999999996L1819.568,46ZM1839.056,46.336C1842.488,46.336,1844.744,43.239999999999995,1844.744,37.096000000000004C1844.744,31,1842.488,28,1839.056,28C1835.576,28,1833.32,30.976,1833.32,37.096000000000004C1833.32,43.239999999999995,1835.576,46.336,1839.056,46.336ZM1839.056,44.128C1837.256,44.128,1835.984,42.184,1835.984,37.096000000000004C1835.984,32.032,1837.256,30.183999999999997,1839.056,30.183999999999997C1840.832,30.183999999999997,1842.104,32.032,1842.104,37.096000000000004C1842.104,42.184,1840.832,44.128,1839.056,44.128ZM1849.448,36.879999999999995C1850.504,36.879999999999995,1851.32,36.088,1851.32,34.96C1851.32,33.808,1850.504,32.992000000000004,1849.448,32.992000000000004C1848.416,32.992000000000004,1847.6,33.808,1847.6,34.96C1847.6,36.088,1848.416,36.879999999999995,1849.448,36.879999999999995ZM1849.448,46.336C1850.504,46.336,1851.32,45.495999999999995,1851.32,44.367999999999995C1851.32,43.239999999999995,1850.504,42.424,1849.448,42.424C1848.416,42.424,1847.6,43.239999999999995,1847.6,44.367999999999995C1847.6,45.495999999999995,1848.416,46.336,1849.448,46.336ZM1859.456,46.336C1862.696,46.336,1865.36,44.44,1865.36,41.248000000000005C1865.36,38.872,1863.752,37.336,1861.736,36.808L1861.736,36.712C1863.608,36.016,1864.784,34.6,1864.784,32.56C1864.784,29.656,1862.528,28,1859.36,28C1857.32,28,1855.712,28.887999999999998,1854.296,30.136L1855.736,31.864C1856.768,30.880000000000003,1857.896,30.232,1859.264,30.232C1860.944,30.232,1861.976,31.192,1861.976,32.752C1861.976,34.528,1860.824,35.824,1857.344,35.824L1857.344,37.888000000000005C1861.328,37.888000000000005,1862.552,39.16,1862.552,41.104C1862.552,42.952,1861.208,44.032,1859.216,44.032C1857.392,44.032,1856.096,43.144,1855.04,42.111999999999995L1853.696,43.888000000000005C1854.896,45.208,1856.672,46.336,1859.456,46.336ZM1873.136,46.336C1876.376,46.336,1879.04,44.44,1879.04,41.248000000000005C1879.04,38.872,1877.432,37.336,1875.416,36.808L1875.416,36.712C1877.288,36.016,1878.464,34.6,1878.464,32.56C1878.464,29.656,1876.208,28,1873.04,28C1871,28,1869.392,28.887999999999998,1867.976,30.136L1869.416,31.864C1870.448,30.880000000000003,1871.576,30.232,1872.944,30.232C1874.624,30.232,1875.656,31.192,1875.656,32.752C1875.656,34.528,1874.504,35.824,1871.024,35.824L1871.024,37.888000000000005C1875.008,37.888000000000005,1876.232,39.16,1876.232,41.104C1876.232,42.952,1874.888,44.032,1872.896,44.032C1871.0720000000001,44.032,1869.776,43.144,1868.72,42.111999999999995L1867.376,43.888000000000005C1868.576,45.208,1870.352,46.336,1873.136,46.336Z" fill="#FFFFFF" fill-opacity="0.8700000047683716"/></g></g></g></g></svg>